<svg xmlns="http://www.w3.org/2000/svg" viewBox="0 0 242 362"><defs><style>.cls-1,.cls-3{fill:#fff;}.cls-1{stroke:#000;stroke-miterlimit:16;stroke-width:2px;}.cls-2,.cls-4{fill:#0b67b1;}.cls-3,.cls-4{fill-rule:evenodd;}</style></defs><g id="Layer_2" data-name="Layer 2"><g id="svg2"><g id="blue-00"><rect id="rect2987-1-8" class="cls-1" x="1" y="1" width="240" height="360" rx="40"/><rect id="rect3757-5-07" class="cls-2" x="21" y="21" width="200" height="320" rx="20"/><path id="path3773-0-4-8-4-2-7" class="cls-3" d="M181,81A160,160,0,0,0,21,241a40,40,0,0,0,40,40A160,160,0,0,0,221,121,40,40,0,0,0,181,81Z"/><path id="path3962-7-43" class="cls-4" d="M121,121a40,40,0,0,0-40,40v40a40,40,0,0,0,80,0V161A40,40,0,0,0,121,121Zm0,20a20,20,0,0,1,20,20v40a20,20,0,0,1-40,0V161A20,20,0,0,1,121,141Z"/><path id="path3962-7-1-1" class="cls-3" d="M51,31A20,20,0,0,0,31,51V71a20,20,0,0,0,40,0V51A20,20,0,0,0,51,31Zm0,10A10,10,0,0,1,61,51V71a10,10,0,0,1-20,0V51A10,10,0,0,1,51,41Z"/><path id="path3962-7-1-2-3" class="cls-3" d="M191,271a20,20,0,0,0-20,20v20a20,20,0,0,0,40,0V291A20,20,0,0,0,191,271Zm0,10a10,10,0,0,1,10,10v20a10,10,0,0,1-20,0V291A10,10,0,0,1,191,281Z"/></g></g></g></svg>