<svg xmlns="http://www.w3.org/2000/svg" viewBox="0 0 242 362"><defs><style>.cls-1,.cls-3,.cls-4{fill:#fff;}.cls-1{stroke:#000;stroke-miterlimit:16;stroke-width:2px;}.cls-2{fill:#0b67b1;}.cls-3{fill-rule:evenodd;}</style></defs><g id="Layer_2" data-name="Layer 2"><g id="svg2"><g id="blue-03"><rect id="rect2987-8-5-2" class="cls-1" x="1" y="1" width="240" height="360" rx="40"/><rect id="rect3757-26-33-87" class="cls-2" x="21" y="21" width="200" height="320" rx="20"/><path id="path3773-0-4-8-4-60-3-4" class="cls-3" d="M181,81A160,160,0,0,0,21,241a40,40,0,0,0,40,40A160,160,0,0,0,221,121,40,40,0,0,0,181,81Z"/><path id="rect3163-52-9-8-1-1-2-7-3-6-4-6-1-8-7-0-1-8" class="cls-2" d="M121,121a30,30,0,0,0-30,30h20a10,10,0,1,1,10,10H109v20h12a20,20,0,1,1-20,20H81a40,40,0,1,0,63.88-32A29.88,29.88,0,0,0,121,121Z"/><path id="rect3163-52-9-8-1-1-2-7-3-6-4-6-1-8-7-0-6-2-14" class="cls-4" d="M51,31A15,15,0,0,0,36,46H46a5,5,0,1,1,5,5H45V61h6A10,10,0,1,1,41,71H31A20,20,0,1,0,62.94,55,14.83,14.83,0,0,0,66,46,15,15,0,0,0,51,31Z"/><path id="rect3163-52-9-8-1-1-2-7-3-6-4-6-1-8-7-0-6-2-6-35" class="cls-4" d="M191,331a15,15,0,0,0,15-15H196a5,5,0,1,1-5-5h6V301h-6a10,10,0,1,1,10-10h10a20,20,0,1,0-31.94,16,14.83,14.83,0,0,0-3.06,9A15,15,0,0,0,191,331Z"/></g></g></g></svg>