<svg xmlns="http://www.w3.org/2000/svg" viewBox="0 0 242 362"><defs><style>.cls-1,.cls-3,.cls-4{fill:#fff;}.cls-1{stroke:#000;stroke-miterlimit:16;stroke-width:2px;}.cls-2{fill:#0b67b1;}.cls-3{fill-rule:evenodd;}</style></defs><g id="Layer_2" data-name="Layer 2"><g id="svg2"><g id="blue-05"><rect id="rect2987-8-5-6-50" class="cls-1" x="1" y="1" width="240" height="360" rx="40"/><rect id="rect3757-26-33-81-5" class="cls-2" x="21" y="21" width="200" height="320" rx="20"/><path id="path3773-0-4-8-4-60-3-9-8" class="cls-3" d="M181,81A160,160,0,0,0,21,241a40,40,0,0,0,40,40A160,160,0,0,0,221,121,40,40,0,0,0,181,81Z"/><path id="rect3163-6-0-0-2-7-1-2-19-4-8" class="cls-2" d="M85,121v60h40a20,20,0,1,1-20,20H85a40,40,0,1,0,40-40H105V141h56V121H85Z"/><path id="rect3163-6-0-0-2-7-1-2-19-2-4-01" class="cls-4" d="M31,31V61H51A10,10,0,1,1,41,71H31A20,20,0,1,0,51,51H41V41H69V31H31Z"/><path id="rect3163-6-0-0-2-7-1-2-19-2-4-6-3" class="cls-4" d="M211,331V301H191a10,10,0,1,1,10-10h10a20,20,0,1,0-20,20h10v10H173v10h38Z"/></g></g></g></svg>