<svg xmlns="http://www.w3.org/2000/svg" viewBox="0 0 242 362"><defs><style>.cls-1,.cls-3,.cls-4{fill:#fff;}.cls-1{stroke:#000;stroke-miterlimit:16;stroke-width:2px;}.cls-2{fill:#4ba438;}.cls-3{fill-rule:evenodd;}</style></defs><g id="Layer_2" data-name="Layer 2"><g id="svg2"><g id="green-08"><rect id="rect2987-8-5-8-3" class="cls-1" x="1" y="1" width="240" height="360" rx="40"/><rect id="rect3757-26-33-9-6" class="cls-2" x="21" y="21" width="200" height="320" rx="20"/><path id="path3773-0-4-8-4-60-3-0-5" class="cls-3" d="M181,81A160,160,0,0,0,21,241a40,40,0,0,0,40,40A160,160,0,0,0,221,121,40,40,0,0,0,181,81Z"/><path id="rect3163-52-9-8-1-1-2-7-3-6-4-6-1-8-8-5-2" class="cls-2" d="M121,121a29.88,29.88,0,0,0-23.88,48,40,40,0,1,0,47.76,0A29.88,29.88,0,0,0,121,121Zm0,20a10,10,0,1,1-10,10A10,10,0,0,1,121,141Zm-2,40a19.06,19.06,0,0,1,2,0,19,19,0,1,1-2,0Z"/><path id="rect3163-52-9-8-1-1-2-7-3-6-4-6-1-8-8-2-1-8" class="cls-4" d="M51,31A15,15,0,0,0,36,46a14.83,14.83,0,0,0,3.06,9,20,20,0,1,0,23.88,0A14.83,14.83,0,0,0,66,46,15,15,0,0,0,51,31Zm0,10a5,5,0,1,1-5,5A5,5,0,0,1,51,41ZM50,61a8.34,8.34,0,0,1,1,0,9.51,9.51,0,1,1-1,0Z"/><path id="rect3163-52-9-8-1-1-2-7-3-6-4-6-1-8-8-2-1-1-1" class="cls-4" d="M191,331a15,15,0,0,1-15-15,14.83,14.83,0,0,1,3.06-9,20,20,0,1,1,23.88,0,14.83,14.83,0,0,1,3.06,9A15,15,0,0,1,191,331Zm0-10a5,5,0,1,0-5-5A5,5,0,0,0,191,321Zm-1-20a8.34,8.34,0,0,0,1,0,9.51,9.51,0,1,0-1,0Z"/></g></g></g></svg>