<svg xmlns="http://www.w3.org/2000/svg" viewBox="0 0 242 362"><defs><style>.cls-1,.cls-3{fill:#fff;}.cls-1{stroke:#000;stroke-miterlimit:16;stroke-width:2px;}.cls-2,.cls-4{fill:#4ba438;}.cls-3,.cls-4{fill-rule:evenodd;}</style></defs><g id="Layer_2" data-name="Layer 2"><g id="svg2"><g id="green-skip"><rect id="rect2987-8-5-81-5-9" class="cls-1" x="1" y="1" width="240" height="360" rx="40"/><rect id="rect3757-26-33-5-3-0" class="cls-2" x="21" y="21" width="200" height="320" rx="20"/><path id="path3773-0-4-8-4-60-3-86-2-5" class="cls-3" d="M181,81A160,160,0,0,0,21,241a40,40,0,0,0,40,40A160,160,0,0,0,221,121,40,40,0,0,0,181,81Z"/><path id="path5897-6-5-3" class="cls-4" d="M121.12,121a60,60,0,1,0,42.38,17.62A59.93,59.93,0,0,0,121.12,121ZM121,141a40.08,40.08,0,0,1,20.25,5.5L86.5,201.25A40,40,0,0,1,121,141Zm34.5,19.63a40,40,0,0,1-54.87,54.75Z"/><path id="path5897-6-8-2-4" class="cls-3" d="M61.06,31a30,30,0,1,0,21.19,8.81A29.94,29.94,0,0,0,61.06,31ZM61,41a20,20,0,0,1,10.12,2.75L43.75,71.12a20,20,0,0,1,3.13-24.31A19.82,19.82,0,0,1,61,41Zm17.25,9.81A20,20,0,0,1,50.81,78.18L78.25,50.81Z"/><path id="path5897-6-8-5-1" class="cls-3" d="M181.06,271a30,30,0,1,0,21.19,8.81A29.94,29.94,0,0,0,181.06,271ZM181,281a20,20,0,0,1,10.12,2.75l-27.37,27.37a20,20,0,0,1,3.13-24.31A19.82,19.82,0,0,1,181,281Zm17.25,9.81a20,20,0,0,1-27.44,27.37l27.44-27.37Z"/></g></g></g></svg>