<svg xmlns="http://www.w3.org/2000/svg" viewBox="0 0 242 362"><defs><style>.cls-1,.cls-3{fill:#fff;}.cls-1{stroke:#000;stroke-miterlimit:16;stroke-width:2px;}.cls-2,.cls-4{fill:#4ba438;}.cls-3,.cls-4{fill-rule:evenodd;}</style></defs><g id="Layer_2" data-name="Layer 2"><g id="svg2"><g id="green-07"><rect id="rect2987-4-6" class="cls-1" x="1" y="1" width="240" height="360" rx="40"/><rect id="rect3757-2-5" class="cls-2" x="21" y="21" width="200" height="320" rx="20"/><path id="path3773-0-4-8-4-3-1" class="cls-3" d="M181,81A160,160,0,0,0,21,241a40,40,0,0,0,40,40A160,160,0,0,0,221,121,40,40,0,0,0,181,81Z"/><path id="rect4014-39" class="cls-4" d="M87,121v40h20V141h40L107,241h20l40-100V121H87Z"/><path id="rect4014-3-9" class="cls-3" d="M31,31V51H41V41H61L41,91H51L71,41V31H31Z"/><path id="rect4014-3-3-59" class="cls-3" d="M211,331V311H201v10H181l20-50H191l-20,50v10h40Z"/></g></g></g></svg>