<svg xmlns="http://www.w3.org/2000/svg" viewBox="0 0 242 362"><defs><style>.cls-1,.cls-3{fill:#fff;}.cls-1{stroke:#000;stroke-miterlimit:16;stroke-width:2px;}.cls-2,.cls-4{fill:#4ba438;}.cls-3,.cls-4{fill-rule:evenodd;}</style></defs><g id="Layer_2" data-name="Layer 2"><g id="svg2"><g id="green-01"><rect id="rect2987-5" class="cls-1" x="1" y="1" width="240" height="360" rx="40"/><rect id="rect3757-6" class="cls-2" x="21" y="21" width="200" height="320" rx="20"/><path id="path3773-0-4-8-4-6" class="cls-3" d="M181,81A160,160,0,0,0,21,241a40,40,0,0,0,40,40A160,160,0,0,0,221,121,40,40,0,0,0,181,81Z"/><path id="rect3921-6" class="cls-4" d="M113,121,93,141v24l20-20v96h20V121Z"/><path id="rect3921-5-7" class="cls-3" d="M41,31,31,41V53L41,43V91H51V31Z"/><path id="rect3921-5-5-6" class="cls-3" d="M201,331l10-10V309l-10,10V271H191v60Z"/></g></g></g></svg>