<svg xmlns="http://www.w3.org/2000/svg" viewBox="0 0 242 362"><defs><style>.cls-1,.cls-3,.cls-4{fill:#fff;}.cls-1{stroke:#000;stroke-miterlimit:16;stroke-width:2px;}.cls-2{fill:#e60e16;}.cls-3{fill-rule:evenodd;}</style></defs><g id="Layer_2" data-name="Layer 2"><g id="svg2"><g id="red-04"><rect id="rect2987-8-5-0" class="cls-1" x="1" y="1" width="240" height="360" rx="40"/><rect id="rect3757-26-33-8" class="cls-2" x="21" y="21" width="200" height="320" rx="20"/><path id="path3773-0-4-8-4-60-3-8" class="cls-3" d="M181,81A160,160,0,0,0,21,241a40,40,0,0,0,40,40A160,160,0,0,0,221,121,40,40,0,0,0,181,81Z"/><path id="rect3980-7-6-2-9-5-60-2" class="cls-2" d="M116.2,121,77,201v20h48v20h20V221h12V201H145V161H125v40H97.8L137,121Z"/><path id="rect3980-7-6-2-9-5-60-5-3" class="cls-4" d="M50.2,31,30.6,71V81h24V91h10V81h6V71h-6V51h-10V71H41L60.6,31Z"/><path id="rect3980-7-6-2-9-5-60-5-3-9" class="cls-4" d="M191,331l19.6-40V281h-24V271h-10v10h-6v10h6v20h10V291h13.6l-19.6,40Z"/></g></g></g></svg>