<svg xmlns="http://www.w3.org/2000/svg" viewBox="0 0 242 362"><defs><style>.cls-1,.cls-3,.cls-4{fill:#fff;}.cls-1{stroke:#000;stroke-miterlimit:16;stroke-width:2px;}.cls-2{fill:#e60e16;}.cls-3{fill-rule:evenodd;}</style></defs><g id="Layer_2" data-name="Layer 2"><g id="svg2"><g id="red-reverse"><rect id="rect2987-8-5-81-25" class="cls-1" x="1" y="1" width="240" height="360" rx="40"/><rect id="rect3757-26-33-5-8" class="cls-2" x="21" y="21" width="200" height="320" rx="20"/><path id="path3773-0-4-8-4-60-3-86-6" class="cls-3" d="M181,81A160,160,0,0,0,21,241a40,40,0,0,0,40,40A160,160,0,0,0,221,121,40,40,0,0,0,181,81Z"/><path id="path5973-41" class="cls-2" d="M121,116l10,10L91,166c-10,10-10,30,0,40l20-20,40-40,10,10V116Z"/><path id="path5973-4-6" class="cls-2" d="M121,246l-10-10,40-40c10-10,10-30,0-40l-20,20L91,216,81,206v40Z"/><path id="path5973-6-5" class="cls-4" d="M51,31l5,5L36,56c-5,5-5,15,0,20L46,66,66,46l5,5V31Z"/><path id="path5973-4-3-5" class="cls-4" d="M51,96l-5-5L66,71c5-5,5-15,0-20L56,61,36,81l-5-5V96Z"/><path id="path5973-6-5-2" class="cls-4" d="M191,266l5,5-20,20c-5,5-5,15,0,20l10-10,20-20,5,5V266Z"/><path id="path5973-4-3-5-8" class="cls-4" d="M191,331l-5-5,20-20c5-5,5-15,0-20l-10,10-20,20-5-5v20Z"/></g></g></g></svg>