<svg xmlns="http://www.w3.org/2000/svg" viewBox="0 0 242 362"><defs><style>.cls-1,.cls-3{fill:#fff;}.cls-1{stroke:#000;stroke-miterlimit:16;stroke-width:2px;}.cls-2,.cls-4{fill:#e60e16;}.cls-3,.cls-4{fill-rule:evenodd;}</style></defs><g id="Layer_2" data-name="Layer 2"><g id="svg2"><g id="red-00"><rect id="rect2987-1" class="cls-1" x="1" y="1" width="240" height="360" rx="40"/><rect id="rect3757-5" class="cls-2" x="21" y="21" width="200" height="320" rx="20"/><path id="path3773-0-4-8-4-2" class="cls-3" d="M181,81C63.39,68.2-41.08,264.17,61,281,178.61,293.8,283.08,97.83,181,81Z"/><path id="path3962-7" class="cls-4" d="M121,121a40,40,0,0,0-40,40c-.48,33.08-5.89,77.9,40,80a40,40,0,0,0,40-40C161.48,167.92,166.89,123.1,121,121Zm0,20a20,20,0,0,1,20,20c-2.08,18,9.24,59.49-20,60a20,20,0,0,1-20-20C103.08,183,91.76,141.51,121,141Z"/><path id="path3962-7-1" class="cls-3" d="M51,31A20,20,0,0,0,31,51c-.24,16.54-2.94,39,20,40A20,20,0,0,0,71,71C71.24,54.46,73.94,32.05,51,31Zm0,10A10,10,0,0,1,61,51c-.92,8.6,4.38,30.15-10,30A10,10,0,0,1,41,71C41.92,62.4,36.62,40.85,51,41Z"/><path id="path3962-7-1-2" class="cls-3" d="M191,271a20,20,0,0,0-20,20c-.24,16.54-2.94,38.95,20,40a20,20,0,0,0,20-20C211.24,294.46,213.94,272.05,191,271Zm0,10a10,10,0,0,1,10,10c-.92,8.6,4.38,30.15-10,30a10,10,0,0,1-10-10C181.92,302.4,176.62,280.85,191,281Z"/></g></g></g></svg>