<svg xmlns="http://www.w3.org/2000/svg" viewBox="0 0 242 362"><defs><style>.cls-1,.cls-3,.cls-4,.cls-6{fill:#fff;}.cls-1,.cls-4{stroke:#000;}.cls-1{stroke-miterlimit:16;stroke-width:2px;}.cls-2,.cls-5{fill:#e60e16;}.cls-3,.cls-4,.cls-5{fill-rule:evenodd;}.cls-4{stroke-width:0.51px;}</style></defs><g id="Layer_2" data-name="Layer 2"><g id="svg2"><g id="red-draw2"><rect id="rect2987-8-5-81-7-0-2" class="cls-1" x="1" y="1" width="240" height="360" rx="40"/><rect id="rect3757-26-33-5-2-5-8" class="cls-2" x="21" y="21" width="200" height="320" rx="20"/><path id="path3773-0-4-8-4-60-3-86-29-1-2" class="cls-3" d="M181,81A160,160,0,0,0,21,241a40,40,0,0,0,40,40A160,160,0,0,0,221,121,40,40,0,0,0,181,81Z"/><path id="rect6095-5-1-9" class="cls-4" d="M93.86,151h40c5.52,0,8.84,4,7.42,9L120.72,232c-1.42,5-7,9-12.58,9h-40c-5.52,0-8.84-4-7.42-9L81.28,160C82.7,155,88.33,151,93.86,151Z"/><path id="rect6097-3-5-4" class="cls-5" d="M101,161h20c5.52,0,8.84,4,7.42,9L113.58,222c-1.42,5-7.06,9-12.58,9H81c-5.52,0-8.84-4-7.42-9L88.42,170C89.84,165,95.48,161,101,161Z"/><path id="rect6095-1-9-4" class="cls-4" d="M133.86,121h40c5.52,0,8.84,4,7.42,9L160.72,202c-1.42,5-7.05,9-12.58,9h-40c-5.52,0-8.84-4-7.42-9L121.28,130C122.7,125,128.33,121,133.86,121Z"/><path id="rect6097-8-08-8" class="cls-5" d="M141,131h20c5.52,0,8.84,4,7.42,9L153.58,192c-1.43,5-7.06,9-12.58,9H121c-5.52,0-8.85-4-7.42-9L128.42,140C129.84,135,135.48,131,141,131Z"/><path id="rect5649-4-2-7-6-2" class="cls-3" d="M35,51V61H25V71H35V81H45V71H55V61H45V51Z"/><path id="rect3163-52-9-8-1-1-2-7-3-6-0-9-5-9-2-20-7" class="cls-6" d="M81,31A20,20,0,0,0,61,51v2H71V51a10,10,0,0,1,20,0c0,2.25-1.87,6.68-3.82,8.22C76.57,67.57,76.68,66.19,61,77V91h40V77H91v4H73c12.38-8.72,13.29-8.51,23-17.19,3.1-2.78,5-8.3,5-12.81A20,20,0,0,0,81,31Z"/><path id="rect5649-4-2-7-0-2-2" class="cls-3" d="M207,311V301h10V291H207V281H197v10H187v10h10v10Z"/><path id="rect3163-52-9-8-1-1-2-7-3-6-0-9-5-9-2-2-8-5" class="cls-6" d="M161,331a20,20,0,0,0,20-20v-2H171v2a10,10,0,0,1-20,0c0-2.25,1.87-6.68,3.82-8.22,10.61-8.35,10.5-7,26.18-17.78V271H141v14h10v-4h18c-12.38,8.72-13.29,8.51-23,17.19-3.1,2.78-5,8.3-5,12.81A20,20,0,0,0,161,331Z"/></g></g></g></svg>