<svg xmlns="http://www.w3.org/2000/svg" viewBox="0 0 242 362"><defs><style>.cls-1,.cls-3,.cls-4{fill:#fff;}.cls-1{stroke:#000;stroke-miterlimit:16;stroke-width:2px;}.cls-2{fill:#e60e16;}.cls-3{fill-rule:evenodd;}</style></defs><g id="Layer_2" data-name="Layer 2"><g id="svg2"><g id="red-02"><rect id="rect2987-8" class="cls-1" x="1" y="1" width="240" height="360" rx="40"/><rect id="rect3757-26" class="cls-2" x="21" y="21" width="200" height="320" rx="20"/><path id="path3773-0-4-8-4-60" class="cls-3" d="M181,81A160,160,0,0,0,21,241a40,40,0,0,0,40,40A160,160,0,0,0,221,121,40,40,0,0,0,181,81Z"/><path id="rect3163-52-9-8-1-1-2-7-3-6-5" class="cls-2" d="M117,121a39.91,39.91,0,0,0-40,40v4H97v-4a20,20,0,0,1,40,0c0,4.51-3.74,13.36-7.65,16.44-21.22,16.7-21,13.94-52.35,35.56v28h80V213H137v8H101c24.76-17.43,26.57-17,46-34.38,6.22-5.56,10-16.6,10-25.62A39.91,39.91,0,0,0,117,121Z"/><path id="rect3163-52-9-8-1-1-2-7-3-6-0-9" class="cls-4" d="M51,31A20,20,0,0,0,31,51v2H41V51a10,10,0,0,1,20,0c0,2.26-1.87,6.68-3.82,8.22C46.57,67.57,46.68,66.19,31,77V91H71V77H61v4H43c12.38-8.72,13.29-8.51,23-17.19,3.1-2.78,5-8.3,5-12.81A20,20,0,0,0,51,31Z"/><path id="rect3163-52-9-8-1-1-2-7-3-6-0-4" class="cls-4" d="M191,331a20,20,0,0,0,20-20v-2H201v2a10,10,0,0,1-20,0c0-2.26,1.87-6.68,3.82-8.22,10.61-8.35,10.5-7,26.18-17.78V271H171v14h10v-4h18c-12.38,8.72-13.29,8.51-23,17.19-3.1,2.78-5,8.3-5,12.81A20,20,0,0,0,191,331Z"/></g></g></g></svg>