<svg xmlns="http://www.w3.org/2000/svg" viewBox="0 0 242 362"><defs><style>.cls-1,.cls-2,.cls-3,.cls-4{fill:#fff;}.cls-1,.cls-4{stroke:#000;}.cls-1{stroke-miterlimit:16;stroke-width:2px;}.cls-2,.cls-4,.cls-5,.cls-6,.cls-7,.cls-8{fill-rule:evenodd;}.cls-4{stroke-width:0.51px;}.cls-5{fill:#e60e16;}.cls-6{fill:#0b67b1;}.cls-7{fill:#fcdc16;stroke:#efce2e;}.cls-8{fill:#4ba438;}</style></defs><g id="Layer_2" data-name="Layer 2"><g id="svg2"><g id="wild-draw4"><rect id="rect2987-8-5-81-2-1-2" class="cls-1" x="1" y="1" width="240" height="360" rx="40"/><rect id="rect3757-26-33-5-9-9-6" x="21" y="21" width="200" height="320" rx="20"/><path id="path3773-0-4-8-4-60-3-86-5-6-0" class="cls-2" d="M181,81A160,160,0,0,0,21,241a40,40,0,0,0,40,40A160,160,0,0,0,221,121,40,40,0,0,0,181,81Z"/><path id="rect3980-7-6-2-9-5-60-5-3-1-5-5" class="cls-3" d="M80.6,31,61,71V81H85V91H95V81h6V71H95V51H85V71H71.4L91,31Z"/><path id="rect5649-4-4" class="cls-2" d="M35,51V61H25V71H35V81H45V71H55V61H45V51Z"/><path id="rect3980-7-6-2-9-5-60-5-3-1-8-9-6" class="cls-3" d="M161.4,331,181,291V281H157V271H147v10h-6v10h6v20h10V291h13.6L151,331Z"/><path id="rect5649-1-1-7" class="cls-2" d="M207,311V301h10V291H207V281H197v10H187v10h10v10Z"/><g id="g6111-38-2-9"><path id="rect6095-2-9-3" class="cls-4" d="M83.86,131h40c5.52,0,8.84,4,7.42,9L110.72,212c-1.42,5-7,9-12.58,9h-40c-5.52,0-8.84-4-7.42-9L71.28,140C72.7,135,78.33,131,83.86,131Z"/><path id="rect6097-5-7-4" class="cls-5" d="M91,141h20c5.52,0,8.84,4,7.42,9L103.58,202c-1.43,5-7.06,9-12.58,9H71c-5.52,0-8.85-4-7.42-9L78.42,150C79.84,145,85.48,141,91,141Z"/></g><g id="g6111-62-2-1-7"><path id="rect6095-14-0-3-8" class="cls-4" d="M123.86,101h40c5.52,0,8.84,4,7.42,9L150.72,182c-1.42,5-7.05,9-12.58,9h-40c-5.52,0-8.84-4-7.42-9L111.28,110C112.7,105,118.33,101,123.86,101Z"/><path id="rect6097-6-3-2-8" class="cls-6" d="M131,111h20c5.52,0,8.84,4,7.42,9L143.58,172c-1.43,5-7.06,9-12.58,9H111c-5.52,0-8.85-4-7.42-9L118.42,120C119.84,115,125.48,111,131,111Z"/></g><g id="g6111-3-5-1"><path id="rect6095-0-3-6" class="cls-4" d="M113.86,161h40c5.52,0,8.84,4,7.42,9L140.72,242c-1.42,5-7.05,9-12.58,9h-40c-5.52,0-8.84-4-7.42-9L101.28,170C102.7,165,108.33,161,113.86,161Z"/><path id="rect6097-7-4-3" class="cls-7" d="M121,171h20c5.52,0,8.84,4,7.42,9L133.58,232c-1.43,5-7.06,9-12.58,9H101c-5.52,0-8.85-4-7.42-9L108.42,180C109.84,175,115.48,171,121,171Z"/></g><g id="g6111-62-7-3-8"><path id="rect6095-14-8-2-7" class="cls-4" d="M153.86,131h40c5.52,0,8.84,4,7.42,9L180.72,212c-1.42,5-7.05,9-12.58,9h-40c-5.52,0-8.84-4-7.42-9L141.28,140C142.7,135,148.33,131,153.86,131Z"/><path id="rect6097-6-7-1-6" class="cls-8" d="M161,141h20c5.52,0,8.84,4,7.42,9L173.58,202c-1.43,5-7.06,9-12.58,9H141c-5.52,0-8.85-4-7.42-9L148.42,150C149.84,145,155.48,141,161,141Z"/></g></g></g></g></svg>