<?xml version="1.0" encoding="utf-8"?>
<!-- Generator: Adobe Illustrator 25.2.1, SVG Export Plug-In . SVG Version: 6.00 Build 0)  -->
<svg version="1.1" id="Layer_1" xmlns="http://www.w3.org/2000/svg" xmlns:xlink="http://www.w3.org/1999/xlink" x="0px" y="0px"
	 viewBox="0 0 242 362" style="enable-background:new 0 0 242 362;" xml:space="preserve">
<style type="text/css">
	.st0{fill:#FFFFFF;stroke:#000000;stroke-width:2;}
	.st1{fill-rule:evenodd;clip-rule:evenodd;fill:#ED1C24;stroke:#ED1C24;}
	.st2{fill:none;stroke:#ED1C24;stroke-width:4;}
	.st3{fill:#FFFFFF;}
	.st4{fill-rule:evenodd;clip-rule:evenodd;}
	.st5{fill-rule:evenodd;clip-rule:evenodd;fill:#FFFFFF;}
	.st6{fill-rule:evenodd;clip-rule:evenodd;fill:#F8DA27;}
	.st7{fill-rule:evenodd;clip-rule:evenodd;fill:#58585A;}
</style>
<g id="Layer_2_1_">
	<g id="svg2">
		<g id="wild">
			<path id="rect2987-8-5-81-2-4" class="st0" d="M41,1h160c22.1,0,40,17.9,40,40v280c0,22.1-17.9,40-40,40H41
				c-22.1,0-40-17.9-40-40V41C1,18.9,18.9,1,41,1z"/>
			<path id="rect3757-26-33-5-9-0" d="M41,21h160c11,0,20,9,20,20v280c0,11-9,20-20,20H41c-11,0-20-9-20-20V41C21,30,30,21,41,21z"
				/>
			<path id="path3773-0-4-8-4-60-3-86-5-7" class="st1" d="M181,81C92.6,81,21,152.6,21,241c0,22.1,17.9,40,40,40
				c88.4,0,160-71.6,160-160C221,98.9,203.1,81,181,81z"/>
			<path id="path3773-0-4-8-8-7-9-0-03-8-0" class="st2" d="M181,81C92.7,81.1,21.1,152.7,21,241c0,22.1,17.9,40,40,40
				c65.2,0,123.8-39.6,148.2-100c7.8-19.1,11.7-39.4,11.8-60C221,98.9,203.1,81,181,81z"/>
		</g>
	</g>
</g>
<g id="surface1">
	<path class="st3" d="M160.5,141.1L160.5,141.1c0.3,1.3,0.7,2.5,1.3,3.7c0.7,1.3,1.5,2.6,2.5,3.8c1.4,1.7,3,3.2,4.7,4.3
		c1.5,1,3.2,1.6,4.8,1.9c2,0.1,3.8-0.1,5.1-0.6c1.1-0.4,1.9-1,2.3-1.7c0.3-0.5,0.3-1.2,0.2-2.1c-0.2-1.2-0.9-2.7-1.9-4.4
		c-0.3-0.5-0.5-0.9-0.8-1.3c-0.3-0.4-0.6-0.8-0.9-1.2c-1.7-2.1-3.8-3.9-5.9-5c-1.9-1-3.8-1.5-5.8-1.4c-2,0.1-3.6,0.6-4.6,1.5
		c-0.7,0.5-1,1.3-1,2.3L160.5,141.1z M149.6,112c8.1-6.6,17.6-9,26.8-7.8c9.5,1.2,18.6,6.3,25.3,14.4c3.7,4.5,6.4,9.7,7.9,15
		c1.5,5.3,1.8,10.8,0.9,16.2c0,0.2-0.1,0.6-0.2,1.1c-0.1,0.5-0.1,0.8-0.2,1.1c-1.7,7.5-4,13.2-6.8,17.8c-2.8,4.6-6,8-9.4,10.8
		c-8.3,6.8-17.9,9.2-27.2,8.1c-9.7-1.2-18.9-6.3-25.6-14.4c-3.6-4.4-6.3-9.2-7.8-14.2c-1.6-5.1-2-10.3-1.3-15.6
		c0.5-3.9,1.9-8.7,4-13.6c1.9-4.3,4.5-8.7,7.7-12.8l0,0c0.8-1.1,1.7-2.1,2.7-3.1C147.4,113.9,148.5,112.9,149.6,112"/>
	<path class="st3" d="M112,144l13.8-11.3c1.2-1,3.1-0.8,4.1,0.4c0.1,0.1,0.1,0.1,0.2,0.2l43.2,52.5c0.3,0.3,0.5,0.6,0.7,1
		c0.4,0.8,0.3,1.7,0,2.5l-4.9,9.9c-0.2,0.4-0.5,0.8-0.8,1l-11.4,9.3c-0.7,0.6-1.7,0.8-2.6,0.6l0,0l-18.1-4.7l5.3,6.5
		c0.4,0.3,0.7,0.8,0.9,1.3c0.2,0.8,0.2,1.5-0.2,2.2l-4.9,9.9c-0.2,0.4-0.5,0.7-0.8,1l0,0l-13.9,11.4c-1.2,1-3.1,0.8-4.1-0.4
		l-43.6-53.1c-0.8-1-0.9-2.3-0.2-3.4l4.7-9.7c0.2-0.4,0.5-0.8,0.8-1l12.2-9.9c0.7-0.6,1.7-0.8,2.6-0.6l0,0l16.6,4.2l-4.8-5.8
		c-0.7-0.9-0.8-2.1-0.4-3.1l4.8-9.9C111.4,144.6,111.7,144.3,112,144L112,144"/>
	<path class="st3" d="M92,262.2c-6,2.8-11.9,3.4-17.5,2.2c-7.6-1.6-14.6-6.5-20.7-14l-24.1-29.3c-0.8-1-0.9-2.3-0.2-3.4l4.7-9.7
		c0.2-0.4,0.5-0.7,0.8-1l0,0l13.9-11.4c1.2-1,3.1-0.8,4.1,0.4l24.6,29.9c1.4,1.8,3.1,3.2,5,4c1.4,0.6,3,0.7,4.6,0.2
		c0.3-0.1,0.7-0.2,1-0.4c-0.2-0.6-0.5-1.2-0.8-1.8c-0.5-0.9-1.1-1.8-1.8-2.6L61,195.6c-0.8-1-0.9-2.3-0.2-3.4l4.6-9.4
		c0.2-0.5,0.5-1,0.9-1.3l13.9-11.4c1.2-1,3.1-0.8,4.1,0.4l24.4,29.7c3.8,4.6,6.4,9.2,8,13.9c1.6,4.8,1.9,9.5,1.1,14.2
		c-0.7,3.7-2.9,8.1-5.2,12.5c-0.5,1-1,2-1.4,2.8l0,0.1c-0.8,1.8-1.8,3.5-3,5.2C104,254.6,98.4,259.3,92,262.2"/>
	<path class="st4" d="M113.8,146.3l13.8-11.3l43.6,53l0,0l-4.9,9.9l-11.5,9.3l-26.8-7l11.3,13.8l0,0l0.1,0l-4.9,9.9l-13.9,11.4
		l-43.5-53l4.8-9.9l12.2-9.9l25.2,6.4L109,156.2L113.8,146.3"/>
	<path class="st4" d="M151.4,114.2c15.2-12.5,35.8-8.5,47.9,6.2c7,8.5,9.9,19.1,8.1,29c-0.1,0.6-0.2,1.2-0.3,1.9
		c-3.2,14.3-8.9,21.8-15.2,26.9c-15.7,12.9-36.6,8.8-48.6-5.9c-6.9-8.3-9.7-17.9-8.5-27.6c0.9-6.9,4.7-16.7,11.1-24.9l0,0
		C147.5,117.9,149.3,116,151.4,114.2z M157.6,141.5c0-0.1,0-0.2,0-0.3c-0.1-4.2,3.2-6.5,8.4-6.9c5.2-0.4,10.4,2.8,14.2,7.4
		c0.8,0.9,1.4,1.9,2,2.9c2.4,4,3,7.1,1.8,9.4c-1.4,2.7-5.2,4.2-10.3,3.8c-4.3-0.7-8.4-3.4-11.5-7.2
		C159.8,147.8,158.2,144.7,157.6,141.5"/>
	<path class="st4" d="M135.7,173l-21.9-26.7l13.8-11.3l43.6,53l-11.5,9.3l-43.3-11.3l23,28l-13.9,11.4L82,172.4l12.2-9.9L135.7,173"
		/>
	<path class="st5" d="M141.8,176.8L117,146.6l10.4-8.5l40.8,49.6l-8.9,7.2l-48.8-12.8l25.9,31.6l-10.5,8.6l-40.7-49.6l9.6-7.8
		L141.8,176.8"/>
	<path class="st6" d="M134.2,213.5l-8.1,6.7l-38.8-47.2l7.8-6.3l50.8,12.9l-26.8-32.7l8-6.6l38.8,47.2l-7,5.7l-52.7-13.8
		L134.2,213.5"/>
	<path class="st4" d="M151.4,114.2c15.2-12.5,35.8-8.5,47.9,6.2c12.1,14.7,11.9,35.7-3.3,48.2c-15.2,12.4-35.8,8.5-47.9-6.2
		C136.1,147.7,136.2,126.7,151.4,114.2z M162.5,127.7c-7.7,6.3-6.2,15.8-0.4,22.8c5.8,7,14.8,10.4,22.5,4.1
		c7.7-6.3,6.1-15.8,0.4-22.8C179.1,124.7,170.1,121.4,162.5,127.7"/>
	<path class="st5" d="M152.8,116c14.2-11.7,33.4-7.9,44.8,5.9c11.3,13.7,11.2,33.4-3,45c-14.2,11.7-33.5,7.9-44.8-5.9
		C138.6,147.2,138.6,127.6,152.8,116z M161,126c-8.6,7.1-7.2,18-0.7,26c6.6,8,16.9,11.5,25.6,4.4c8.7-7.1,7.2-18,0.7-25.9
		C180.1,122.4,169.7,118.9,161,126"/>
	<path class="st6" d="M160.1,124.8c9-7.4,20.3-4.4,27.7,4.6c7.4,9,8.2,20.7-0.9,28.1c-9,7.4-20.4,4.4-27.8-4.6
		C151.7,143.9,151.1,132.2,160.1,124.8z M153.8,117.1c13.3-10.9,31.6-7.7,42.6,5.7c11,13.4,10.5,32-2.7,42.9
		c-13.3,10.9-31.6,7.7-42.6-5.7C140.1,146.6,140.5,128.1,153.8,117.1"/>
	<path class="st4" d="M89.4,260.2c-12.3,5-23.9,0-33.3-11.5L32,219.4l4.8-9.9L50.8,198L75.3,228c3.2,3.9,7.6,6.7,12.7,5.1
		c1.5-0.4,3.4-1.2,3.2-3.3c-0.6-2.2-1.8-4.3-3.3-6.1l-24.6-29.9l4.8-9.9l0,0l0,0l0,0l0,0L82,172.4l24.4,29.7c7,8.6,10,17.3,8.4,25.8
		c-0.7,4-3.8,9.5-6.3,14.5l0,0C104.9,250.4,97.4,256.9,89.4,260.2"/>
	<path class="st4" d="M106.6,241.9l0.1,0.2l-2.9,2.4c-0.1,0.1-0.2,0.1-0.2,0.2c-0.1,0.1-0.2,0.2-0.3,0.2l-2.9,2.4l-0.1-0.2
		c-14.6,9.7-28.4,5-39.3-8.3l-24.1-29.3L50.8,198L75.3,228c3.2,3.9,7.6,6.7,12.7,5.1c1.5-0.5,2.9-1.3,4.2-2.3c1.3-1,2.3-2.3,3.1-3.7
		c2.5-4.7,0.5-9.6-2.6-13.4l-24.6-29.9L82,172.4l24.4,29.7C117.4,215.5,119,229.5,106.6,241.9"/>
	<path class="st5" d="M103.5,241.7L103.5,241.7l-1.2,1c-0.1,0.1-0.2,0.1-0.2,0.2c-0.1,0.1-0.2,0.1-0.3,0.2l-1.2,1l0,0
		c-14.1,10.4-27.3,6.4-38-6.7L40,209.8l10.5-8.6l23.2,28.2c3.8,4.6,9,7.6,15.1,5.9c1.8-0.5,3.5-1.5,5-2.7c1.5-1.2,2.8-2.7,3.6-4.4
		c2.9-5.5,0.9-11.3-2.9-15.8l-23.2-28.2l10.5-8.6l22.9,27.9C115.5,216.7,116.6,229.9,103.5,241.7"/>
	<path class="st6" d="M42.1,210l8.1-6.6l22.2,27c7.3,8.9,16.2,8.2,22.2,3.4c5.9-4.9,8.4-13.5,1-22.4l-22.2-27l8.1-6.6l22,26.8
		c8.8,10.7,13.4,24-2.1,37.1l0,0c-0.1,0.1-0.2,0.1-0.2,0.2c-0.1,0.1-0.2,0.1-0.3,0.2l0,0c-15.4,12.3-28.1,5.4-37.1-5.6L42.1,210"/>
	<path class="st7" d="M111.6,155.8l3.8-7.8l6.2,7.6l-3.8,7.8L111.6,155.8z M119.8,165.9l3.8-7.8l2.3,2.9l-3.8,7.8L119.8,165.9"/>
	<path class="st7" d="M65.8,193.4l3.8-7.8l6.2,7.6l-3.8,7.8L65.8,193.4z M74.1,203.5l3.8-7.8l2.3,2.9l-3.8,7.8L74.1,203.5"/>
	<path class="st7" d="M48.5,236.1l3.8-7.8l6.2,7.6l-3.8,7.8L48.5,236.1z M56.8,246.2l3.8-7.8l0,0l0.3,0.4c0.7,0.9,1.4,1.7,2.1,2.5
		l-3.8,7.9L56.8,246.2"/>
	<path class="st7" d="M172.3,133.1l3.8-7.8c2.7,1,5.3,2.7,7.4,5l-3.8,7.7C177.6,135.9,175.1,134.1,172.3,133.1z M181.9,140.3
		l3.7-7.6c0.8,1.1,1.5,2.2,2.1,3.4l-3.6,7.4l0-0.1C183.5,142.4,182.7,141.3,181.9,140.3"/>
</g>
<rect x="221" y="87.1" class="st3" width="11.8" height="135.5"/>
<rect x="9.2" y="157.7" class="st3" width="11.8" height="135.5"/>
</svg>
