<svg xmlns="http://www.w3.org/2000/svg" viewBox="0 0 242 362"><defs><style>.cls-1,.cls-3{fill:#fff;}.cls-1{stroke:#000;stroke-miterlimit:16;stroke-width:2px;}.cls-2,.cls-4{fill:#0b67b1;}.cls-3,.cls-4{fill-rule:evenodd;}</style></defs><g id="Layer_2" data-name="Layer 2"><g id="svg2"><g id="blue-06"><rect id="rect2987-8-5-7-2" class="cls-1" x="1" y="1" width="240" height="360" rx="40"/><rect id="rect3757-26-33-2-2" class="cls-2" x="21" y="21" width="200" height="320" rx="20"/><path id="path3773-0-4-8-4-60-3-2-7" class="cls-3" d="M181,81A160,160,0,0,0,21,241a40,40,0,0,0,40,40A160,160,0,0,0,221,121,40,40,0,0,0,181,81Z"/><path id="path3962-5-6-2-0" class="cls-4" d="M121,121a40,40,0,0,0-40,40v40a40,40,0,1,0,20-34.62V161a19.89,19.89,0,0,1,37.75-8.88l18-9A39.89,39.89,0,0,0,121,121Zm0,60a20,20,0,1,1-20,20A20,20,0,0,1,121,181Zm-20,64v8h40v-8Z"/><path id="path3962-5-6-2-1-3" class="cls-3" d="M51,31A20,20,0,0,0,31,51V71A20,20,0,1,0,41,53.69V51a10,10,0,0,1,18.88-4.44l9-4.5A19.94,19.94,0,0,0,51,31Zm0,30A10,10,0,1,1,41,71,10,10,0,0,1,51,61Z"/><path id="path3962-5-6-2-1-8-1" class="cls-3" d="M191,331a20,20,0,0,0,20-20V291a20,20,0,1,0-10,17.31V311a9.94,9.94,0,0,1-18.87,4.44l-9,4.5A19.92,19.92,0,0,0,191,331Zm0-30a10,10,0,1,1,10-10A10,10,0,0,1,191,301Z"/></g></g></g></svg>