<?xml version="1.0" encoding="utf-8"?>
<!-- Generator: Adobe Illustrator 25.2.1, SVG Export Plug-In . SVG Version: 6.00 Build 0)  -->
<svg version="1.1" id="Layer_1" xmlns="http://www.w3.org/2000/svg" xmlns:xlink="http://www.w3.org/1999/xlink" x="0px" y="0px"
	 viewBox="0 0 812 450" style="enable-background:new 0 0 812 450;" xml:space="preserve">
<style type="text/css">
	.st0{fill:#FFFFFF;stroke:#010101;stroke-width:2;}
	.st1{fill:#010101;}
	.st2{fill-rule:evenodd;clip-rule:evenodd;fill:#EC2227;stroke:#EC2227;}
	.st3{fill:none;stroke:#EC2227;stroke-width:4;}
	.st4{fill:#FFFFFF;}
	.st5{fill-rule:evenodd;clip-rule:evenodd;fill:#010101;}
	.st6{fill-rule:evenodd;clip-rule:evenodd;fill:#FFFFFF;}
	.st7{fill-rule:evenodd;clip-rule:evenodd;fill:#F8DA27;}
	.st8{fill-rule:evenodd;clip-rule:evenodd;fill:#59595B;}
</style>
<g>
	<g>
		<g id="Layer_2_1_">
			<g id="svg2">
				<g id="wild">
					<path id="rect2987-8-5-81-2-4" class="st0" d="M112.7,45.6h160c22.1,0,40,17.9,40,40v280c0,22.1-17.9,40-40,40h-160
						c-22.1,0-40-17.9-40-40v-280C72.7,63.5,90.6,45.6,112.7,45.6z"/>
					<path id="rect3757-26-33-5-9-0" class="st1" d="M112.7,65.6h160c11,0,20,9,20,20v280c0,11-9,20-20,20h-160c-11,0-20-9-20-20
						v-280C92.7,74.6,101.7,65.6,112.7,65.6z"/>
					<path id="path3773-0-4-8-4-60-3-86-5-7" class="st2" d="M252.7,125.6c-88.4,0-160,71.6-160,160c0,22.1,17.9,40,40,40
						c88.4,0,160-71.6,160-160C292.7,143.5,274.8,125.6,252.7,125.6z"/>
					<path id="path3773-0-4-8-8-7-9-0-03-8-0" class="st3" d="M252.7,125.6c-88.3,0.1-159.9,71.7-160,160c0,22.1,17.9,40,40,40
						c65.2,0,123.8-39.6,148.2-100c7.8-19.1,11.7-39.4,11.8-60C292.7,143.5,274.8,125.6,252.7,125.6z"/>
				</g>
			</g>
		</g>
		<g id="surface1">
			<path class="st4" d="M232.2,185.7L232.2,185.7c0.3,1.3,0.7,2.5,1.3,3.7c0.7,1.3,1.5,2.6,2.5,3.8c1.4,1.7,3,3.2,4.7,4.3
				c1.5,1,3.2,1.6,4.8,1.9c2,0.1,3.8-0.1,5.1-0.6c1.1-0.4,1.9-1,2.3-1.7c0.3-0.5,0.3-1.2,0.2-2.1c-0.2-1.2-0.9-2.7-1.9-4.4
				c-0.3-0.5-0.5-0.9-0.8-1.3c-0.3-0.4-0.6-0.8-0.9-1.2c-1.7-2.1-3.8-3.9-5.9-5c-1.9-1-3.8-1.5-5.8-1.4s-3.6,0.6-4.6,1.5
				c-0.7,0.5-1,1.3-1,2.3L232.2,185.7z M221.3,156.6c8.1-6.6,17.6-9,26.8-7.8c9.5,1.2,18.6,6.3,25.3,14.4c3.7,4.5,6.4,9.7,7.9,15
				s1.8,10.8,0.9,16.2c0,0.2-0.1,0.6-0.2,1.1c-0.1,0.5-0.1,0.8-0.2,1.1c-1.7,7.5-4,13.2-6.8,17.8c-2.8,4.6-6,8-9.4,10.8
				c-8.3,6.8-17.9,9.2-27.2,8.1c-9.7-1.2-18.9-6.3-25.6-14.4c-3.6-4.4-6.3-9.2-7.8-14.2c-1.6-5.1-2-10.3-1.3-15.6
				c0.5-3.9,1.9-8.7,4-13.6c1.9-4.3,4.5-8.7,7.7-12.8l0,0c0.8-1.1,1.7-2.1,2.7-3.1C219.1,158.5,220.2,157.5,221.3,156.6"/>
			<path class="st4" d="M183.7,188.6l13.8-11.3c1.2-1,3.1-0.8,4.1,0.4c0.1,0.1,0.1,0.1,0.2,0.2l43.2,52.5c0.3,0.3,0.5,0.6,0.7,1
				c0.4,0.8,0.3,1.7,0,2.5l-4.9,9.9c-0.2,0.4-0.5,0.8-0.8,1l-11.4,9.3c-0.7,0.6-1.7,0.8-2.6,0.6l0,0l-18.1-4.7l5.3,6.5
				c0.4,0.3,0.7,0.8,0.9,1.3c0.2,0.8,0.2,1.5-0.2,2.2l-4.9,9.9c-0.2,0.4-0.5,0.7-0.8,1l0,0l-13.9,11.4c-1.2,1-3.1,0.8-4.1-0.4
				l-43.6-53.1c-0.8-1-0.9-2.3-0.2-3.4l4.7-9.7c0.2-0.4,0.5-0.8,0.8-1l12.2-9.9c0.7-0.6,1.7-0.8,2.6-0.6l0,0l16.6,4.2l-4.8-5.8
				c-0.7-0.9-0.8-2.1-0.4-3.1l4.8-9.9C183.1,189.2,183.4,188.9,183.7,188.6L183.7,188.6"/>
			<path class="st4" d="M163.7,306.8c-6,2.8-11.9,3.4-17.5,2.2c-7.6-1.6-14.6-6.5-20.7-14l-24.1-29.3c-0.8-1-0.9-2.3-0.2-3.4
				l4.7-9.7c0.2-0.4,0.5-0.7,0.8-1l0,0l13.9-11.4c1.2-1,3.1-0.8,4.1,0.4l24.6,29.9c1.4,1.8,3.1,3.2,5,4c1.4,0.6,3,0.7,4.6,0.2
				c0.3-0.1,0.7-0.2,1-0.4c-0.2-0.6-0.5-1.2-0.8-1.8c-0.5-0.9-1.1-1.8-1.8-2.6l-24.6-29.7c-0.8-1-0.9-2.3-0.2-3.4l4.6-9.4
				c0.2-0.5,0.5-1,0.9-1.3l13.9-11.4c1.2-1,3.1-0.8,4.1,0.4l24.4,29.7c3.8,4.6,6.4,9.2,8,13.9c1.6,4.8,1.9,9.5,1.1,14.2
				c-0.7,3.7-2.9,8.1-5.2,12.5c-0.5,1-1,2-1.4,2.8v0.1c-0.8,1.8-1.8,3.5-3,5.2C175.7,299.2,170.1,303.9,163.7,306.8"/>
			<path class="st5" d="M185.5,190.9l13.8-11.3l43.6,53l0,0l-4.9,9.9l-11.5,9.3l-26.8-7l11.3,13.8l0,0h0.1l-4.9,9.9l-13.9,11.4
				l-43.5-53l4.8-9.9l12.2-9.9l25.2,6.4l-10.3-12.7L185.5,190.9"/>
			<path class="st5" d="M223.1,158.8c15.2-12.5,35.8-8.5,47.9,6.2c7,8.5,9.9,19.1,8.1,29c-0.1,0.6-0.2,1.2-0.3,1.9
				c-3.2,14.3-8.9,21.8-15.2,26.9c-15.7,12.9-36.6,8.8-48.6-5.9c-6.9-8.3-9.7-17.9-8.5-27.6c0.9-6.9,4.7-16.7,11.1-24.9l0,0
				C219.2,162.5,221,160.6,223.1,158.8z M229.3,186.1c0-0.1,0-0.2,0-0.3c-0.1-4.2,3.2-6.5,8.4-6.9s10.4,2.8,14.2,7.4
				c0.8,0.9,1.4,1.9,2,2.9c2.4,4,3,7.1,1.8,9.4c-1.4,2.7-5.2,4.2-10.3,3.8c-4.3-0.7-8.4-3.4-11.5-7.2
				C231.5,192.4,229.9,189.3,229.3,186.1"/>
			<path class="st5" d="M207.4,217.6l-21.9-26.7l13.8-11.3l43.6,53l-11.5,9.3l-43.3-11.3l23,28L197.2,270l-43.5-53l12.2-9.9
				L207.4,217.6"/>
			<path class="st6" d="M213.5,221.4l-24.8-30.2l10.4-8.5l40.8,49.6l-8.9,7.2l-48.8-12.8l25.9,31.6l-10.5,8.6l-40.7-49.6l9.6-7.8
				L213.5,221.4"/>
			<path class="st7" d="M205.9,258.1l-8.1,6.7L159,217.6l7.8-6.3l50.8,12.9l-26.8-32.7l8-6.6l38.8,47.2l-7,5.7L177.9,224
				L205.9,258.1"/>
			<path class="st5" d="M223.1,158.8c15.2-12.5,35.8-8.5,47.9,6.2c12.1,14.7,11.9,35.7-3.3,48.2c-15.2,12.4-35.8,8.5-47.9-6.2
				C207.8,192.3,207.9,171.3,223.1,158.8z M234.2,172.3c-7.7,6.3-6.2,15.8-0.4,22.8s14.8,10.4,22.5,4.1c7.7-6.3,6.1-15.8,0.4-22.8
				C250.8,169.3,241.8,166,234.2,172.3"/>
			<path class="st6" d="M224.5,160.6c14.2-11.7,33.4-7.9,44.8,5.9c11.3,13.7,11.2,33.4-3,45c-14.2,11.7-33.5,7.9-44.8-5.9
				C210.3,191.8,210.3,172.2,224.5,160.6z M232.7,170.6c-8.6,7.1-7.2,18-0.7,26c6.6,8,16.9,11.5,25.6,4.4c8.7-7.1,7.2-18,0.7-25.9
				C251.8,167,241.4,163.5,232.7,170.6"/>
			<path class="st7" d="M231.8,169.4c9-7.4,20.3-4.4,27.7,4.6s8.2,20.7-0.9,28.1c-9,7.4-20.4,4.4-27.8-4.6
				C223.4,188.5,222.8,176.8,231.8,169.4z M225.5,161.7c13.3-10.9,31.6-7.7,42.6,5.7c11,13.4,10.5,32-2.7,42.9
				c-13.3,10.9-31.6,7.7-42.6-5.7C211.8,191.2,212.2,172.7,225.5,161.7"/>
			<path class="st5" d="M161.1,304.8c-12.3,5-23.9,0-33.3-11.5L103.7,264l4.8-9.9l14-11.5l24.5,30c3.2,3.9,7.6,6.7,12.7,5.1
				c1.5-0.4,3.4-1.2,3.2-3.3c-0.6-2.2-1.8-4.3-3.3-6.1L135,238.4l4.8-9.9l0,0l0,0l0,0l0,0l13.9-11.5l24.4,29.7
				c7,8.6,10,17.3,8.4,25.8c-0.7,4-3.8,9.5-6.3,14.5l0,0C176.6,295,169.1,301.5,161.1,304.8"/>
			<path class="st5" d="M178.3,286.5l0.1,0.2l-2.9,2.4c-0.1,0.1-0.2,0.1-0.2,0.2c-0.1,0.1-0.2,0.2-0.3,0.2l-2.9,2.4l-0.1-0.2
				c-14.6,9.7-28.4,5-39.3-8.3l-24.1-29.3l13.9-11.5l24.5,30c3.2,3.9,7.6,6.7,12.7,5.1c1.5-0.5,2.9-1.3,4.2-2.3s2.3-2.3,3.1-3.7
				c2.5-4.7,0.5-9.6-2.6-13.4l-24.6-29.9l13.9-11.4l24.4,29.7C189.1,260.1,190.7,274.1,178.3,286.5"/>
			<path class="st6" d="M175.2,286.3L175.2,286.3l-1.2,1c-0.1,0.1-0.2,0.1-0.2,0.2c-0.1,0.1-0.2,0.1-0.3,0.2l-1.2,1l0,0
				c-14.1,10.4-27.3,6.4-38-6.7l-22.6-27.6l10.5-8.6l23.2,28.2c3.8,4.6,9,7.6,15.1,5.9c1.8-0.5,3.5-1.5,5-2.7
				c1.5-1.2,2.8-2.7,3.6-4.4c2.9-5.5,0.9-11.3-2.9-15.8L143,228.8l10.5-8.6l22.9,27.9C187.2,261.3,188.3,274.5,175.2,286.3"/>
			<path class="st7" d="M113.8,254.6l8.1-6.6l22.2,27c7.3,8.9,16.2,8.2,22.2,3.4c5.9-4.9,8.4-13.5,1-22.4l-22.2-27l8.1-6.6l22,26.8
				c8.8,10.7,13.4,24-2.1,37.1l0,0c-0.1,0.1-0.2,0.1-0.2,0.2c-0.1,0.1-0.2,0.1-0.3,0.2l0,0c-15.4,12.3-28.1,5.4-37.1-5.6
				L113.8,254.6"/>
			<path class="st8" d="M183.3,200.4l3.8-7.8l6.2,7.6l-3.8,7.8L183.3,200.4z M191.5,210.5l3.8-7.8l2.3,2.9l-3.8,7.8L191.5,210.5"/>
			<path class="st8" d="M137.5,238l3.8-7.8l6.2,7.6l-3.8,7.8L137.5,238z M145.8,248.1l3.8-7.8l2.3,2.9l-3.8,7.8L145.8,248.1"/>
			<path class="st8" d="M120.2,280.7l3.8-7.8l6.2,7.6l-3.8,7.8L120.2,280.7z M128.5,290.8l3.8-7.8l0,0l0.3,0.4
				c0.7,0.9,1.4,1.7,2.1,2.5l-3.8,7.9L128.5,290.8"/>
			<path class="st8" d="M244,177.7l3.8-7.8c2.7,1,5.3,2.7,7.4,5l-3.8,7.7C249.3,180.5,246.8,178.7,244,177.7z M253.6,184.9l3.7-7.6
				c0.8,1.1,1.5,2.2,2.1,3.4l-3.6,7.4V188C255.2,187,254.4,185.9,253.6,184.9"/>
		</g>
		<rect x="292.7" y="131.7" class="st4" width="11.8" height="135.5"/>
		<rect x="80.9" y="202.3" class="st4" width="11.8" height="135.5"/>
	</g>
	<g>
		
			<image style="overflow:visible;opacity:0.4;" width="1084" height="1584" xlink:href="6DF96D671982F155.png"  transform="matrix(0.24 0 0 0.24 132.5005 35.2185)">
		</image>
		<g>
			<g>
				<g id="Layer_2_11_">
					<g id="svg2_10_">
						<g id="wild_10_">
							<path id="rect2987-8-5-81-2-4_13_" class="st0" d="M185.6,45.4h160c22.1,0,40,17.9,40,40v280c0,22.1-17.9,40-40,40h-160
								c-22.1,0-40-17.9-40-40v-280C145.6,63.3,163.5,45.4,185.6,45.4z"/>
							<path id="rect3757-26-33-5-9-0_13_" class="st1" d="M185.6,65.4h160c11,0,20,9,20,20v280c0,11-9,20-20,20h-160
								c-11,0-20-9-20-20v-280C165.6,74.4,174.6,65.4,185.6,65.4z"/>
							<path id="path3773-0-4-8-4-60-3-86-5-7_13_" class="st2" d="M325.6,125.4c-88.4,0-160,71.6-160,160c0,22.1,17.9,40,40,40
								c88.4,0,160-71.6,160-160C365.6,143.3,347.7,125.4,325.6,125.4z"/>
							<path id="path3773-0-4-8-8-7-9-0-03-8-0_13_" class="st3" d="M325.6,125.4c-88.3,0.1-159.9,71.7-160,160
								c0,22.1,17.9,40,40,40c65.2,0,123.8-39.6,148.2-100c7.8-19.1,11.7-39.4,11.8-60C365.6,143.3,347.7,125.4,325.6,125.4z"/>
						</g>
					</g>
				</g>
				<g id="surface1_10_">
					<path class="st4" d="M305.1,185.5L305.1,185.5c0.3,1.3,0.7,2.5,1.3,3.7c0.7,1.3,1.5,2.6,2.5,3.8c1.4,1.7,3,3.2,4.7,4.3
						c1.5,1,3.2,1.6,4.8,1.9c2,0.1,3.8-0.1,5.1-0.6c1.1-0.4,1.9-1,2.3-1.7c0.3-0.5,0.3-1.2,0.2-2.1c-0.2-1.2-0.9-2.7-1.9-4.4
						c-0.3-0.5-0.5-0.9-0.8-1.3c-0.3-0.4-0.6-0.8-0.9-1.2c-1.7-2.1-3.8-3.9-5.9-5c-1.9-1-3.8-1.5-5.8-1.4s-3.6,0.6-4.6,1.5
						c-0.7,0.5-1,1.3-1,2.3L305.1,185.5z M294.2,156.4c8.1-6.6,17.6-9,26.8-7.8c9.5,1.2,18.6,6.3,25.3,14.4c3.7,4.5,6.4,9.7,7.9,15
						s1.8,10.8,0.9,16.2c0,0.2-0.1,0.6-0.2,1.1c-0.1,0.5-0.1,0.8-0.2,1.1c-1.7,7.5-4,13.2-6.8,17.8c-2.8,4.6-6,8-9.4,10.8
						c-8.3,6.8-17.9,9.2-27.2,8.1c-9.7-1.2-18.9-6.3-25.6-14.4c-3.6-4.4-6.3-9.2-7.8-14.2c-1.6-5.1-2-10.3-1.3-15.6
						c0.5-3.9,1.9-8.7,4-13.6c1.9-4.3,4.5-8.7,7.7-12.8l0,0c0.8-1.1,1.7-2.1,2.7-3.1C292,158.3,293.1,157.3,294.2,156.4"/>
					<path class="st4" d="M256.6,188.4l13.8-11.3c1.2-1,3.1-0.8,4.1,0.4c0.1,0.1,0.1,0.1,0.2,0.2l43.2,52.5c0.3,0.3,0.5,0.6,0.7,1
						c0.4,0.8,0.3,1.7,0,2.5l-4.9,9.9c-0.2,0.4-0.5,0.8-0.8,1l-11.4,9.3c-0.7,0.6-1.7,0.8-2.6,0.6l0,0l-18.1-4.7l5.3,6.5
						c0.4,0.3,0.7,0.8,0.9,1.3c0.2,0.8,0.2,1.5-0.2,2.2l-4.9,9.9c-0.2,0.4-0.5,0.7-0.8,1l0,0l-13.9,11.4c-1.2,1-3.1,0.8-4.1-0.4
						l-43.6-53.1c-0.8-1-0.9-2.3-0.2-3.4l4.7-9.7c0.2-0.4,0.5-0.8,0.8-1l12.2-9.9c0.7-0.6,1.7-0.8,2.6-0.6l0,0l16.6,4.2l-4.8-5.8
						c-0.7-0.9-0.8-2.1-0.4-3.1l4.8-9.9C256,189,256.3,188.7,256.6,188.4L256.6,188.4"/>
					<path class="st4" d="M236.6,306.6c-6,2.8-11.9,3.4-17.5,2.2c-7.6-1.6-14.6-6.5-20.7-14l-24.1-29.3c-0.8-1-0.9-2.3-0.2-3.4
						l4.7-9.7c0.2-0.4,0.5-0.7,0.8-1l0,0l13.9-11.4c1.2-1,3.1-0.8,4.1,0.4l24.6,29.9c1.4,1.8,3.1,3.2,5,4c1.4,0.6,3,0.7,4.6,0.2
						c0.3-0.1,0.7-0.2,1-0.4c-0.2-0.6-0.5-1.2-0.8-1.8c-0.5-0.9-1.1-1.8-1.8-2.6L205.6,240c-0.8-1-0.9-2.3-0.2-3.4l4.6-9.4
						c0.2-0.5,0.5-1,0.9-1.3l13.9-11.4c1.2-1,3.1-0.8,4.1,0.4l24.4,29.7c3.8,4.6,6.4,9.2,8,13.9c1.6,4.8,1.9,9.5,1.1,14.2
						c-0.7,3.7-2.9,8.1-5.2,12.5c-0.5,1-1,2-1.4,2.8v0.1c-0.8,1.8-1.8,3.5-3,5.2C248.6,299,243,303.7,236.6,306.6"/>
					<path class="st5" d="M258.4,190.7l13.8-11.3l43.6,53l0,0l-4.9,9.9l-11.5,9.3l-26.8-7l11.3,13.8l0,0h0.1l-4.9,9.9l-13.9,11.4
						l-43.5-53l4.8-9.9l12.2-9.9l25.2,6.4l-10.3-12.7L258.4,190.7"/>
					<path class="st5" d="M296,158.6c15.2-12.5,35.8-8.5,47.9,6.2c7,8.5,9.9,19.1,8.1,29c-0.1,0.6-0.2,1.2-0.3,1.9
						c-3.2,14.3-8.9,21.8-15.2,26.9c-15.7,12.9-36.6,8.8-48.6-5.9c-6.9-8.3-9.7-17.9-8.5-27.6c0.9-6.9,4.7-16.7,11.1-24.9l0,0
						C292.1,162.3,293.9,160.4,296,158.6z M302.2,185.9c0-0.1,0-0.2,0-0.3c-0.1-4.2,3.2-6.5,8.4-6.9c5.2-0.4,10.4,2.8,14.2,7.4
						c0.8,0.9,1.4,1.9,2,2.9c2.4,4,3,7.1,1.8,9.4c-1.4,2.7-5.2,4.2-10.3,3.8c-4.3-0.7-8.4-3.4-11.5-7.2
						C304.4,192.2,302.8,189.1,302.2,185.9"/>
					<path class="st5" d="M280.3,217.4l-21.9-26.7l13.8-11.3l43.6,53l-11.5,9.3L261,230.4l23,28l-13.9,11.4l-43.5-53l12.2-9.9
						L280.3,217.4"/>
					<path class="st6" d="M286.4,221.2L261.6,191l10.4-8.5l40.8,49.6l-8.9,7.2l-48.8-12.8l25.9,31.6l-10.5,8.6l-40.7-49.6l9.6-7.8
						L286.4,221.2"/>
					<path class="st7" d="M278.8,257.9l-8.1,6.7l-38.8-47.2l7.8-6.3l50.8,12.9l-26.8-32.7l8-6.6l38.8,47.2l-7,5.7l-52.7-13.8
						L278.8,257.9"/>
					<path class="st5" d="M296,158.6c15.2-12.5,35.8-8.5,47.9,6.2c12.1,14.7,11.9,35.7-3.3,48.2c-15.2,12.4-35.8,8.5-47.9-6.2
						C280.7,192.1,280.8,171.1,296,158.6z M307.1,172.1c-7.7,6.3-6.2,15.8-0.4,22.8c5.8,7,14.8,10.4,22.5,4.1
						c7.7-6.3,6.1-15.8,0.4-22.8C323.7,169.1,314.7,165.8,307.1,172.1"/>
					<path class="st6" d="M297.4,160.4c14.2-11.7,33.4-7.9,44.8,5.9c11.3,13.7,11.2,33.4-3,45c-14.2,11.7-33.5,7.9-44.8-5.9
						C283.2,191.6,283.2,172,297.4,160.4z M305.6,170.4c-8.6,7.1-7.2,18-0.7,26c6.6,8,16.9,11.5,25.6,4.4c8.7-7.1,7.2-18,0.7-25.9
						C324.7,166.8,314.3,163.3,305.6,170.4"/>
					<path class="st7" d="M304.7,169.2c9-7.4,20.3-4.4,27.7,4.6s8.2,20.7-0.9,28.1c-9,7.4-20.4,4.4-27.8-4.6
						C296.3,188.3,295.7,176.6,304.7,169.2z M298.4,161.5c13.3-10.9,31.6-7.7,42.6,5.7c11,13.4,10.5,32-2.7,42.9
						c-13.3,10.9-31.6,7.7-42.6-5.7S285.1,172.5,298.4,161.5"/>
					<path class="st5" d="M234,304.6c-12.3,5-23.9,0-33.3-11.5l-24.1-29.3l4.8-9.9l14-11.5l24.5,30c3.2,3.9,7.6,6.7,12.7,5.1
						c1.5-0.4,3.4-1.2,3.2-3.3c-0.6-2.2-1.8-4.3-3.3-6.1l-24.6-29.9l4.8-9.9l0,0l0,0l0,0l0,0l13.9-11.5l24.4,29.7
						c7,8.6,10,17.3,8.4,25.8c-0.7,4-3.8,9.5-6.3,14.5l0,0C249.5,294.8,242,301.3,234,304.6"/>
					<path class="st5" d="M251.2,286.3l0.1,0.2l-2.9,2.4c-0.1,0.1-0.2,0.1-0.2,0.2c-0.1,0.1-0.2,0.2-0.3,0.2l-2.9,2.4l-0.1-0.2
						c-14.6,9.7-28.4,5-39.3-8.3l-24.1-29.3l13.9-11.5l24.5,30c3.2,3.9,7.6,6.7,12.7,5.1c1.5-0.5,2.9-1.3,4.2-2.3
						c1.3-1,2.3-2.3,3.1-3.7c2.5-4.7,0.5-9.6-2.6-13.4l-24.6-29.9l13.9-11.4l24.4,29.7C262,259.9,263.6,273.9,251.2,286.3"/>
					<path class="st6" d="M248.1,286.1L248.1,286.1l-1.2,1c-0.1,0.1-0.2,0.1-0.2,0.2c-0.1,0.1-0.2,0.1-0.3,0.2l-1.2,1l0,0
						c-14.1,10.4-27.3,6.4-38-6.7l-22.6-27.6l10.5-8.6l23.2,28.2c3.8,4.6,9,7.6,15.1,5.9c1.8-0.5,3.5-1.5,5-2.7
						c1.5-1.2,2.8-2.7,3.6-4.4c2.9-5.5,0.9-11.3-2.9-15.8l-23.2-28.2l10.5-8.6l22.9,27.9C260.1,261.1,261.2,274.3,248.1,286.1"/>
					<path class="st7" d="M186.7,254.4l8.1-6.6l22.2,27c7.3,8.9,16.2,8.2,22.2,3.4c5.9-4.9,8.4-13.5,1-22.4l-22.2-27l8.1-6.6
						l22,26.8c8.8,10.7,13.4,24-2.1,37.1l0,0c-0.1,0.1-0.2,0.1-0.2,0.2c-0.1,0.1-0.2,0.1-0.3,0.2l0,0c-15.4,12.3-28.1,5.4-37.1-5.6
						L186.7,254.4"/>
					<path class="st8" d="M256.2,200.2l3.8-7.8l6.2,7.6l-3.8,7.8L256.2,200.2z M264.4,210.3l3.8-7.8l2.3,2.9l-3.8,7.8L264.4,210.3"
						/>
					<path class="st8" d="M210.4,237.8l3.8-7.8l6.2,7.6l-3.8,7.8L210.4,237.8z M218.7,247.9l3.8-7.8l2.3,2.9l-3.8,7.8L218.7,247.9"
						/>
					<path class="st8" d="M193.1,280.5l3.8-7.8l6.2,7.6l-3.8,7.8L193.1,280.5z M201.4,290.6l3.8-7.8l0,0l0.3,0.4
						c0.7,0.9,1.4,1.7,2.1,2.5l-3.8,7.9L201.4,290.6"/>
					<path class="st8" d="M316.9,177.5l3.8-7.8c2.7,1,5.3,2.7,7.4,5l-3.8,7.7C322.2,180.3,319.7,178.5,316.9,177.5z M326.5,184.7
						l3.7-7.6c0.8,1.1,1.5,2.2,2.1,3.4l-3.6,7.4v-0.1C328.1,186.8,327.3,185.7,326.5,184.7"/>
				</g>
				<rect x="365.6" y="131.5" class="st4" width="11.8" height="135.5"/>
				<rect x="153.8" y="202.1" class="st4" width="11.8" height="135.5"/>
			</g>
		</g>
	</g>
	<g>
		
			<image style="overflow:visible;opacity:0.4;" width="1084" height="1585" xlink:href="6DF96D671982F157.png"  transform="matrix(0.24 0 0 0.24 203.0734 35.3375)">
		</image>
		<g>
			<g>
				<g id="Layer_2_13_">
					<g id="svg2_12_">
						<g id="wild_12_">
							<path id="rect2987-8-5-81-2-4_15_" class="st0" d="M256.2,45.6h160c22.1,0,40,17.9,40,40v280c0,22.1-17.9,40-40,40h-160
								c-22.1,0-40-17.9-40-40v-280C216.2,63.5,234.1,45.6,256.2,45.6z"/>
							<path id="rect3757-26-33-5-9-0_15_" class="st1" d="M256.2,65.6h160c11,0,20,9,20,20v280c0,11-9,20-20,20h-160
								c-11,0-20-9-20-20v-280C236.2,74.6,245.2,65.6,256.2,65.6z"/>
							<path id="path3773-0-4-8-4-60-3-86-5-7_15_" class="st2" d="M396.2,125.6c-88.4,0-160,71.6-160,160c0,22.1,17.9,40,40,40
								c88.4,0,160-71.6,160-160C436.2,143.5,418.3,125.6,396.2,125.6z"/>
							<path id="path3773-0-4-8-8-7-9-0-03-8-0_15_" class="st3" d="M396.2,125.6c-88.3,0.1-159.9,71.7-160,160
								c0,22.1,17.9,40,40,40c65.2,0,123.8-39.6,148.2-100c7.8-19.1,11.7-39.4,11.8-60C436.2,143.5,418.3,125.6,396.2,125.6z"/>
						</g>
					</g>
				</g>
				<g id="surface1_12_">
					<path class="st4" d="M375.7,185.7L375.7,185.7c0.3,1.3,0.7,2.5,1.3,3.7c0.7,1.3,1.5,2.6,2.5,3.8c1.4,1.7,3,3.2,4.7,4.3
						c1.5,1,3.2,1.6,4.8,1.9c2,0.1,3.8-0.1,5.1-0.6c1.1-0.4,1.9-1,2.3-1.7c0.3-0.5,0.3-1.2,0.2-2.1c-0.2-1.2-0.9-2.7-1.9-4.4
						c-0.3-0.5-0.5-0.9-0.8-1.3c-0.3-0.4-0.6-0.8-0.9-1.2c-1.7-2.1-3.8-3.9-5.9-5c-1.9-1-3.8-1.5-5.8-1.4s-3.6,0.6-4.6,1.5
						c-0.7,0.5-1,1.3-1,2.3V185.7z M364.8,156.6c8.1-6.6,17.6-9,26.8-7.8c9.5,1.2,18.6,6.3,25.3,14.4c3.7,4.5,6.4,9.7,7.9,15
						s1.8,10.8,0.9,16.2c0,0.2-0.1,0.6-0.2,1.1s-0.1,0.8-0.2,1.1c-1.7,7.5-4,13.2-6.8,17.8c-2.8,4.6-6,8-9.4,10.8
						c-8.3,6.8-17.9,9.2-27.2,8.1c-9.7-1.2-18.9-6.3-25.6-14.4c-3.6-4.4-6.3-9.2-7.8-14.2c-1.6-5.1-2-10.3-1.3-15.6
						c0.5-3.9,1.9-8.7,4-13.6c1.9-4.3,4.5-8.7,7.7-12.8l0,0c0.8-1.1,1.7-2.1,2.7-3.1C362.6,158.5,363.7,157.5,364.8,156.6"/>
					<path class="st4" d="M327.2,188.6l13.8-11.3c1.2-1,3.1-0.8,4.1,0.4c0.1,0.1,0.1,0.1,0.2,0.2l43.2,52.5c0.3,0.3,0.5,0.6,0.7,1
						c0.4,0.8,0.3,1.7,0,2.5l-4.9,9.9c-0.2,0.4-0.5,0.8-0.8,1l-11.4,9.3c-0.7,0.6-1.7,0.8-2.6,0.6l0,0l-18.1-4.7l5.3,6.5
						c0.4,0.3,0.7,0.8,0.9,1.3c0.2,0.8,0.2,1.5-0.2,2.2l-4.9,9.9c-0.2,0.4-0.5,0.7-0.8,1l0,0l-13.9,11.4c-1.2,1-3.1,0.8-4.1-0.4
						l-43.6-53.1c-0.8-1-0.9-2.3-0.2-3.4l4.7-9.7c0.2-0.4,0.5-0.8,0.8-1l12.2-9.9c0.7-0.6,1.7-0.8,2.6-0.6l0,0l16.6,4.2l-4.8-5.8
						c-0.7-0.9-0.8-2.1-0.4-3.1l4.8-9.9C326.6,189.2,326.9,188.9,327.2,188.6L327.2,188.6"/>
					<path class="st4" d="M307.2,306.8c-6,2.8-11.9,3.4-17.5,2.2c-7.6-1.6-14.6-6.5-20.7-14l-24.1-29.3c-0.8-1-0.9-2.3-0.2-3.4
						l4.7-9.7c0.2-0.4,0.5-0.7,0.8-1l0,0l13.9-11.4c1.2-1,3.1-0.8,4.1,0.4l24.6,29.9c1.4,1.8,3.1,3.2,5,4c1.4,0.6,3,0.7,4.6,0.2
						c0.3-0.1,0.7-0.2,1-0.4c-0.2-0.6-0.5-1.2-0.8-1.8c-0.5-0.9-1.1-1.8-1.8-2.6l-24.6-29.7c-0.8-1-0.9-2.3-0.2-3.4l4.6-9.4
						c0.2-0.5,0.5-1,0.9-1.3l13.9-11.4c1.2-1,3.1-0.8,4.1,0.4l24.4,29.7c3.8,4.6,6.4,9.2,8,13.9c1.6,4.8,1.9,9.5,1.1,14.2
						c-0.7,3.7-2.9,8.1-5.2,12.5c-0.5,1-1,2-1.4,2.8v0.1c-0.8,1.8-1.8,3.5-3,5.2C319.2,299.2,313.6,303.9,307.2,306.8"/>
					<path class="st5" d="M329,190.9l13.8-11.3l43.6,53l0,0l-4.9,9.9l-11.5,9.3l-26.8-7l11.3,13.8l0,0h0.1l-4.9,9.9l-13.9,11.4
						l-43.5-53l4.8-9.9l12.2-9.9l25.2,6.4l-10.3-12.7L329,190.9"/>
					<path class="st5" d="M366.6,158.8c15.2-12.5,35.8-8.5,47.9,6.2c7,8.5,9.9,19.1,8.1,29c-0.1,0.6-0.2,1.2-0.3,1.9
						c-3.2,14.3-8.9,21.8-15.2,26.9c-15.7,12.9-36.6,8.8-48.6-5.9c-6.9-8.3-9.7-17.9-8.5-27.6c0.9-6.9,4.7-16.7,11.1-24.9l0,0
						C362.7,162.5,364.5,160.6,366.6,158.8z M372.8,186.1c0-0.1,0-0.2,0-0.3c-0.1-4.2,3.2-6.5,8.4-6.9c5.2-0.4,10.4,2.8,14.2,7.4
						c0.8,0.9,1.4,1.9,2,2.9c2.4,4,3,7.1,1.8,9.4c-1.4,2.7-5.2,4.2-10.3,3.8c-4.3-0.7-8.4-3.4-11.5-7.2
						C375,192.4,373.4,189.3,372.8,186.1"/>
					<path class="st5" d="M350.9,217.6L329,190.9l13.8-11.3l43.6,53l-11.5,9.3l-43.3-11.3l23,28L340.7,270l-43.5-53l12.2-9.9
						L350.9,217.6"/>
					<path class="st6" d="M357,221.4l-24.8-30.2l10.4-8.5l40.8,49.6l-8.9,7.2l-48.8-12.8l25.9,31.6l-10.5,8.6l-40.7-49.6l9.6-7.8
						L357,221.4"/>
					<path class="st7" d="M349.4,258.1l-8.1,6.7l-38.8-47.2l7.8-6.3l50.8,12.9l-26.8-32.7l8-6.6l38.8,47.2l-7,5.7L321.4,224
						L349.4,258.1"/>
					<path class="st5" d="M366.6,158.8c15.2-12.5,35.8-8.5,47.9,6.2s11.9,35.7-3.3,48.2c-15.2,12.4-35.8,8.5-47.9-6.2
						C351.3,192.3,351.4,171.3,366.6,158.8z M377.7,172.3c-7.7,6.3-6.2,15.8-0.4,22.8c5.8,7,14.8,10.4,22.5,4.1
						c7.7-6.3,6.1-15.8,0.4-22.8C394.3,169.3,385.3,166,377.7,172.3"/>
					<path class="st6" d="M368,160.6c14.2-11.7,33.4-7.9,44.8,5.9c11.3,13.7,11.2,33.4-3,45c-14.2,11.7-33.5,7.9-44.8-5.9
						C353.8,191.8,353.8,172.2,368,160.6z M376.2,170.6c-8.6,7.1-7.2,18-0.7,26c6.6,8,16.9,11.5,25.6,4.4s7.2-18,0.7-25.9
						C395.3,167,384.9,163.5,376.2,170.6"/>
					<path class="st7" d="M375.3,169.4c9-7.4,20.3-4.4,27.7,4.6s8.2,20.7-0.9,28.1c-9,7.4-20.4,4.4-27.8-4.6
						C366.9,188.5,366.3,176.8,375.3,169.4z M369,161.7c13.3-10.9,31.6-7.7,42.6,5.7s10.5,32-2.7,42.9c-13.3,10.9-31.6,7.7-42.6-5.7
						C355.3,191.2,355.7,172.7,369,161.7"/>
					<path class="st5" d="M304.6,304.8c-12.3,5-23.9,0-33.3-11.5L247.2,264l4.8-9.9l14-11.5l24.5,30c3.2,3.9,7.6,6.7,12.7,5.1
						c1.5-0.4,3.4-1.2,3.2-3.3c-0.6-2.2-1.8-4.3-3.3-6.1l-24.6-29.9l4.8-9.9l0,0l0,0l0,0l0,0l13.9-11.5l24.4,29.7
						c7,8.6,10,17.3,8.4,25.8c-0.7,4-3.8,9.5-6.3,14.5l0,0C320.1,295,312.6,301.5,304.6,304.8"/>
					<path class="st5" d="M321.8,286.5l0.1,0.2l-2.9,2.4c-0.1,0.1-0.2,0.1-0.2,0.2c-0.1,0.1-0.2,0.2-0.3,0.2l-2.9,2.4l-0.1-0.2
						c-14.6,9.7-28.4,5-39.3-8.3l-24.1-29.3l13.9-11.5l24.5,30c3.2,3.9,7.6,6.7,12.7,5.1c1.5-0.5,2.9-1.3,4.2-2.3
						c1.3-1,2.3-2.3,3.1-3.7c2.5-4.7,0.5-9.6-2.6-13.4l-24.6-29.9l13.9-11.4l24.4,29.7C332.6,260.1,334.2,274.1,321.8,286.5"/>
					<path class="st6" d="M318.7,286.3L318.7,286.3l-1.2,1c-0.1,0.1-0.2,0.1-0.2,0.2c-0.1,0.1-0.2,0.1-0.3,0.2l-1.2,1l0,0
						c-14.1,10.4-27.3,6.4-38-6.7l-22.6-27.6l10.5-8.6l23.2,28.2c3.8,4.6,9,7.6,15.1,5.9c1.8-0.5,3.5-1.5,5-2.7
						c1.5-1.2,2.8-2.7,3.6-4.4c2.9-5.5,0.9-11.3-2.9-15.8l-23.2-28.2l10.5-8.6l22.9,27.9C330.7,261.3,331.8,274.5,318.7,286.3"/>
					<path class="st7" d="M257.3,254.6l8.1-6.6l22.2,27c7.3,8.9,16.2,8.2,22.2,3.4c5.9-4.9,8.4-13.5,1-22.4l-22.2-27l8.1-6.6
						l22,26.8c8.8,10.7,13.4,24-2.1,37.1l0,0c-0.1,0.1-0.2,0.1-0.2,0.2c-0.1,0.1-0.2,0.1-0.3,0.2l0,0c-15.4,12.3-28.1,5.4-37.1-5.6
						L257.3,254.6"/>
					<path class="st8" d="M326.8,200.4l3.8-7.8l6.2,7.6L333,208L326.8,200.4z M335,210.5l3.8-7.8l2.3,2.9l-3.8,7.8L335,210.5"/>
					<path class="st8" d="M281,238l3.8-7.8l6.2,7.6l-3.8,7.8L281,238z M289.3,248.1l3.8-7.8l2.3,2.9l-3.8,7.8L289.3,248.1"/>
					<path class="st8" d="M263.7,280.7l3.8-7.8l6.2,7.6l-3.8,7.8L263.7,280.7z M272,290.8l3.8-7.8l0,0l0.3,0.4
						c0.7,0.9,1.4,1.7,2.1,2.5l-3.8,7.9L272,290.8"/>
					<path class="st8" d="M387.5,177.7l3.8-7.8c2.7,1,5.3,2.7,7.4,5l-3.8,7.7C392.8,180.5,390.3,178.7,387.5,177.7z M397.1,184.9
						l3.7-7.6c0.8,1.1,1.5,2.2,2.1,3.4l-3.6,7.4V188C398.7,187,397.9,185.9,397.1,184.9"/>
				</g>
				<rect x="436.2" y="131.7" class="st4" width="11.8" height="135.5"/>
				<rect x="224.4" y="202.3" class="st4" width="11.8" height="135.5"/>
			</g>
		</g>
	</g>
	<g>
		
			<image style="overflow:visible;opacity:0.4;" width="1084" height="1585" xlink:href="6DF96D671982F152.png"  transform="matrix(0.24 0 0 0.24 275.1805 35.3829)">
		</image>
		<g>
			<g>
				<g id="Layer_2_15_">
					<g id="svg2_14_">
						<g id="wild_14_">
							<path id="rect2987-8-5-81-2-4_17_" class="st0" d="M328.3,45.6h160c22.1,0,40,17.9,40,40v280c0,22.1-17.9,40-40,40h-160
								c-22.1,0-40-17.9-40-40v-280C288.3,63.5,306.2,45.6,328.3,45.6z"/>
							<path id="rect3757-26-33-5-9-0_17_" class="st1" d="M328.3,65.6h160c11,0,20,9,20,20v280c0,11-9,20-20,20h-160
								c-11,0-20-9-20-20v-280C308.3,74.6,317.3,65.6,328.3,65.6z"/>
							<path id="path3773-0-4-8-4-60-3-86-5-7_17_" class="st2" d="M468.3,125.6c-88.4,0-160,71.6-160,160c0,22.1,17.9,40,40,40
								c88.4,0,160-71.6,160-160C508.3,143.5,490.4,125.6,468.3,125.6z"/>
							<path id="path3773-0-4-8-8-7-9-0-03-8-0_17_" class="st3" d="M468.3,125.6c-88.3,0.1-159.9,71.7-160,160
								c0,22.1,17.9,40,40,40c65.2,0,123.8-39.6,148.2-100c7.8-19.1,11.7-39.4,11.8-60C508.3,143.5,490.4,125.6,468.3,125.6z"/>
						</g>
					</g>
				</g>
				<g id="surface1_14_">
					<path class="st4" d="M447.8,185.7L447.8,185.7c0.3,1.3,0.7,2.5,1.3,3.7c0.7,1.3,1.5,2.6,2.5,3.8c1.4,1.7,3,3.2,4.7,4.3
						c1.5,1,3.2,1.6,4.8,1.9c2,0.1,3.8-0.1,5.1-0.6c1.1-0.4,1.9-1,2.3-1.7c0.3-0.5,0.3-1.2,0.2-2.1c-0.2-1.2-0.9-2.7-1.9-4.4
						c-0.3-0.5-0.5-0.9-0.8-1.3c-0.3-0.4-0.6-0.8-0.9-1.2c-1.7-2.1-3.8-3.9-5.9-5c-1.9-1-3.8-1.5-5.8-1.4s-3.6,0.6-4.6,1.5
						c-0.7,0.5-1,1.3-1,2.3V185.7z M436.9,156.6c8.1-6.6,17.6-9,26.8-7.8c9.5,1.2,18.6,6.3,25.3,14.4c3.7,4.5,6.4,9.7,7.9,15
						s1.8,10.8,0.9,16.2c0,0.2-0.1,0.6-0.2,1.1s-0.1,0.8-0.2,1.1c-1.7,7.5-4,13.2-6.8,17.8c-2.8,4.6-6,8-9.4,10.8
						c-8.3,6.8-17.9,9.2-27.2,8.1c-9.7-1.2-18.9-6.3-25.6-14.4c-3.6-4.4-6.3-9.2-7.8-14.2c-1.6-5.1-2-10.3-1.3-15.6
						c0.5-3.9,1.9-8.7,4-13.6c1.9-4.3,4.5-8.7,7.7-12.8l0,0c0.8-1.1,1.7-2.1,2.7-3.1C434.7,158.5,435.8,157.5,436.9,156.6"/>
					<path class="st4" d="M399.3,188.6l13.8-11.3c1.2-1,3.1-0.8,4.1,0.4c0.1,0.1,0.1,0.1,0.2,0.2l43.2,52.5c0.3,0.3,0.5,0.6,0.7,1
						c0.4,0.8,0.3,1.7,0,2.5l-4.9,9.9c-0.2,0.4-0.5,0.8-0.8,1l-11.4,9.3c-0.7,0.6-1.7,0.8-2.6,0.6l0,0l-18.1-4.7l5.3,6.5
						c0.4,0.3,0.7,0.8,0.9,1.3c0.2,0.8,0.2,1.5-0.2,2.2l-4.9,9.9c-0.2,0.4-0.5,0.7-0.8,1l0,0l-13.9,11.4c-1.2,1-3.1,0.8-4.1-0.4
						l-43.6-53.1c-0.8-1-0.9-2.3-0.2-3.4l4.7-9.7c0.2-0.4,0.5-0.8,0.8-1l12.2-9.9c0.7-0.6,1.7-0.8,2.6-0.6l0,0l16.6,4.2l-4.8-5.8
						c-0.7-0.9-0.8-2.1-0.4-3.1l4.8-9.9C398.7,189.2,399,188.9,399.3,188.6L399.3,188.6"/>
					<path class="st4" d="M379.3,306.8c-6,2.8-11.9,3.4-17.5,2.2c-7.6-1.6-14.6-6.5-20.7-14L317,265.7c-0.8-1-0.9-2.3-0.2-3.4
						l4.7-9.7c0.2-0.4,0.5-0.7,0.8-1l0,0l13.9-11.4c1.2-1,3.1-0.8,4.1,0.4l24.6,29.9c1.4,1.8,3.1,3.2,5,4c1.4,0.6,3,0.7,4.6,0.2
						c0.3-0.1,0.7-0.2,1-0.4c-0.2-0.6-0.5-1.2-0.8-1.8c-0.5-0.9-1.1-1.8-1.8-2.6l-24.6-29.7c-0.8-1-0.9-2.3-0.2-3.4l4.6-9.4
						c0.2-0.5,0.5-1,0.9-1.3l13.9-11.4c1.2-1,3.1-0.8,4.1,0.4l24.4,29.7c3.8,4.6,6.4,9.2,8,13.9c1.6,4.8,1.9,9.5,1.1,14.2
						c-0.7,3.7-2.9,8.1-5.2,12.5c-0.5,1-1,2-1.4,2.8v0.1c-0.8,1.8-1.8,3.5-3,5.2C391.3,299.2,385.7,303.9,379.3,306.8"/>
					<path class="st5" d="M401.1,190.9l13.8-11.3l43.6,53l0,0l-4.9,9.9l-11.5,9.3l-26.8-7l11.3,13.8l0,0h0.1l-4.9,9.9l-13.9,11.4
						l-43.5-53l4.8-9.9l12.2-9.9l25.2,6.4l-10.3-12.7L401.1,190.9"/>
					<path class="st5" d="M438.7,158.8c15.2-12.5,35.8-8.5,47.9,6.2c7,8.5,9.9,19.1,8.1,29c-0.1,0.6-0.2,1.2-0.3,1.9
						c-3.2,14.3-8.9,21.8-15.2,26.9c-15.7,12.9-36.6,8.8-48.6-5.9c-6.9-8.3-9.7-17.9-8.5-27.6c0.9-6.9,4.7-16.7,11.1-24.9l0,0
						C434.8,162.5,436.6,160.6,438.7,158.8z M444.9,186.1c0-0.1,0-0.2,0-0.3c-0.1-4.2,3.2-6.5,8.4-6.9c5.2-0.4,10.4,2.8,14.2,7.4
						c0.8,0.9,1.4,1.9,2,2.9c2.4,4,3,7.1,1.8,9.4c-1.4,2.7-5.2,4.2-10.3,3.8c-4.3-0.7-8.4-3.4-11.5-7.2
						C447.1,192.4,445.5,189.3,444.9,186.1"/>
					<path class="st5" d="M423,217.6l-21.9-26.7l13.8-11.3l43.6,53l-11.5,9.3l-43.3-11.3l23,28L412.8,270l-43.5-53l12.2-9.9
						L423,217.6"/>
					<path class="st6" d="M429.1,221.4l-24.8-30.2l10.4-8.5l40.8,49.6l-8.9,7.2l-48.8-12.8l25.9,31.6l-10.5,8.6l-40.7-49.6l9.6-7.8
						L429.1,221.4"/>
					<path class="st7" d="M421.5,258.1l-8.1,6.7l-38.8-47.2l7.8-6.3l50.8,12.9l-26.8-32.7l8-6.6l38.8,47.2l-7,5.7L393.5,224
						L421.5,258.1"/>
					<path class="st5" d="M438.7,158.8c15.2-12.5,35.8-8.5,47.9,6.2s11.9,35.7-3.3,48.2c-15.2,12.4-35.8,8.5-47.9-6.2
						C423.4,192.3,423.5,171.3,438.7,158.8z M449.8,172.3c-7.7,6.3-6.2,15.8-0.4,22.8c5.8,7,14.8,10.4,22.5,4.1
						c7.7-6.3,6.1-15.8,0.4-22.8C466.4,169.3,457.4,166,449.8,172.3"/>
					<path class="st6" d="M440.1,160.6c14.2-11.7,33.4-7.9,44.8,5.9c11.3,13.7,11.2,33.4-3,45c-14.2,11.7-33.5,7.9-44.8-5.9
						C425.9,191.8,425.9,172.2,440.1,160.6z M448.3,170.6c-8.6,7.1-7.2,18-0.7,26c6.6,8,16.9,11.5,25.6,4.4s7.2-18,0.7-25.9
						C467.4,167,457,163.5,448.3,170.6"/>
					<path class="st7" d="M447.4,169.4c9-7.4,20.3-4.4,27.7,4.6s8.2,20.7-0.9,28.1c-9,7.4-20.4,4.4-27.8-4.6
						C439,188.5,438.4,176.8,447.4,169.4z M441.1,161.7c13.3-10.9,31.6-7.7,42.6,5.7s10.5,32-2.7,42.9c-13.3,10.9-31.6,7.7-42.6-5.7
						C427.4,191.2,427.8,172.7,441.1,161.7"/>
					<path class="st5" d="M376.7,304.8c-12.3,5-23.9,0-33.3-11.5L319.3,264l4.8-9.9l14-11.5l24.5,30c3.2,3.9,7.6,6.7,12.7,5.1
						c1.5-0.4,3.4-1.2,3.2-3.3c-0.6-2.2-1.8-4.3-3.3-6.1l-24.6-29.9l4.8-9.9l0,0l0,0l0,0l0,0l13.9-11.5l24.4,29.7
						c7,8.6,10,17.3,8.4,25.8c-0.7,4-3.8,9.5-6.3,14.5l0,0C392.2,295,384.7,301.5,376.7,304.8"/>
					<path class="st5" d="M393.9,286.5l0.1,0.2l-2.9,2.4c-0.1,0.1-0.2,0.1-0.2,0.2c-0.1,0.1-0.2,0.2-0.3,0.2l-2.9,2.4l-0.1-0.2
						c-14.6,9.7-28.4,5-39.3-8.3l-24.1-29.3l13.9-11.5l24.5,30c3.2,3.9,7.6,6.7,12.7,5.1c1.5-0.5,2.9-1.3,4.2-2.3
						c1.3-1,2.3-2.3,3.1-3.7c2.5-4.7,0.5-9.6-2.6-13.4l-24.6-29.9l13.9-11.4l24.4,29.7C404.7,260.1,406.3,274.1,393.9,286.5"/>
					<path class="st6" d="M390.8,286.3L390.8,286.3l-1.2,1c-0.1,0.1-0.2,0.1-0.2,0.2c-0.1,0.1-0.2,0.1-0.3,0.2l-1.2,1l0,0
						c-14.1,10.4-27.3,6.4-38-6.7l-22.6-27.6l10.5-8.6L361,274c3.8,4.6,9,7.6,15.1,5.9c1.8-0.5,3.5-1.5,5-2.7
						c1.5-1.2,2.8-2.7,3.6-4.4c2.9-5.5,0.9-11.3-2.9-15.8l-23.2-28.2l10.5-8.6l22.9,27.9C402.8,261.3,403.9,274.5,390.8,286.3"/>
					<path class="st7" d="M329.4,254.6l8.1-6.6l22.2,27c7.3,8.9,16.2,8.2,22.2,3.4c5.9-4.9,8.4-13.5,1-22.4l-22.2-27l8.1-6.6
						l22,26.8c8.8,10.7,13.4,24-2.1,37.1l0,0c-0.1,0.1-0.2,0.1-0.2,0.2c-0.1,0.1-0.2,0.1-0.3,0.2l0,0c-15.4,12.3-28.1,5.4-37.1-5.6
						L329.4,254.6"/>
					<path class="st8" d="M398.9,200.4l3.8-7.8l6.2,7.6l-3.8,7.8L398.9,200.4z M407.1,210.5l3.8-7.8l2.3,2.9l-3.8,7.8L407.1,210.5"
						/>
					<path class="st8" d="M353.1,238l3.8-7.8l6.2,7.6l-3.8,7.8L353.1,238z M361.4,248.1l3.8-7.8l2.3,2.9l-3.8,7.8L361.4,248.1"/>
					<path class="st8" d="M335.8,280.7l3.8-7.8l6.2,7.6l-3.8,7.8L335.8,280.7z M344.1,290.8l3.8-7.8l0,0l0.3,0.4
						c0.7,0.9,1.4,1.7,2.1,2.5l-3.8,7.9L344.1,290.8"/>
					<path class="st8" d="M459.6,177.7l3.8-7.8c2.7,1,5.3,2.7,7.4,5l-3.8,7.7C464.9,180.5,462.4,178.7,459.6,177.7z M469.2,184.9
						l3.7-7.6c0.8,1.1,1.5,2.2,2.1,3.4l-3.6,7.4V188C470.8,187,470,185.9,469.2,184.9"/>
				</g>
				<rect x="508.3" y="131.7" class="st4" width="11.8" height="135.5"/>
				<rect x="296.5" y="202.3" class="st4" width="11.8" height="135.5"/>
			</g>
		</g>
	</g>
	<g>
		
			<image style="overflow:visible;opacity:0.4;" width="1084" height="1585" xlink:href="6DF96D671982F153.png"  transform="matrix(0.24 0 0 0.24 347.1593 34.1292)">
		</image>
		<g>
			<g>
				<g id="Layer_2_17_">
					<g id="svg2_16_">
						<g id="wild_16_">
							<path id="rect2987-8-5-81-2-4_19_" class="st0" d="M400.2,44.4h160c22.1,0,40,17.9,40,40v280c0,22.1-17.9,40-40,40h-160
								c-22.1,0-40-17.9-40-40v-280C360.2,62.3,378.1,44.4,400.2,44.4z"/>
							<path id="rect3757-26-33-5-9-0_19_" class="st1" d="M400.2,64.4h160c11,0,20,9,20,20v280c0,11-9,20-20,20h-160
								c-11,0-20-9-20-20v-280C380.2,73.4,389.2,64.4,400.2,64.4z"/>
							<path id="path3773-0-4-8-4-60-3-86-5-7_19_" class="st2" d="M540.2,124.4c-88.4,0-160,71.6-160,160c0,22.1,17.9,40,40,40
								c88.4,0,160-71.6,160-160C580.2,142.3,562.3,124.4,540.2,124.4z"/>
							<path id="path3773-0-4-8-8-7-9-0-03-8-0_19_" class="st3" d="M540.2,124.4c-88.3,0.1-159.9,71.7-160,160
								c0,22.1,17.9,40,40,40c65.2,0,123.8-39.6,148.2-100c7.8-19.1,11.7-39.4,11.8-60C580.2,142.3,562.3,124.4,540.2,124.4z"/>
						</g>
					</g>
				</g>
				<g id="surface1_16_">
					<path class="st4" d="M519.7,184.5L519.7,184.5c0.3,1.3,0.7,2.5,1.3,3.7c0.7,1.3,1.5,2.6,2.5,3.8c1.4,1.7,3,3.2,4.7,4.3
						c1.5,1,3.2,1.6,4.8,1.9c2,0.1,3.8-0.1,5.1-0.6c1.1-0.4,1.9-1,2.3-1.7c0.3-0.5,0.3-1.2,0.2-2.1c-0.2-1.2-0.9-2.7-1.9-4.4
						c-0.3-0.5-0.5-0.9-0.8-1.3c-0.3-0.4-0.6-0.8-0.9-1.2c-1.7-2.1-3.8-3.9-5.9-5c-1.9-1-3.8-1.5-5.8-1.4s-3.6,0.6-4.6,1.5
						c-0.7,0.5-1,1.3-1,2.3V184.5z M508.8,155.4c8.1-6.6,17.6-9,26.8-7.8c9.5,1.2,18.6,6.3,25.3,14.4c3.7,4.5,6.4,9.7,7.9,15
						s1.8,10.8,0.9,16.2c0,0.2-0.1,0.6-0.2,1.1s-0.1,0.8-0.2,1.1c-1.7,7.5-4,13.2-6.8,17.8s-6,8-9.4,10.8
						c-8.3,6.8-17.9,9.2-27.2,8.1c-9.7-1.2-18.9-6.3-25.6-14.4c-3.6-4.4-6.3-9.2-7.8-14.2c-1.6-5.1-2-10.3-1.3-15.6
						c0.5-3.9,1.9-8.7,4-13.6c1.9-4.3,4.5-8.7,7.7-12.8l0,0c0.8-1.1,1.7-2.1,2.7-3.1C506.6,157.3,507.7,156.3,508.8,155.4"/>
					<path class="st4" d="M471.2,187.4l13.8-11.3c1.2-1,3.1-0.8,4.1,0.4c0.1,0.1,0.1,0.1,0.2,0.2l43.2,52.5c0.3,0.3,0.5,0.6,0.7,1
						c0.4,0.8,0.3,1.7,0,2.5l-4.9,9.9c-0.2,0.4-0.5,0.8-0.8,1l-11.4,9.3c-0.7,0.6-1.7,0.8-2.6,0.6l0,0l-18.1-4.7l5.3,6.5
						c0.4,0.3,0.7,0.8,0.9,1.3c0.2,0.8,0.2,1.5-0.2,2.2l-4.9,9.9c-0.2,0.4-0.5,0.7-0.8,1l0,0l-13.9,11.4c-1.2,1-3.1,0.8-4.1-0.4
						l-43.6-53.1c-0.8-1-0.9-2.3-0.2-3.4l4.7-9.7c0.2-0.4,0.5-0.8,0.8-1l12.2-9.9c0.7-0.6,1.7-0.8,2.6-0.6l0,0l16.6,4.2l-4.8-5.8
						c-0.7-0.9-0.8-2.1-0.4-3.1l4.8-9.9C470.6,188,470.9,187.7,471.2,187.4L471.2,187.4"/>
					<path class="st4" d="M451.2,305.6c-6,2.8-11.9,3.4-17.5,2.2c-7.6-1.6-14.6-6.5-20.7-14l-24.1-29.3c-0.8-1-0.9-2.3-0.2-3.4
						l4.7-9.7c0.2-0.4,0.5-0.7,0.8-1l0,0l13.9-11.4c1.2-1,3.1-0.8,4.1,0.4l24.6,29.9c1.4,1.8,3.1,3.2,5,4c1.4,0.6,3,0.7,4.6,0.2
						c0.3-0.1,0.7-0.2,1-0.4c-0.2-0.6-0.5-1.2-0.8-1.8c-0.5-0.9-1.1-1.8-1.8-2.6L420.2,239c-0.8-1-0.9-2.3-0.2-3.4l4.6-9.4
						c0.2-0.5,0.5-1,0.9-1.3l13.9-11.4c1.2-1,3.1-0.8,4.1,0.4l24.4,29.7c3.8,4.6,6.4,9.2,8,13.9c1.6,4.8,1.9,9.5,1.1,14.2
						c-0.7,3.7-2.9,8.1-5.2,12.5c-0.5,1-1,2-1.4,2.8v0.1c-0.8,1.8-1.8,3.5-3,5.2C463.2,298,457.6,302.7,451.2,305.6"/>
					<path class="st5" d="M473,189.7l13.8-11.3l43.6,53l0,0l-4.9,9.9l-11.5,9.3l-26.8-7l11.3,13.8l0,0h0.1l-4.9,9.9l-13.9,11.4
						l-43.5-53l4.8-9.9l12.2-9.9l25.2,6.4l-10.3-12.7L473,189.7"/>
					<path class="st5" d="M510.6,157.6c15.2-12.5,35.8-8.5,47.9,6.2c7,8.5,9.9,19.1,8.1,29c-0.1,0.6-0.2,1.2-0.3,1.9
						c-3.2,14.3-8.9,21.8-15.2,26.9c-15.7,12.9-36.6,8.8-48.6-5.9c-6.9-8.3-9.7-17.9-8.5-27.6c0.9-6.9,4.7-16.7,11.1-24.9l0,0
						C506.7,161.3,508.5,159.4,510.6,157.6z M516.8,184.9c0-0.1,0-0.2,0-0.3c-0.1-4.2,3.2-6.5,8.4-6.9s10.4,2.8,14.2,7.4
						c0.8,0.9,1.4,1.9,2,2.9c2.4,4,3,7.1,1.8,9.4c-1.4,2.7-5.2,4.2-10.3,3.8c-4.3-0.7-8.4-3.4-11.5-7.2
						C519,191.2,517.4,188.1,516.8,184.9"/>
					<path class="st5" d="M494.9,216.4L473,189.7l13.8-11.3l43.6,53l-11.5,9.3l-43.3-11.3l23,28l-13.9,11.4l-43.5-53l12.2-9.9
						L494.9,216.4"/>
					<path class="st6" d="M501,220.2L476.2,190l10.4-8.5l40.8,49.6l-8.9,7.2l-48.8-12.8l25.9,31.6l-10.5,8.6l-40.7-49.6l9.6-7.8
						L501,220.2"/>
					<path class="st7" d="M493.4,256.9l-8.1,6.7l-38.8-47.2l7.8-6.3l50.8,12.9l-26.8-32.7l8-6.6l38.8,47.2l-7,5.7l-52.7-13.8
						L493.4,256.9"/>
					<path class="st5" d="M510.6,157.6c15.2-12.5,35.8-8.5,47.9,6.2s11.9,35.7-3.3,48.2c-15.2,12.4-35.8,8.5-47.9-6.2
						C495.3,191.1,495.4,170.1,510.6,157.6z M521.7,171.1c-7.7,6.3-6.2,15.8-0.4,22.8c5.8,7,14.8,10.4,22.5,4.1
						c7.7-6.3,6.1-15.8,0.4-22.8C538.3,168.1,529.3,164.8,521.7,171.1"/>
					<path class="st6" d="M512,159.4c14.2-11.7,33.4-7.9,44.8,5.9c11.3,13.7,11.2,33.4-3,45c-14.2,11.7-33.5,7.9-44.8-5.9
						C497.8,190.6,497.8,171,512,159.4z M520.2,169.4c-8.6,7.1-7.2,18-0.7,26c6.6,8,16.9,11.5,25.6,4.4c8.7-7.1,7.2-18,0.7-25.9
						C539.3,165.8,528.9,162.3,520.2,169.4"/>
					<path class="st7" d="M519.3,168.2c9-7.4,20.3-4.4,27.7,4.6c7.4,9,8.2,20.7-0.9,28.1c-9,7.4-20.4,4.4-27.8-4.6
						C510.9,187.3,510.3,175.6,519.3,168.2z M513,160.5c13.3-10.9,31.6-7.7,42.6,5.7c11,13.4,10.5,32-2.7,42.9
						c-13.3,10.9-31.6,7.7-42.6-5.7C499.3,190,499.7,171.5,513,160.5"/>
					<path class="st5" d="M448.6,303.6c-12.3,5-23.9,0-33.3-11.5l-24.1-29.3l4.8-9.9l14-11.5l24.5,30c3.2,3.9,7.6,6.7,12.7,5.1
						c1.5-0.4,3.4-1.2,3.2-3.3c-0.6-2.2-1.8-4.3-3.3-6.1l-24.6-29.9l4.8-9.9l0,0l0,0l0,0l0,0l13.9-11.5l24.4,29.7
						c7,8.6,10,17.3,8.4,25.8c-0.7,4-3.8,9.5-6.3,14.5l0,0C464.1,293.8,456.6,300.3,448.6,303.6"/>
					<path class="st5" d="M465.8,285.3l0.1,0.2l-2.9,2.4c-0.1,0.1-0.2,0.1-0.2,0.2c-0.1,0.1-0.2,0.2-0.3,0.2l-2.9,2.4l-0.1-0.2
						c-14.6,9.7-28.4,5-39.3-8.3l-24.1-29.3l13.9-11.5l24.5,30c3.2,3.9,7.6,6.7,12.7,5.1c1.5-0.5,2.9-1.3,4.2-2.3
						c1.3-1,2.3-2.3,3.1-3.7c2.5-4.7,0.5-9.6-2.6-13.4l-24.6-29.9l13.9-11.4l24.4,29.7C476.6,258.9,478.2,272.9,465.8,285.3"/>
					<path class="st6" d="M462.7,285.1L462.7,285.1l-1.2,1c-0.1,0.1-0.2,0.1-0.2,0.2c-0.1,0.1-0.2,0.1-0.3,0.2l-1.2,1l0,0
						c-14.1,10.4-27.3,6.4-38-6.7l-22.6-27.6l10.5-8.6l23.2,28.2c3.8,4.6,9,7.6,15.1,5.9c1.8-0.5,3.5-1.5,5-2.7
						c1.5-1.2,2.8-2.7,3.6-4.4c2.9-5.5,0.9-11.3-2.9-15.8l-23.2-28.2L441,219l22.9,27.9C474.7,260.1,475.8,273.3,462.7,285.1"/>
					<path class="st7" d="M401.3,253.4l8.1-6.6l22.2,27c7.3,8.9,16.2,8.2,22.2,3.4c5.9-4.9,8.4-13.5,1-22.4l-22.2-27l8.1-6.6
						l22,26.8c8.8,10.7,13.4,24-2.1,37.1l0,0c-0.1,0.1-0.2,0.1-0.2,0.2c-0.1,0.1-0.2,0.1-0.3,0.2l0,0c-15.4,12.3-28.1,5.4-37.1-5.6
						L401.3,253.4"/>
					<path class="st8" d="M470.8,199.2l3.8-7.8l6.2,7.6l-3.8,7.8L470.8,199.2z M479,209.3l3.8-7.8l2.3,2.9l-3.8,7.8L479,209.3"/>
					<path class="st8" d="M425,236.8l3.8-7.8l6.2,7.6l-3.8,7.8L425,236.8z M433.3,246.9l3.8-7.8l2.3,2.9l-3.8,7.8L433.3,246.9"/>
					<path class="st8" d="M407.7,279.5l3.8-7.8l6.2,7.6l-3.8,7.8L407.7,279.5z M416,289.6l3.8-7.8l0,0l0.3,0.4
						c0.7,0.9,1.4,1.7,2.1,2.5l-3.8,7.9L416,289.6"/>
					<path class="st8" d="M531.5,176.5l3.8-7.8c2.7,1,5.3,2.7,7.4,5l-3.8,7.7C536.8,179.3,534.3,177.5,531.5,176.5z M541.1,183.7
						l3.7-7.6c0.8,1.1,1.5,2.2,2.1,3.4l-3.6,7.4v-0.1C542.7,185.8,541.9,184.7,541.1,183.7"/>
				</g>
				<rect x="580.2" y="130.5" class="st4" width="11.8" height="135.5"/>
				<rect x="368.4" y="201.1" class="st4" width="11.8" height="135.5"/>
			</g>
		</g>
	</g>
	<g>
		
			<image style="overflow:visible;opacity:0.4;" width="1084" height="1584" xlink:href="6DF96D671982F15D.png"  transform="matrix(0.24 0 0 0.24 420.0167 35.5998)">
		</image>
		<g>
			<g>
				<g id="Layer_2_19_">
					<g id="svg2_18_">
						<g id="wild_18_">
							<path id="rect2987-8-5-81-2-4_21_" class="st0" d="M473,45.6h160c22.1,0,40,17.9,40,40v280c0,22.1-17.9,40-40,40H473
								c-22.1,0-40-17.9-40-40v-280C433,63.5,450.9,45.6,473,45.6z"/>
							<path id="rect3757-26-33-5-9-0_21_" class="st1" d="M473,65.6h160c11,0,20,9,20,20v280c0,11-9,20-20,20H473c-11,0-20-9-20-20
								v-280C453,74.6,462,65.6,473,65.6z"/>
							<path id="path3773-0-4-8-4-60-3-86-5-7_21_" class="st2" d="M613,125.6c-88.4,0-160,71.6-160,160c0,22.1,17.9,40,40,40
								c88.4,0,160-71.6,160-160C653,143.5,635.1,125.6,613,125.6z"/>
							<path id="path3773-0-4-8-8-7-9-0-03-8-0_21_" class="st3" d="M613,125.6c-88.3,0.1-159.9,71.7-160,160c0,22.1,17.9,40,40,40
								c65.2,0,123.8-39.6,148.2-100c7.8-19.1,11.7-39.4,11.8-60C653,143.5,635.1,125.6,613,125.6z"/>
						</g>
					</g>
				</g>
				<g id="surface1_18_">
					<path class="st4" d="M592.5,185.7L592.5,185.7c0.3,1.3,0.7,2.5,1.3,3.7c0.7,1.3,1.5,2.6,2.5,3.8c1.4,1.7,3,3.2,4.7,4.3
						c1.5,1,3.2,1.6,4.8,1.9c2,0.1,3.8-0.1,5.1-0.6c1.1-0.4,1.9-1,2.3-1.7c0.3-0.5,0.3-1.2,0.2-2.1c-0.2-1.2-0.9-2.7-1.9-4.4
						c-0.3-0.5-0.5-0.9-0.8-1.3c-0.3-0.4-0.6-0.8-0.9-1.2c-1.7-2.1-3.8-3.9-5.9-5c-1.9-1-3.8-1.5-5.8-1.4s-3.6,0.6-4.6,1.5
						c-0.7,0.5-1,1.3-1,2.3V185.7z M581.6,156.6c8.1-6.6,17.6-9,26.8-7.8c9.5,1.2,18.6,6.3,25.3,14.4c3.7,4.5,6.4,9.7,7.9,15
						s1.8,10.8,0.9,16.2c0,0.2-0.1,0.6-0.2,1.1s-0.1,0.8-0.2,1.1c-1.7,7.5-4,13.2-6.8,17.8s-6,8-9.4,10.8
						c-8.3,6.8-17.9,9.2-27.2,8.1c-9.7-1.2-18.9-6.3-25.6-14.4c-3.6-4.4-6.3-9.2-7.8-14.2c-1.6-5.1-2-10.3-1.3-15.6
						c0.5-3.9,1.9-8.7,4-13.6c1.9-4.3,4.5-8.7,7.7-12.8l0,0c0.8-1.1,1.7-2.1,2.7-3.1C579.4,158.5,580.5,157.5,581.6,156.6"/>
					<path class="st4" d="M544,188.6l13.8-11.3c1.2-1,3.1-0.8,4.1,0.4c0.1,0.1,0.1,0.1,0.2,0.2l43.2,52.5c0.3,0.3,0.5,0.6,0.7,1
						c0.4,0.8,0.3,1.7,0,2.5l-4.9,9.9c-0.2,0.4-0.5,0.8-0.8,1l-11.4,9.3c-0.7,0.6-1.7,0.8-2.6,0.6l0,0l-18.1-4.7l5.3,6.5
						c0.4,0.3,0.7,0.8,0.9,1.3c0.2,0.8,0.2,1.5-0.2,2.2l-4.9,9.9c-0.2,0.4-0.5,0.7-0.8,1l0,0l-13.9,11.4c-1.2,1-3.1,0.8-4.1-0.4
						l-43.6-53.1c-0.8-1-0.9-2.3-0.2-3.4l4.7-9.7c0.2-0.4,0.5-0.8,0.8-1l12.2-9.9c0.7-0.6,1.7-0.8,2.6-0.6l0,0l16.6,4.2l-4.8-5.8
						c-0.7-0.9-0.8-2.1-0.4-3.1l4.8-9.9C543.4,189.2,543.7,188.9,544,188.6L544,188.6"/>
					<path class="st4" d="M524,306.8c-6,2.8-11.9,3.4-17.5,2.2c-7.6-1.6-14.6-6.5-20.7-14l-24.1-29.3c-0.8-1-0.9-2.3-0.2-3.4
						l4.7-9.7c0.2-0.4,0.5-0.7,0.8-1l0,0l13.9-11.4c1.2-1,3.1-0.8,4.1,0.4l24.6,29.9c1.4,1.8,3.1,3.2,5,4c1.4,0.6,3,0.7,4.6,0.2
						c0.3-0.1,0.7-0.2,1-0.4c-0.2-0.6-0.5-1.2-0.8-1.8c-0.5-0.9-1.1-1.8-1.8-2.6L493,240.2c-0.8-1-0.9-2.3-0.2-3.4l4.6-9.4
						c0.2-0.5,0.5-1,0.9-1.3l13.9-11.4c1.2-1,3.1-0.8,4.1,0.4l24.4,29.7c3.8,4.6,6.4,9.2,8,13.9c1.6,4.8,1.9,9.5,1.1,14.2
						c-0.7,3.7-2.9,8.1-5.2,12.5c-0.5,1-1,2-1.4,2.8v0.1c-0.8,1.8-1.8,3.5-3,5.2C536,299.2,530.4,303.9,524,306.8"/>
					<path class="st5" d="M545.8,190.9l13.8-11.3l43.6,53l0,0l-4.9,9.9l-11.5,9.3l-26.8-7l11.3,13.8l0,0h0.1l-4.9,9.9l-13.9,11.4
						l-43.5-53l4.8-9.9l12.2-9.9l25.2,6.4L541,200.8L545.8,190.9"/>
					<path class="st5" d="M583.4,158.8c15.2-12.5,35.8-8.5,47.9,6.2c7,8.5,9.9,19.1,8.1,29c-0.1,0.6-0.2,1.2-0.3,1.9
						c-3.2,14.3-8.9,21.8-15.2,26.9c-15.7,12.9-36.6,8.8-48.6-5.9c-6.9-8.3-9.7-17.9-8.5-27.6c0.9-6.9,4.7-16.7,11.1-24.9l0,0
						C579.5,162.5,581.3,160.6,583.4,158.8z M589.6,186.1c0-0.1,0-0.2,0-0.3c-0.1-4.2,3.2-6.5,8.4-6.9s10.4,2.8,14.2,7.4
						c0.8,0.9,1.4,1.9,2,2.9c2.4,4,3,7.1,1.8,9.4c-1.4,2.7-5.2,4.2-10.3,3.8c-4.3-0.7-8.4-3.4-11.5-7.2
						C591.8,192.4,590.2,189.3,589.6,186.1"/>
					<path class="st5" d="M567.7,217.6l-21.9-26.7l13.8-11.3l43.6,53l-11.5,9.3l-43.3-11.3l23,28L557.5,270L514,217l12.2-9.9
						L567.7,217.6"/>
					<path class="st6" d="M573.8,221.4L549,191.2l10.4-8.5l40.8,49.6l-8.9,7.2l-48.8-12.8l25.9,31.6l-10.5,8.6l-40.7-49.6l9.6-7.8
						L573.8,221.4"/>
					<path class="st7" d="M566.2,258.1l-8.1,6.7l-38.8-47.2l7.8-6.3l50.8,12.9l-26.8-32.7l8-6.6l38.8,47.2l-7,5.7L538.2,224
						L566.2,258.1"/>
					<path class="st5" d="M583.4,158.8c15.2-12.5,35.8-8.5,47.9,6.2s11.9,35.7-3.3,48.2c-15.2,12.4-35.8,8.5-47.9-6.2
						C568.1,192.3,568.2,171.3,583.4,158.8z M594.5,172.3c-7.7,6.3-6.2,15.8-0.4,22.8c5.8,7,14.8,10.4,22.5,4.1
						c7.7-6.3,6.1-15.8,0.4-22.8C611.1,169.3,602.1,166,594.5,172.3"/>
					<path class="st6" d="M584.8,160.6c14.2-11.7,33.4-7.9,44.8,5.9c11.3,13.7,11.2,33.4-3,45c-14.2,11.7-33.5,7.9-44.8-5.9
						C570.6,191.8,570.6,172.2,584.8,160.6z M593,170.6c-8.6,7.1-7.2,18-0.7,26c6.6,8,16.9,11.5,25.6,4.4c8.7-7.1,7.2-18,0.7-25.9
						C612.1,167,601.7,163.5,593,170.6"/>
					<path class="st7" d="M592.1,169.4c9-7.4,20.3-4.4,27.7,4.6c7.4,9,8.2,20.7-0.9,28.1c-9,7.4-20.4,4.4-27.8-4.6
						C583.7,188.5,583.1,176.8,592.1,169.4z M585.8,161.7c13.3-10.9,31.6-7.7,42.6,5.7c11,13.4,10.5,32-2.7,42.9
						c-13.3,10.9-31.6,7.7-42.6-5.7S572.5,172.7,585.8,161.7"/>
					<path class="st5" d="M521.4,304.8c-12.3,5-23.9,0-33.3-11.5L464,264l4.8-9.9l14-11.5l24.5,30c3.2,3.9,7.6,6.7,12.7,5.1
						c1.5-0.4,3.4-1.2,3.2-3.3c-0.6-2.2-1.8-4.3-3.3-6.1l-24.6-29.9l4.8-9.9l0,0l0,0l0,0l0,0L514,217l24.4,29.7
						c7,8.6,10,17.3,8.4,25.8c-0.7,4-3.8,9.5-6.3,14.5l0,0C536.9,295,529.4,301.5,521.4,304.8"/>
					<path class="st5" d="M538.6,286.5l0.1,0.2l-2.9,2.4c-0.1,0.1-0.2,0.1-0.2,0.2c-0.1,0.1-0.2,0.2-0.3,0.2l-2.9,2.4l-0.1-0.2
						c-14.6,9.7-28.4,5-39.3-8.3l-24.1-29.3l13.9-11.5l24.5,30c3.2,3.9,7.6,6.7,12.7,5.1c1.5-0.5,2.9-1.3,4.2-2.3s2.3-2.3,3.1-3.7
						c2.5-4.7,0.5-9.6-2.6-13.4l-24.6-29.9L514,217l24.4,29.7C549.4,260.1,551,274.1,538.6,286.5"/>
					<path class="st6" d="M535.5,286.3L535.5,286.3l-1.2,1c-0.1,0.1-0.2,0.1-0.2,0.2c-0.1,0.1-0.2,0.1-0.3,0.2l-1.2,1l0,0
						c-14.1,10.4-27.3,6.4-38-6.7L472,254.4l10.5-8.6l23.2,28.2c3.8,4.6,9,7.6,15.1,5.9c1.8-0.5,3.5-1.5,5-2.7
						c1.5-1.2,2.8-2.7,3.6-4.4c2.9-5.5,0.9-11.3-2.9-15.8l-23.2-28.2l10.5-8.6l22.9,27.9C547.5,261.3,548.6,274.5,535.5,286.3"/>
					<path class="st7" d="M474.1,254.6l8.1-6.6l22.2,27c7.3,8.9,16.2,8.2,22.2,3.4c5.9-4.9,8.4-13.5,1-22.4l-22.2-27l8.1-6.6
						l22,26.8c8.8,10.7,13.4,24-2.1,37.1l0,0c-0.1,0.1-0.2,0.1-0.2,0.2c-0.1,0.1-0.2,0.1-0.3,0.2l0,0c-15.4,12.3-28.1,5.4-37.1-5.6
						L474.1,254.6"/>
					<path class="st8" d="M543.6,200.4l3.8-7.8l6.2,7.6l-3.8,7.8L543.6,200.4z M551.8,210.5l3.8-7.8l2.3,2.9l-3.8,7.8L551.8,210.5"
						/>
					<path class="st8" d="M497.8,238l3.8-7.8l6.2,7.6l-3.8,7.8L497.8,238z M506.1,248.1l3.8-7.8l2.3,2.9l-3.8,7.8L506.1,248.1"/>
					<path class="st8" d="M480.5,280.7l3.8-7.8l6.2,7.6l-3.8,7.8L480.5,280.7z M488.8,290.8l3.8-7.8l0,0l0.3,0.4
						c0.7,0.9,1.4,1.7,2.1,2.5l-3.8,7.9L488.8,290.8"/>
					<path class="st8" d="M604.3,177.7l3.8-7.8c2.7,1,5.3,2.7,7.4,5l-3.8,7.7C609.6,180.5,607.1,178.7,604.3,177.7z M613.9,184.9
						l3.7-7.6c0.8,1.1,1.5,2.2,2.1,3.4l-3.6,7.4V188C615.5,187,614.7,185.9,613.9,184.9"/>
				</g>
				<rect x="653" y="131.7" class="st4" width="11.8" height="135.5"/>
				<rect x="441.2" y="202.3" class="st4" width="11.8" height="135.5"/>
			</g>
		</g>
	</g>
	<g>
		
			<image style="overflow:visible;opacity:0.4;" width="1084" height="1584" xlink:href="6DF96D671982F15F.png"  transform="matrix(0.24 0 0 0.24 491.0454 34.8394)">
		</image>
		<g>
			<g>
				<g id="Layer_2_21_">
					<g id="svg2_20_">
						<g id="wild_20_">
							<path id="rect2987-8-5-81-2-4_23_" class="st0" d="M544.1,44.9h160c22.1,0,40,17.9,40,40v280c0,22.1-17.9,40-40,40h-160
								c-22.1,0-40-17.9-40-40v-280C504.1,62.8,522,44.9,544.1,44.9z"/>
							<path id="rect3757-26-33-5-9-0_23_" class="st1" d="M544.1,64.9h160c11,0,20,9,20,20v280c0,11-9,20-20,20h-160
								c-11,0-20-9-20-20v-280C524.1,73.9,533.1,64.9,544.1,64.9z"/>
							<path id="path3773-0-4-8-4-60-3-86-5-7_23_" class="st2" d="M684.1,124.9c-88.4,0-160,71.6-160,160c0,22.1,17.9,40,40,40
								c88.4,0,160-71.6,160-160C724.1,142.8,706.2,124.9,684.1,124.9z"/>
							<path id="path3773-0-4-8-8-7-9-0-03-8-0_23_" class="st3" d="M684.1,124.9c-88.3,0.1-159.9,71.7-160,160
								c0,22.1,17.9,40,40,40c65.2,0,123.8-39.6,148.2-100c7.8-19.1,11.7-39.4,11.8-60C724.1,142.8,706.2,124.9,684.1,124.9z"/>
						</g>
					</g>
				</g>
				<g id="surface1_20_">
					<path class="st4" d="M663.6,185L663.6,185c0.3,1.3,0.7,2.5,1.3,3.7c0.7,1.3,1.5,2.6,2.5,3.8c1.4,1.7,3,3.2,4.7,4.3
						c1.5,1,3.2,1.6,4.8,1.9c2,0.1,3.8-0.1,5.1-0.6c1.1-0.4,1.9-1,2.3-1.7c0.3-0.5,0.3-1.2,0.2-2.1c-0.2-1.2-0.9-2.7-1.9-4.4
						c-0.3-0.5-0.5-0.9-0.8-1.3c-0.3-0.4-0.6-0.8-0.9-1.2c-1.7-2.1-3.8-3.9-5.9-5c-1.9-1-3.8-1.5-5.8-1.4s-3.6,0.6-4.6,1.5
						c-0.7,0.5-1,1.3-1,2.3L663.6,185z M652.7,155.9c8.1-6.6,17.6-9,26.8-7.8c9.5,1.2,18.6,6.3,25.3,14.4c3.7,4.5,6.4,9.7,7.9,15
						s1.8,10.8,0.9,16.2c0,0.2-0.1,0.6-0.2,1.1c-0.1,0.5-0.1,0.8-0.2,1.1c-1.7,7.5-4,13.2-6.8,17.8c-2.8,4.6-6,8-9.4,10.8
						c-8.3,6.8-17.9,9.2-27.2,8.1c-9.7-1.2-18.9-6.3-25.6-14.4c-3.6-4.4-6.3-9.2-7.8-14.2c-1.6-5.1-2-10.3-1.3-15.6
						c0.5-3.9,1.9-8.7,4-13.6c1.9-4.3,4.5-8.7,7.7-12.8l0,0c0.8-1.1,1.7-2.1,2.7-3.1C650.5,157.8,651.6,156.8,652.7,155.9"/>
					<path class="st4" d="M615.1,187.9l13.8-11.3c1.2-1,3.1-0.8,4.1,0.4c0.1,0.1,0.1,0.1,0.2,0.2l43.2,52.5c0.3,0.3,0.5,0.6,0.7,1
						c0.4,0.8,0.3,1.7,0,2.5l-4.9,9.9c-0.2,0.4-0.5,0.8-0.8,1l-11.4,9.3c-0.7,0.6-1.7,0.8-2.6,0.6l0,0l-18.1-4.7l5.3,6.5
						c0.4,0.3,0.7,0.8,0.9,1.3c0.2,0.8,0.2,1.5-0.2,2.2l-4.9,9.9c-0.2,0.4-0.5,0.7-0.8,1l0,0l-13.9,11.4c-1.2,1-3.1,0.8-4.1-0.4
						L578,228.1c-0.8-1-0.9-2.3-0.2-3.4l4.7-9.7c0.2-0.4,0.5-0.8,0.8-1l12.2-9.9c0.7-0.6,1.7-0.8,2.6-0.6l0,0l16.6,4.2l-4.8-5.8
						c-0.7-0.9-0.8-2.1-0.4-3.1l4.8-9.9C614.5,188.5,614.8,188.2,615.1,187.9L615.1,187.9"/>
					<path class="st4" d="M595.1,306.1c-6,2.8-11.9,3.4-17.5,2.2c-7.6-1.6-14.6-6.5-20.7-14L532.8,265c-0.8-1-0.9-2.3-0.2-3.4
						l4.7-9.7c0.2-0.4,0.5-0.7,0.8-1l0,0l13.9-11.4c1.2-1,3.1-0.8,4.1,0.4l24.6,29.9c1.4,1.8,3.1,3.2,5,4c1.4,0.6,3,0.7,4.6,0.2
						c0.3-0.1,0.7-0.2,1-0.4c-0.2-0.6-0.5-1.2-0.8-1.8c-0.5-0.9-1.1-1.8-1.8-2.6l-24.6-29.7c-0.8-1-0.9-2.3-0.2-3.4l4.6-9.4
						c0.2-0.5,0.5-1,0.9-1.3l13.9-11.4c1.2-1,3.1-0.8,4.1,0.4l24.4,29.7c3.8,4.6,6.4,9.2,8,13.9c1.6,4.8,1.9,9.5,1.1,14.2
						c-0.7,3.7-2.9,8.1-5.2,12.5c-0.5,1-1,2-1.4,2.8v0.1c-0.8,1.8-1.8,3.5-3,5.2C607.1,298.5,601.5,303.2,595.1,306.1"/>
					<path class="st5" d="M616.9,190.2l13.8-11.3l43.6,53l0,0l-4.9,9.9l-11.5,9.3l-26.8-7l11.3,13.8l0,0h0.1l-4.9,9.9l-13.9,11.4
						l-43.5-53l4.8-9.9l12.2-9.9l25.2,6.4l-10.3-12.7L616.9,190.2"/>
					<path class="st5" d="M654.5,158.1c15.2-12.5,35.8-8.5,47.9,6.2c7,8.5,9.9,19.1,8.1,29c-0.1,0.6-0.2,1.2-0.3,1.9
						c-3.2,14.3-8.9,21.8-15.2,26.9c-15.7,12.9-36.6,8.8-48.6-5.9c-6.9-8.3-9.7-17.9-8.5-27.6c0.9-6.9,4.7-16.7,11.1-24.9l0,0
						C650.6,161.8,652.4,159.9,654.5,158.1z M660.7,185.4c0-0.1,0-0.2,0-0.3c-0.1-4.2,3.2-6.5,8.4-6.9c5.2-0.4,10.4,2.8,14.2,7.4
						c0.8,0.9,1.4,1.9,2,2.9c2.4,4,3,7.1,1.8,9.4c-1.4,2.7-5.2,4.2-10.3,3.8c-4.3-0.7-8.4-3.4-11.5-7.2
						C662.9,191.7,661.3,188.6,660.7,185.4"/>
					<path class="st5" d="M638.8,216.9l-21.9-26.7l13.8-11.3l43.6,53l-11.5,9.3l-43.3-11.3l23,28l-13.9,11.4l-43.5-53l12.2-9.9
						L638.8,216.9"/>
					<path class="st6" d="M644.9,220.7l-24.8-30.2l10.4-8.5l40.8,49.6l-8.9,7.2L613.6,226l25.9,31.6l-10.5,8.6l-40.7-49.6l9.6-7.8
						L644.9,220.7"/>
					<path class="st7" d="M637.3,257.4l-8.1,6.7l-38.8-47.2l7.8-6.3l50.8,12.9l-26.8-32.7l8-6.6l38.8,47.2l-7,5.7l-52.7-13.8
						L637.3,257.4"/>
					<path class="st5" d="M654.5,158.1c15.2-12.5,35.8-8.5,47.9,6.2c12.1,14.7,11.9,35.7-3.3,48.2c-15.2,12.4-35.8,8.5-47.9-6.2
						C639.2,191.6,639.3,170.6,654.5,158.1z M665.6,171.6c-7.7,6.3-6.2,15.8-0.4,22.8s14.8,10.4,22.5,4.1c7.7-6.3,6.1-15.8,0.4-22.8
						C682.2,168.6,673.2,165.3,665.6,171.6"/>
					<path class="st6" d="M655.9,159.9c14.2-11.7,33.4-7.9,44.8,5.9c11.3,13.7,11.2,33.4-3,45c-14.2,11.7-33.5,7.9-44.8-5.9
						C641.7,191.1,641.7,171.5,655.9,159.9z M664.1,169.9c-8.6,7.1-7.2,18-0.7,26c6.6,8,16.9,11.5,25.6,4.4s7.2-18,0.7-25.9
						C683.2,166.3,672.8,162.8,664.1,169.9"/>
					<path class="st7" d="M663.2,168.7c9-7.4,20.3-4.4,27.7,4.6c7.4,9,8.2,20.7-0.9,28.1c-9,7.4-20.4,4.4-27.8-4.6
						C654.8,187.8,654.2,176.1,663.2,168.7z M656.9,161c13.3-10.9,31.6-7.7,42.6,5.7s10.5,32-2.7,42.9c-13.3,10.9-31.6,7.7-42.6-5.7
						S643.6,172,656.9,161"/>
					<path class="st5" d="M592.5,304.1c-12.3,5-23.9,0-33.3-11.5l-24.1-29.3l4.8-9.9l14-11.5l24.5,30c3.2,3.9,7.6,6.7,12.7,5.1
						c1.5-0.4,3.4-1.2,3.2-3.3c-0.6-2.2-1.8-4.3-3.3-6.1l-24.6-29.9l4.8-9.9l0,0l0,0l0,0l0,0l13.9-11.5l24.4,29.7
						c7,8.6,10,17.3,8.4,25.8c-0.7,4-3.8,9.5-6.3,14.5l0,0C608,294.3,600.5,300.8,592.5,304.1"/>
					<path class="st5" d="M609.7,285.8l0.1,0.2l-2.9,2.4c-0.1,0.1-0.2,0.1-0.2,0.2c-0.1,0.1-0.2,0.2-0.3,0.2l-2.9,2.4l-0.1-0.2
						c-14.6,9.7-28.4,5-39.3-8.3L540,253.4l13.9-11.5l24.5,30c3.2,3.9,7.6,6.7,12.7,5.1c1.5-0.5,2.9-1.3,4.2-2.3s2.3-2.3,3.1-3.7
						c2.5-4.7,0.5-9.6-2.6-13.4l-24.6-29.9l13.9-11.4l24.4,29.7C620.5,259.4,622.1,273.4,609.7,285.8"/>
					<path class="st6" d="M606.6,285.6L606.6,285.6l-1.2,1c-0.1,0.1-0.2,0.1-0.2,0.2c-0.1,0.1-0.2,0.1-0.3,0.2l-1.2,1l0,0
						c-14.1,10.4-27.3,6.4-38-6.7l-22.6-27.6l10.5-8.6l23.2,28.2c3.8,4.6,9,7.6,15.1,5.9c1.8-0.5,3.5-1.5,5-2.7
						c1.5-1.2,2.8-2.7,3.6-4.4c2.9-5.5,0.9-11.3-2.9-15.8l-23.2-28.2l10.5-8.6l22.9,27.9C618.6,260.6,619.7,273.8,606.6,285.6"/>
					<path class="st7" d="M545.2,253.9l8.1-6.6l22.2,27c7.3,8.9,16.2,8.2,22.2,3.4c5.9-4.9,8.4-13.5,1-22.4l-22.2-27l8.1-6.6
						l22,26.8c8.8,10.7,13.4,24-2.1,37.1l0,0c-0.1,0.1-0.2,0.1-0.2,0.2c-0.1,0.1-0.2,0.1-0.3,0.2l0,0c-15.4,12.3-28.1,5.4-37.1-5.6
						L545.2,253.9"/>
					<path class="st8" d="M614.7,199.7l3.8-7.8l6.2,7.6l-3.8,7.8L614.7,199.7z M622.9,209.8l3.8-7.8l2.3,2.9l-3.8,7.8L622.9,209.8"
						/>
					<path class="st8" d="M568.9,237.3l3.8-7.8l6.2,7.6l-3.8,7.8L568.9,237.3z M577.2,247.4l3.8-7.8l2.3,2.9l-3.8,7.8L577.2,247.4"
						/>
					<path class="st8" d="M551.6,280l3.8-7.8l6.2,7.6l-3.8,7.8L551.6,280z M559.9,290.1l3.8-7.8l0,0l0.3,0.4
						c0.7,0.9,1.4,1.7,2.1,2.5l-3.8,7.9L559.9,290.1"/>
					<path class="st8" d="M675.4,177l3.8-7.8c2.7,1,5.3,2.7,7.4,5l-3.8,7.7C680.7,179.8,678.2,178,675.4,177z M685,184.2l3.7-7.6
						c0.8,1.1,1.5,2.2,2.1,3.4l-3.6,7.4v-0.1C686.6,186.3,685.8,185.2,685,184.2"/>
				</g>
				<rect x="724.1" y="131" class="st4" width="11.8" height="135.5"/>
				<rect x="512.3" y="201.6" class="st4" width="11.8" height="135.5"/>
			</g>
		</g>
	</g>
</g>
</svg>
