<?xml version="1.0" encoding="utf-8"?>
<!-- Generator: Adobe Illustrator 25.2.1, SVG Export Plug-In . SVG Version: 6.00 Build 0)  -->
<svg version="1.1" id="Layer_1" xmlns="http://www.w3.org/2000/svg" xmlns:xlink="http://www.w3.org/1999/xlink" x="0px" y="0px"
	 viewBox="0 0 400 800" style="enable-background:new 0 0 400 800;" xml:space="preserve">
<style type="text/css">
	.st0{fill:#FFFFFF;stroke:#010101;stroke-width:2;}
	.st1{fill:#010101;}
	.st2{fill-rule:evenodd;clip-rule:evenodd;fill:#EC2227;stroke:#EC2227;}
	.st3{fill:none;stroke:#EC2227;stroke-width:4;}
	.st4{fill:#FFFFFF;}
	.st5{fill-rule:evenodd;clip-rule:evenodd;fill:#010101;}
	.st6{fill-rule:evenodd;clip-rule:evenodd;fill:#FFFFFF;}
	.st7{fill-rule:evenodd;clip-rule:evenodd;fill:#F8DA27;}
	.st8{fill-rule:evenodd;clip-rule:evenodd;fill:#59595B;}
</style>
<g>
	<g>
		<g id="Layer_2_1_">
			<g id="svg2">
				<g id="wild">
					<path id="rect2987-8-5-81-2-4" class="st0" d="M381.8,104.3l0,160c0,22.1-17.9,40-40,40l-280,0c-22.1,0-40-17.9-40-40l0-160
						c0-22.1,17.9-40,40-40l280,0C363.9,64.3,381.8,82.2,381.8,104.3z"/>
					<path id="rect3757-26-33-5-9-0" class="st1" d="M361.8,104.3l0,160c0,11-9,20-20,20l-280,0c-11,0-20-9-20-20l0-160
						c0-11,9-20,20-20l280,0C352.8,84.3,361.8,93.3,361.8,104.3z"/>
					<path id="path3773-0-4-8-4-60-3-86-5-7" class="st2" d="M301.8,244.3c0-88.4-71.6-160-160-160c-22.1,0-40,17.9-40,40
						c0,88.4,71.6,160,160,160C283.9,284.3,301.8,266.4,301.8,244.3z"/>
					<path id="path3773-0-4-8-8-7-9-0-03-8-0" class="st3" d="M301.8,244.3c-0.1-88.3-71.7-159.9-160-160c-22.1,0-40,17.9-40,40
						c0,65.2,39.6,123.8,100,148.2c19.1,7.8,39.4,11.7,60,11.8C283.9,284.3,301.8,266.4,301.8,244.3z"/>
				</g>
			</g>
		</g>
		<g id="surface1">
			<path class="st4" d="M241.7,223.8L241.7,223.8c-1.3,0.3-2.5,0.7-3.7,1.3c-1.3,0.7-2.6,1.5-3.8,2.5c-1.7,1.4-3.2,3-4.3,4.7
				c-1,1.5-1.6,3.2-1.9,4.8c-0.1,2,0.1,3.8,0.6,5.1c0.4,1.1,1,1.9,1.7,2.3c0.5,0.3,1.2,0.3,2.1,0.2c1.2-0.2,2.7-0.9,4.4-1.9
				c0.5-0.3,0.9-0.5,1.3-0.8c0.4-0.3,0.8-0.6,1.2-0.9c2.1-1.7,3.9-3.8,5-5.9c1-1.9,1.5-3.8,1.4-5.8s-0.6-3.6-1.5-4.6
				c-0.5-0.7-1.3-1-2.3-1L241.7,223.8z M270.8,212.9c6.6,8.1,9,17.6,7.8,26.8c-1.2,9.5-6.3,18.6-14.4,25.3c-4.5,3.7-9.7,6.4-15,7.9
				s-10.8,1.8-16.2,0.9c-0.2,0-0.6-0.1-1.1-0.2c-0.5-0.1-0.8-0.1-1.1-0.2c-7.5-1.7-13.2-4-17.8-6.8c-4.6-2.8-8-6-10.8-9.4
				c-6.8-8.3-9.2-17.9-8.1-27.2c1.2-9.7,6.3-18.9,14.4-25.6c4.4-3.6,9.2-6.3,14.2-7.8c5.1-1.6,10.3-2,15.6-1.3
				c3.9,0.5,8.7,1.9,13.6,4c4.3,1.9,8.7,4.5,12.8,7.7l0,0c1.1,0.8,2.1,1.7,3.1,2.7C268.9,210.7,269.9,211.8,270.8,212.9"/>
			<path class="st4" d="M238.8,175.3l11.3,13.8c1,1.2,0.8,3.1-0.4,4.1c-0.1,0.1-0.1,0.1-0.2,0.2L197,236.6c-0.3,0.3-0.6,0.5-1,0.7
				c-0.8,0.4-1.7,0.3-2.5,0l-9.9-4.9c-0.4-0.2-0.8-0.5-1-0.8l-9.3-11.4c-0.6-0.7-0.8-1.7-0.6-2.6l0,0l4.7-18.1l-6.5,5.3
				c-0.3,0.4-0.8,0.7-1.3,0.9c-0.8,0.2-1.5,0.2-2.2-0.2l-9.9-4.9c-0.4-0.2-0.7-0.5-1-0.8l0,0l-11.4-13.9c-1-1.2-0.8-3.1,0.4-4.1
				l53.1-43.6c1-0.8,2.3-0.9,3.4-0.2l9.7,4.7c0.4,0.2,0.8,0.5,1,0.8l9.9,12.2c0.6,0.7,0.8,1.7,0.6,2.6l0,0l-4.2,16.6l5.8-4.8
				c0.9-0.7,2.1-0.8,3.1-0.4l9.9,4.8C238.2,174.7,238.5,175,238.8,175.3L238.8,175.3"/>
			<path class="st4" d="M120.6,155.3c-2.8-6-3.4-11.9-2.2-17.5c1.6-7.6,6.5-14.6,14-20.7L161.7,93c1-0.8,2.3-0.9,3.4-0.2l9.7,4.7
				c0.4,0.2,0.7,0.5,1,0.8l0,0l11.4,13.9c1,1.2,0.8,3.1-0.4,4.1l-29.9,24.6c-1.8,1.4-3.2,3.1-4,5c-0.6,1.4-0.7,3-0.2,4.6
				c0.1,0.3,0.2,0.7,0.4,1c0.6-0.2,1.2-0.5,1.8-0.8c0.9-0.5,1.8-1.1,2.6-1.8l29.7-24.6c1-0.8,2.3-0.9,3.4-0.2l9.4,4.6
				c0.5,0.2,1,0.5,1.3,0.9l11.4,13.9c1,1.2,0.8,3.1-0.4,4.1L182.6,172c-4.6,3.8-9.2,6.4-13.9,8c-4.8,1.6-9.5,1.9-14.2,1.1
				c-3.7-0.7-8.1-2.9-12.5-5.2c-1-0.5-2-1-2.8-1.4h-0.1c-1.8-0.8-3.5-1.8-5.2-3C128.2,167.3,123.5,161.7,120.6,155.3"/>
			<path class="st5" d="M236.5,177.1l11.3,13.8l-53,43.6l0,0l-9.9-4.9l-9.3-11.5l7-26.8l-13.8,11.3l0,0v0.1l-9.9-4.9l-11.4-13.9
				l53-43.5l9.9,4.8l9.9,12.2l-6.4,25.2l12.7-10.3L236.5,177.1"/>
			<path class="st5" d="M268.6,214.7c12.5,15.2,8.5,35.8-6.2,47.9c-8.5,7-19.1,9.9-29,8.1c-0.6-0.1-1.2-0.2-1.9-0.3
				c-14.3-3.2-21.8-8.9-26.9-15.2c-12.9-15.7-8.8-36.6,5.9-48.6c8.3-6.9,17.9-9.7,27.6-8.5c6.9,0.9,16.7,4.7,24.9,11.1l0,0
				C264.9,210.8,266.8,212.6,268.6,214.7z M241.3,220.9c0.1,0,0.2,0,0.3,0c4.2-0.1,6.5,3.2,6.9,8.4c0.4,5.2-2.8,10.4-7.4,14.2
				c-0.9,0.8-1.9,1.4-2.9,2c-4,2.4-7.1,3-9.4,1.8c-2.7-1.4-4.2-5.2-3.8-10.3c0.7-4.3,3.4-8.4,7.2-11.5
				C235,223.1,238.1,221.5,241.3,220.9"/>
			<path class="st5" d="M209.8,199l26.7-21.9l11.3,13.8l-53,43.6l-9.3-11.5l11.3-43.3l-28,23l-11.4-13.9l53-43.5l9.9,12.2L209.8,199
				"/>
			<path class="st6" d="M206,205.1l30.2-24.8l8.5,10.4l-49.6,40.8l-7.2-8.9l12.8-48.8l-31.6,25.9l-8.6-10.5l49.6-40.7l7.8,9.6
				L206,205.1"/>
			<path class="st7" d="M169.3,197.5l-6.7-8.1l47.2-38.8l6.3,7.8l-12.9,50.8l32.7-26.8l6.6,8l-47.2,38.8l-5.7-7l13.8-52.7
				L169.3,197.5"/>
			<path class="st5" d="M268.6,214.7c12.5,15.2,8.5,35.8-6.2,47.9c-14.7,12.1-35.7,11.9-48.2-3.3c-12.4-15.2-8.5-35.8,6.2-47.9
				C235.1,199.4,256.1,199.5,268.6,214.7z M255.1,225.8c-6.3-7.7-15.8-6.2-22.8-0.4s-10.4,14.8-4.1,22.5s15.8,6.1,22.8,0.4
				C258.1,242.4,261.4,233.4,255.1,225.8"/>
			<path class="st6" d="M266.8,216.1c11.7,14.2,7.9,33.4-5.9,44.8c-13.7,11.3-33.4,11.2-45-3c-11.7-14.2-7.9-33.5,5.9-44.8
				C235.6,201.9,255.2,201.9,266.8,216.1z M256.8,224.3c-7.1-8.6-18-7.2-26-0.7c-8,6.6-11.5,16.9-4.4,25.6c7.1,8.7,18,7.2,25.9,0.7
				C260.4,243.4,263.9,233,256.8,224.3"/>
			<path class="st7" d="M258,223.4c7.4,9,4.4,20.3-4.6,27.7c-9,7.4-20.7,8.2-28.1-0.9c-7.4-9-4.4-20.4,4.6-27.8
				C238.9,215,250.6,214.4,258,223.4z M265.7,217.1c10.9,13.3,7.7,31.6-5.7,42.6c-13.4,11-32,10.5-42.9-2.7
				c-10.9-13.3-7.7-31.6,5.7-42.6C236.2,203.4,254.7,203.8,265.7,217.1"/>
			<path class="st5" d="M122.6,152.7c-5-12.3,0-23.9,11.5-33.3l29.3-24.1l9.9,4.8l11.5,14l-30,24.5c-3.9,3.2-6.7,7.6-5.1,12.7
				c0.4,1.5,1.2,3.4,3.3,3.2c2.2-0.6,4.3-1.8,6.1-3.3l29.9-24.6l9.9,4.8l0,0l0,0l0,0l0,0l11.5,13.9l-29.7,24.4
				c-8.6,7-17.3,10-25.8,8.4c-4-0.7-9.5-3.8-14.5-6.3l0,0C132.4,168.2,125.9,160.7,122.6,152.7"/>
			<path class="st5" d="M140.9,169.9l-0.2,0.1l-2.4-2.9c-0.1-0.1-0.1-0.2-0.2-0.2c-0.1-0.1-0.2-0.2-0.2-0.3l-2.4-2.9l0.2-0.1
				c-9.7-14.6-5-28.4,8.3-39.3l29.3-24.1l11.5,13.9l-30,24.5c-3.9,3.2-6.7,7.6-5.1,12.7c0.5,1.5,1.3,2.9,2.3,4.2s2.3,2.3,3.7,3.1
				c4.7,2.5,9.6,0.5,13.4-2.6l29.9-24.6l11.4,13.9l-29.7,24.4C167.3,180.7,153.3,182.3,140.9,169.9"/>
			<path class="st6" d="M141.1,166.8L141.1,166.8l-1-1.2c-0.1-0.1-0.1-0.2-0.2-0.2c-0.1-0.1-0.1-0.2-0.2-0.3l-1-1.2l0,0
				c-10.4-14.1-6.4-27.3,6.7-38l27.6-22.6l8.6,10.5L153.4,137c-4.6,3.8-7.6,9-5.9,15.1c0.5,1.8,1.5,3.5,2.7,5s2.7,2.8,4.4,3.6
				c5.5,2.9,11.3,0.9,15.8-2.9l28.2-23.2l8.6,10.5L179.3,168C166.1,178.8,152.9,179.9,141.1,166.8"/>
			<path class="st7" d="M172.8,105.4l6.6,8.1l-27,22.2c-8.9,7.3-8.2,16.2-3.4,22.2c4.9,5.9,13.5,8.4,22.4,1l27-22.2l6.6,8.1
				l-26.8,22c-10.7,8.8-24,13.4-37.1-2.1l0,0c-0.1-0.1-0.1-0.2-0.2-0.2c-0.1-0.1-0.1-0.2-0.2-0.3l0,0c-12.3-15.4-5.4-28.1,5.6-37.1
				L172.8,105.4"/>
			<path class="st8" d="M227,174.9l7.8,3.8l-7.6,6.2l-7.8-3.8L227,174.9z M216.9,183.1l7.8,3.8l-2.9,2.3l-7.8-3.8L216.9,183.1"/>
			<path class="st8" d="M189.4,129.1l7.8,3.8l-7.6,6.2l-7.8-3.8L189.4,129.1z M179.3,137.4l7.8,3.8l-2.9,2.3l-7.8-3.8L179.3,137.4"
				/>
			<path class="st8" d="M146.7,111.8l7.8,3.8l-7.6,6.2l-7.8-3.8L146.7,111.8z M136.6,120.1l7.8,3.8l0,0l-0.4,0.3
				c-0.9,0.7-1.7,1.4-2.5,2.1l-7.9-3.8L136.6,120.1"/>
			<path class="st8" d="M249.7,235.6l7.8,3.8c-1,2.7-2.7,5.3-5,7.4l-7.7-3.8C246.9,240.9,248.7,238.4,249.7,235.6z M242.5,245.2
				l7.6,3.7c-1.1,0.8-2.2,1.5-3.4,2.1l-7.4-3.6h0.1C240.4,246.8,241.5,246,242.5,245.2"/>
		</g>
		<rect x="160.2" y="284.3" class="st4" width="135.5" height="11.8"/>
		<rect x="89.6" y="72.5" class="st4" width="135.5" height="11.8"/>
	</g>
	<g>
		
			<image style="overflow:visible;opacity:0.4;" width="1584" height="1084" xlink:href="C92100646D082555.png"  transform="matrix(0.24 0 0 0.24 8.92 127.24)">
		</image>
		<g>
			<g>
				<g id="Layer_2_16_">
					<g id="svg2_15_">
						<g id="wild_15_">
							<path id="rect2987-8-5-81-2-4_18_" class="st0" d="M382,177.2l0,160c0,22.1-17.9,40-40,40l-280,0c-22.1,0-40-17.9-40-40
								l0-160c0-22.1,17.9-40,40-40l280,0C364.1,137.2,382,155.1,382,177.2z"/>
							<path id="rect3757-26-33-5-9-0_18_" class="st1" d="M362,177.2l0,160c0,11-9,20-20,20l-280,0c-11,0-20-9-20-20l0-160
								c0-11,9-20,20-20l280,0C353,157.2,362,166.2,362,177.2z"/>
							<path id="path3773-0-4-8-4-60-3-86-5-7_18_" class="st2" d="M302,317.2c0-88.4-71.6-160-160-160c-22.1,0-40,17.9-40,40
								c0,88.4,71.6,160,160,160C284.1,357.2,302,339.3,302,317.2z"/>
							<path id="path3773-0-4-8-8-7-9-0-03-8-0_18_" class="st3" d="M302,317.2c-0.1-88.3-71.7-159.9-160-160c-22.1,0-40,17.9-40,40
								c0,65.2,39.6,123.8,100,148.2c19.1,7.8,39.4,11.7,60,11.8C284.1,357.2,302,339.3,302,317.2z"/>
						</g>
					</g>
				</g>
				<g id="surface1_15_">
					<path class="st4" d="M241.9,296.7L241.9,296.7c-1.3,0.3-2.5,0.7-3.7,1.3c-1.3,0.7-2.6,1.5-3.8,2.5c-1.7,1.4-3.2,3-4.3,4.7
						c-1,1.5-1.6,3.2-1.9,4.8c-0.1,2,0.1,3.8,0.6,5.1c0.4,1.1,1,1.9,1.7,2.3c0.5,0.3,1.2,0.3,2.1,0.2c1.2-0.2,2.7-0.9,4.4-1.9
						c0.5-0.3,0.9-0.5,1.3-0.8c0.4-0.3,0.8-0.6,1.2-0.9c2.1-1.7,3.9-3.8,5-5.9c1-1.9,1.5-3.8,1.4-5.8s-0.6-3.6-1.5-4.6
						c-0.5-0.7-1.3-1-2.3-1L241.9,296.7z M271,285.8c6.6,8.1,9,17.6,7.8,26.8c-1.2,9.5-6.3,18.6-14.4,25.3c-4.5,3.7-9.7,6.4-15,7.9
						s-10.8,1.8-16.2,0.9c-0.2,0-0.6-0.1-1.1-0.2c-0.5-0.1-0.8-0.1-1.1-0.2c-7.5-1.7-13.2-4-17.8-6.8c-4.6-2.8-8-6-10.8-9.4
						c-6.8-8.3-9.2-17.9-8.1-27.2c1.2-9.7,6.3-18.9,14.4-25.6c4.4-3.6,9.2-6.3,14.2-7.8c5.1-1.6,10.3-2,15.6-1.3
						c3.9,0.5,8.7,1.9,13.6,4c4.3,1.9,8.7,4.5,12.8,7.7l0,0c1.1,0.8,2.1,1.7,3.1,2.7C269.1,283.6,270.1,284.7,271,285.8"/>
					<path class="st4" d="M239,248.2l11.3,13.8c1,1.2,0.8,3.1-0.4,4.1c-0.1,0.1-0.1,0.1-0.2,0.2l-52.5,43.2c-0.3,0.3-0.6,0.5-1,0.7
						c-0.8,0.4-1.7,0.3-2.5,0l-9.9-4.9c-0.4-0.2-0.8-0.5-1-0.8l-9.3-11.4c-0.6-0.7-0.8-1.7-0.6-2.6l0,0l4.7-18.1l-6.5,5.3
						c-0.3,0.4-0.8,0.7-1.3,0.9c-0.8,0.2-1.5,0.2-2.2-0.2l-9.9-4.9c-0.4-0.2-0.7-0.5-1-0.8l0,0l-11.4-13.9c-1-1.2-0.8-3.1,0.4-4.1
						l53.1-43.6c1-0.8,2.3-0.9,3.4-0.2l9.7,4.7c0.4,0.2,0.8,0.5,1,0.8l9.9,12.2c0.6,0.7,0.8,1.7,0.6,2.6l0,0l-4.2,16.6l5.8-4.8
						c0.9-0.7,2.1-0.8,3.1-0.4l9.9,4.8C238.4,247.6,238.7,247.9,239,248.2L239,248.2"/>
					<path class="st4" d="M120.8,228.2c-2.8-6-3.4-11.9-2.2-17.5c1.6-7.6,6.5-14.6,14-20.7l29.3-24.1c1-0.8,2.3-0.9,3.4-0.2l9.7,4.7
						c0.4,0.2,0.7,0.5,1,0.8l0,0l11.4,13.9c1,1.2,0.8,3.1-0.4,4.1l-29.9,24.6c-1.8,1.4-3.2,3.1-4,5c-0.6,1.4-0.7,3-0.2,4.6
						c0.1,0.3,0.2,0.7,0.4,1c0.6-0.2,1.2-0.5,1.8-0.8c0.9-0.5,1.8-1.1,2.6-1.8l29.7-24.6c1-0.8,2.3-0.9,3.4-0.2l9.4,4.6
						c0.5,0.2,1,0.5,1.3,0.9l11.4,13.9c1,1.2,0.8,3.1-0.4,4.1l-29.7,24.4c-4.6,3.8-9.2,6.4-13.9,8c-4.8,1.6-9.5,1.9-14.2,1.1
						c-3.7-0.7-8.1-2.9-12.5-5.2c-1-0.5-2-1-2.8-1.4h-0.1c-1.8-0.8-3.5-1.8-5.2-3C128.4,240.2,123.7,234.6,120.8,228.2"/>
					<path class="st5" d="M236.7,250l11.3,13.8l-53,43.6l0,0l-9.9-4.9l-9.3-11.5l7-26.8L169,275.5l0,0v0.1l-9.9-4.9l-11.4-13.9
						l53-43.5l9.9,4.8l9.9,12.2l-6.4,25.2l12.7-10.3L236.7,250"/>
					<path class="st5" d="M268.8,287.6c12.5,15.2,8.5,35.8-6.2,47.9c-8.5,7-19.1,9.9-29,8.1c-0.6-0.1-1.2-0.2-1.9-0.3
						c-14.3-3.2-21.8-8.9-26.9-15.2c-12.9-15.7-8.8-36.6,5.9-48.6c8.3-6.9,17.9-9.7,27.6-8.5c6.9,0.9,16.7,4.7,24.9,11.1l0,0
						C265.1,283.7,267,285.5,268.8,287.6z M241.5,293.8c0.1,0,0.2,0,0.3,0c4.2-0.1,6.5,3.2,6.9,8.4c0.4,5.2-2.8,10.4-7.4,14.2
						c-0.9,0.8-1.9,1.4-2.9,2c-4,2.4-7.1,3-9.4,1.8c-2.7-1.4-4.2-5.2-3.8-10.3c0.7-4.3,3.4-8.4,7.2-11.5
						C235.2,296,238.3,294.4,241.5,293.8"/>
					<path class="st5" d="M210,271.9l26.7-21.9l11.3,13.8l-53,43.6l-9.3-11.5l11.3-43.3l-28,23l-11.4-13.9l53-43.5l9.9,12.2
						L210,271.9"/>
					<path class="st6" d="M206.2,278l30.2-24.8l8.5,10.4l-49.6,40.8l-7.2-8.9l12.8-48.8l-31.6,25.9l-8.6-10.5l49.6-40.7l7.8,9.6
						L206.2,278"/>
					<path class="st7" d="M169.5,270.4l-6.7-8.1l47.2-38.8l6.3,7.8l-12.9,50.8l32.7-26.8l6.6,8l-47.2,38.8l-5.7-7l13.8-52.7
						L169.5,270.4"/>
					<path class="st5" d="M268.8,287.6c12.5,15.2,8.5,35.8-6.2,47.9c-14.7,12.1-35.7,11.9-48.2-3.3c-12.4-15.2-8.5-35.8,6.2-47.9
						C235.3,272.3,256.3,272.4,268.8,287.6z M255.3,298.7c-6.3-7.7-15.8-6.2-22.8-0.4c-7,5.8-10.4,14.8-4.1,22.5
						c6.3,7.7,15.8,6.1,22.8,0.4C258.3,315.3,261.6,306.3,255.3,298.7"/>
					<path class="st6" d="M267,289c11.7,14.2,7.9,33.4-5.9,44.8c-13.7,11.3-33.4,11.2-45-3c-11.7-14.2-7.9-33.5,5.9-44.8
						C235.8,274.8,255.4,274.8,267,289z M257,297.2c-7.1-8.6-18-7.2-26-0.7c-8,6.6-11.5,16.9-4.4,25.6c7.1,8.7,18,7.2,25.9,0.7
						C260.6,316.3,264.1,305.9,257,297.2"/>
					<path class="st7" d="M258.2,296.3c7.4,9,4.4,20.3-4.6,27.7c-9,7.4-20.7,8.2-28.1-0.9c-7.4-9-4.4-20.4,4.6-27.8
						C239.1,287.9,250.8,287.3,258.2,296.3z M265.9,290c10.9,13.3,7.7,31.6-5.7,42.6s-32,10.5-42.9-2.7
						c-10.9-13.3-7.7-31.6,5.7-42.6C236.4,276.3,254.9,276.7,265.9,290"/>
					<path class="st5" d="M122.8,225.6c-5-12.3,0-23.9,11.5-33.3l29.3-24.1l9.9,4.8l11.5,14l-30,24.5c-3.9,3.2-6.7,7.6-5.1,12.7
						c0.4,1.5,1.2,3.4,3.3,3.2c2.2-0.6,4.3-1.8,6.1-3.3l29.9-24.6l9.9,4.8l0,0l0,0l0,0l0,0l11.5,13.9l-29.7,24.4
						c-8.6,7-17.3,10-25.8,8.4c-4-0.7-9.5-3.8-14.5-6.3l0,0C132.6,241.1,126.1,233.6,122.8,225.6"/>
					<path class="st5" d="M141.1,242.8l-0.2,0.1l-2.4-2.9c-0.1-0.1-0.1-0.2-0.2-0.2c-0.1-0.1-0.2-0.2-0.2-0.3l-2.4-2.9l0.2-0.1
						c-9.7-14.6-5-28.4,8.3-39.3l29.3-24.1L185,187l-30,24.5c-3.9,3.2-6.7,7.6-5.1,12.7c0.5,1.5,1.3,2.9,2.3,4.2
						c1,1.3,2.3,2.3,3.7,3.1c4.7,2.5,9.6,0.5,13.4-2.6l29.9-24.6l11.4,13.9l-29.7,24.4C167.5,253.6,153.5,255.2,141.1,242.8"/>
					<path class="st6" d="M141.3,239.7L141.3,239.7l-1-1.2c-0.1-0.1-0.1-0.2-0.2-0.2c-0.1-0.1-0.1-0.2-0.2-0.3l-1-1.2l0,0
						c-10.4-14.1-6.4-27.3,6.7-38l27.6-22.6l8.6,10.5l-28.2,23.2c-4.6,3.8-7.6,9-5.9,15.1c0.5,1.8,1.5,3.5,2.7,5s2.7,2.8,4.4,3.6
						c5.5,2.9,11.3,0.9,15.8-2.9l28.2-23.2l8.6,10.5l-27.9,22.9C166.3,251.7,153.1,252.8,141.3,239.7"/>
					<path class="st7" d="M173,178.3l6.6,8.1l-27,22.2c-8.9,7.3-8.2,16.2-3.4,22.2c4.9,5.9,13.5,8.4,22.4,1l27-22.2l6.6,8.1
						l-26.8,22c-10.7,8.8-24,13.4-37.1-2.1l0,0c-0.1-0.1-0.1-0.2-0.2-0.2c-0.1-0.1-0.1-0.2-0.2-0.3l0,0
						c-12.3-15.4-5.4-28.1,5.6-37.1L173,178.3"/>
					<path class="st8" d="M227.2,247.8l7.8,3.8l-7.6,6.2l-7.8-3.8L227.2,247.8z M217.1,256l7.8,3.8l-2.9,2.3l-7.8-3.8L217.1,256"/>
					<path class="st8" d="M189.6,202l7.8,3.8l-7.6,6.2l-7.8-3.8L189.6,202z M179.5,210.3l7.8,3.8l-2.9,2.3l-7.8-3.8L179.5,210.3"/>
					<path class="st8" d="M146.9,184.7l7.8,3.8l-7.6,6.2l-7.8-3.8L146.9,184.7z M136.8,193l7.8,3.8l0,0l-0.4,0.3
						c-0.9,0.7-1.7,1.4-2.5,2.1l-7.9-3.8L136.8,193"/>
					<path class="st8" d="M249.9,308.5l7.8,3.8c-1,2.7-2.7,5.3-5,7.4l-7.7-3.8C247.1,313.8,248.9,311.3,249.9,308.5z M242.7,318.1
						l7.6,3.7c-1.1,0.8-2.2,1.5-3.4,2.1l-7.4-3.6h0.1C240.6,319.7,241.7,318.9,242.7,318.1"/>
				</g>
				<rect x="160.4" y="357.2" class="st4" width="135.5" height="11.8"/>
				<rect x="89.8" y="145.4" class="st4" width="135.5" height="11.8"/>
			</g>
		</g>
	</g>
	<g>
		
			<image style="overflow:visible;opacity:0.4;" width="1584" height="1085" xlink:href="C92100646D082557.png"  transform="matrix(0.24 0 0 0.24 8.68 197.56)">
		</image>
		<g>
			<g>
				<g id="Layer_2_17_">
					<g id="svg2_16_">
						<g id="wild_16_">
							<path id="rect2987-8-5-81-2-4_19_" class="st0" d="M381.8,247.8l0,160c0,22.1-17.9,40-40,40l-280,0c-22.1,0-40-17.9-40-40
								l0-160c0-22.1,17.9-40,40-40l280,0C363.9,207.8,381.8,225.7,381.8,247.8z"/>
							<path id="rect3757-26-33-5-9-0_19_" class="st1" d="M361.8,247.8l0,160c0,11-9,20-20,20l-280,0c-11,0-20-9-20-20l0-160
								c0-11,9-20,20-20l280,0C352.8,227.8,361.8,236.8,361.8,247.8z"/>
							<path id="path3773-0-4-8-4-60-3-86-5-7_19_" class="st2" d="M301.8,387.8c0-88.4-71.6-160-160-160c-22.1,0-40,17.9-40,40
								c0,88.4,71.6,160,160,160C283.9,427.8,301.8,409.9,301.8,387.8z"/>
							<path id="path3773-0-4-8-8-7-9-0-03-8-0_19_" class="st3" d="M301.8,387.8c-0.1-88.3-71.7-159.9-160-160
								c-22.1,0-40,17.9-40,40c0,65.2,39.6,123.8,100,148.2c19.1,7.8,39.4,11.7,60,11.8C283.9,427.8,301.8,409.9,301.8,387.8z"/>
						</g>
					</g>
				</g>
				<g id="surface1_16_">
					<path class="st4" d="M241.7,367.3L241.7,367.3c-1.3,0.3-2.5,0.7-3.7,1.3c-1.3,0.7-2.6,1.5-3.8,2.5c-1.7,1.4-3.2,3-4.3,4.7
						c-1,1.5-1.6,3.2-1.9,4.8c-0.1,2,0.1,3.8,0.6,5.1c0.4,1.1,1,1.9,1.7,2.3c0.5,0.3,1.2,0.3,2.1,0.2c1.2-0.2,2.7-0.9,4.4-1.9
						c0.5-0.3,0.9-0.5,1.3-0.8c0.4-0.3,0.8-0.6,1.2-0.9c2.1-1.7,3.9-3.8,5-5.9c1-1.9,1.5-3.8,1.4-5.8s-0.6-3.6-1.5-4.6
						c-0.5-0.7-1.3-1-2.3-1H241.7z M270.8,356.4c6.6,8.1,9,17.6,7.8,26.8c-1.2,9.5-6.3,18.6-14.4,25.3c-4.5,3.7-9.7,6.4-15,7.9
						s-10.8,1.8-16.2,0.9c-0.2,0-0.6-0.1-1.1-0.2s-0.8-0.1-1.1-0.2c-7.5-1.7-13.2-4-17.8-6.8c-4.6-2.8-8-6-10.8-9.4
						c-6.8-8.3-9.2-17.9-8.1-27.2c1.2-9.7,6.3-18.9,14.4-25.6c4.4-3.6,9.2-6.3,14.2-7.8c5.1-1.6,10.3-2,15.6-1.3
						c3.9,0.5,8.7,1.9,13.6,4c4.3,1.9,8.7,4.5,12.8,7.7l0,0c1.1,0.8,2.1,1.7,3.1,2.7C268.9,354.2,269.9,355.3,270.8,356.4"/>
					<path class="st4" d="M238.8,318.8l11.3,13.8c1,1.2,0.8,3.1-0.4,4.1c-0.1,0.1-0.1,0.1-0.2,0.2L197,380.1c-0.3,0.3-0.6,0.5-1,0.7
						c-0.8,0.4-1.7,0.3-2.5,0l-9.9-4.9c-0.4-0.2-0.8-0.5-1-0.8l-9.3-11.4c-0.6-0.7-0.8-1.7-0.6-2.6l0,0l4.7-18.1l-6.5,5.3
						c-0.3,0.4-0.8,0.7-1.3,0.9c-0.8,0.2-1.5,0.2-2.2-0.2l-9.9-4.9c-0.4-0.2-0.7-0.5-1-0.8l0,0l-11.4-13.9c-1-1.2-0.8-3.1,0.4-4.1
						l53.1-43.6c1-0.8,2.3-0.9,3.4-0.2l9.7,4.7c0.4,0.2,0.8,0.5,1,0.8l9.9,12.2c0.6,0.7,0.8,1.7,0.6,2.6l0,0l-4.2,16.6l5.8-4.8
						c0.9-0.7,2.1-0.8,3.1-0.4l9.9,4.8C238.2,318.2,238.5,318.5,238.8,318.8L238.8,318.8"/>
					<path class="st4" d="M120.6,298.8c-2.8-6-3.4-11.9-2.2-17.5c1.6-7.6,6.5-14.6,14-20.7l29.3-24.1c1-0.8,2.3-0.9,3.4-0.2l9.7,4.7
						c0.4,0.2,0.7,0.5,1,0.8l0,0l11.4,13.9c1,1.2,0.8,3.1-0.4,4.1l-29.9,24.6c-1.8,1.4-3.2,3.1-4,5c-0.6,1.4-0.7,3-0.2,4.6
						c0.1,0.3,0.2,0.7,0.4,1c0.6-0.2,1.2-0.5,1.8-0.8c0.9-0.5,1.8-1.1,2.6-1.8l29.7-24.6c1-0.8,2.3-0.9,3.4-0.2l9.4,4.6
						c0.5,0.2,1,0.5,1.3,0.9l11.4,13.9c1,1.2,0.8,3.1-0.4,4.1l-29.7,24.4c-4.6,3.8-9.2,6.4-13.9,8c-4.8,1.6-9.5,1.9-14.2,1.1
						c-3.7-0.7-8.1-2.9-12.5-5.2c-1-0.5-2-1-2.8-1.4h-0.1c-1.8-0.8-3.5-1.8-5.2-3C128.2,310.8,123.5,305.2,120.6,298.8"/>
					<path class="st5" d="M236.5,320.6l11.3,13.8l-53,43.6l0,0l-9.9-4.9l-9.3-11.5l7-26.8l-13.8,11.3l0,0v0.1l-9.9-4.9l-11.4-13.9
						l53-43.5l9.9,4.8l9.9,12.2l-6.4,25.2l12.7-10.3L236.5,320.6"/>
					<path class="st5" d="M268.6,358.2c12.5,15.2,8.5,35.8-6.2,47.9c-8.5,7-19.1,9.9-29,8.1c-0.6-0.1-1.2-0.2-1.9-0.3
						c-14.3-3.2-21.8-8.9-26.9-15.2c-12.9-15.7-8.8-36.6,5.9-48.6c8.3-6.9,17.9-9.7,27.6-8.5c6.9,0.9,16.7,4.7,24.9,11.1l0,0
						C264.9,354.3,266.8,356.1,268.6,358.2z M241.3,364.4c0.1,0,0.2,0,0.3,0c4.2-0.1,6.5,3.2,6.9,8.4c0.4,5.2-2.8,10.4-7.4,14.2
						c-0.9,0.8-1.9,1.4-2.9,2c-4,2.4-7.1,3-9.4,1.8c-2.7-1.4-4.2-5.2-3.8-10.3c0.7-4.3,3.4-8.4,7.2-11.5
						C235,366.6,238.1,365,241.3,364.4"/>
					<path class="st5" d="M209.8,342.5l26.7-21.9l11.3,13.8l-53,43.6l-9.3-11.5l11.3-43.3l-28,23l-11.4-13.9l53-43.5l9.9,12.2
						L209.8,342.5"/>
					<path class="st6" d="M206,348.6l30.2-24.8l8.5,10.4L195.1,375l-7.2-8.9l12.8-48.8l-31.6,25.9l-8.6-10.5l49.6-40.7l7.8,9.6
						L206,348.6"/>
					<path class="st7" d="M169.3,341l-6.7-8.1l47.2-38.8l6.3,7.8l-12.9,50.8l32.7-26.8l6.6,8l-47.2,38.8l-5.7-7l13.8-52.7L169.3,341
						"/>
					<path class="st5" d="M268.6,358.2c12.5,15.2,8.5,35.8-6.2,47.9c-14.7,12.1-35.7,11.9-48.2-3.3c-12.4-15.2-8.5-35.8,6.2-47.9
						C235.1,342.9,256.1,343,268.6,358.2z M255.1,369.3c-6.3-7.7-15.8-6.2-22.8-0.4c-7,5.8-10.4,14.8-4.1,22.5
						c6.3,7.7,15.8,6.1,22.8,0.4C258.1,385.9,261.4,376.9,255.1,369.3"/>
					<path class="st6" d="M266.8,359.6c11.7,14.2,7.9,33.4-5.9,44.8c-13.7,11.3-33.4,11.2-45-3c-11.7-14.2-7.9-33.5,5.9-44.8
						C235.6,345.4,255.2,345.4,266.8,359.6z M256.8,367.8c-7.1-8.6-18-7.2-26-0.7c-8,6.6-11.5,16.9-4.4,25.6
						c7.1,8.7,18,7.2,25.9,0.7C260.4,386.9,263.9,376.5,256.8,367.8"/>
					<path class="st7" d="M258,366.9c7.4,9,4.4,20.3-4.6,27.7c-9,7.4-20.7,8.2-28.1-0.9c-7.4-9-4.4-20.4,4.6-27.8
						C238.9,358.5,250.6,357.9,258,366.9z M265.7,360.6c10.9,13.3,7.7,31.6-5.7,42.6c-13.4,11-32,10.5-42.9-2.7
						c-10.9-13.3-7.7-31.6,5.7-42.6S254.7,347.3,265.7,360.6"/>
					<path class="st5" d="M122.6,296.2c-5-12.3,0-23.9,11.5-33.3l29.3-24.1l9.9,4.8l11.5,14l-30,24.5c-3.9,3.2-6.7,7.6-5.1,12.7
						c0.4,1.5,1.2,3.4,3.3,3.2c2.2-0.6,4.3-1.8,6.1-3.3l29.9-24.6l9.9,4.8l0,0l0,0l0,0l0,0l11.5,13.9l-29.7,24.4
						c-8.6,7-17.3,10-25.8,8.4c-4-0.7-9.5-3.8-14.5-6.3l0,0C132.4,311.7,125.9,304.2,122.6,296.2"/>
					<path class="st5" d="M140.9,313.4l-0.2,0.1l-2.4-2.9c-0.1-0.1-0.1-0.2-0.2-0.2c-0.1-0.1-0.2-0.2-0.2-0.3l-2.4-2.9l0.2-0.1
						c-9.7-14.6-5-28.4,8.3-39.3l29.3-24.1l11.5,13.9l-30,24.5c-3.9,3.2-6.7,7.6-5.1,12.7c0.5,1.5,1.3,2.9,2.3,4.2
						c1,1.3,2.3,2.3,3.7,3.1c4.7,2.5,9.6,0.5,13.4-2.6l29.9-24.6l11.4,13.9l-29.7,24.4C167.3,324.2,153.3,325.8,140.9,313.4"/>
					<path class="st6" d="M141.1,310.3L141.1,310.3l-1-1.2c-0.1-0.1-0.1-0.2-0.2-0.2c-0.1-0.1-0.1-0.2-0.2-0.3l-1-1.2l0,0
						c-10.4-14.1-6.4-27.3,6.7-38l27.6-22.6l8.6,10.5l-28.2,23.2c-4.6,3.8-7.6,9-5.9,15.1c0.5,1.8,1.5,3.5,2.7,5s2.7,2.8,4.4,3.6
						c5.5,2.9,11.3,0.9,15.8-2.9l28.2-23.2l8.6,10.5l-27.9,22.9C166.1,322.3,152.9,323.4,141.1,310.3"/>
					<path class="st7" d="M172.8,248.9l6.6,8.1l-27,22.2c-8.9,7.3-8.2,16.2-3.4,22.2c4.9,5.9,13.5,8.4,22.4,1l27-22.2l6.6,8.1
						l-26.8,22c-10.7,8.8-24,13.4-37.1-2.1l0,0c-0.1-0.1-0.1-0.2-0.2-0.2c-0.1-0.1-0.1-0.2-0.2-0.3l0,0
						c-12.3-15.4-5.4-28.1,5.6-37.1L172.8,248.9"/>
					<path class="st8" d="M227,318.4l7.8,3.8l-7.6,6.2l-7.8-3.8L227,318.4z M216.9,326.6l7.8,3.8l-2.9,2.3l-7.8-3.8L216.9,326.6"/>
					<path class="st8" d="M189.4,272.6l7.8,3.8l-7.6,6.2l-7.8-3.8L189.4,272.6z M179.3,280.9l7.8,3.8l-2.9,2.3l-7.8-3.8L179.3,280.9
						"/>
					<path class="st8" d="M146.7,255.3l7.8,3.8l-7.6,6.2l-7.8-3.8L146.7,255.3z M136.6,263.6l7.8,3.8l0,0l-0.4,0.3
						c-0.9,0.7-1.7,1.4-2.5,2.1l-7.9-3.8L136.6,263.6"/>
					<path class="st8" d="M249.7,379.1l7.8,3.8c-1,2.7-2.7,5.3-5,7.4l-7.7-3.8C246.9,384.4,248.7,381.9,249.7,379.1z M242.5,388.7
						l7.6,3.7c-1.1,0.8-2.2,1.5-3.4,2.1l-7.4-3.6h0.1C240.4,390.3,241.5,389.5,242.5,388.7"/>
				</g>
				<rect x="160.2" y="427.8" class="st4" width="135.5" height="11.8"/>
				<rect x="89.6" y="216" class="st4" width="135.5" height="11.8"/>
			</g>
		</g>
	</g>
	<g>
		
			<image style="overflow:visible;opacity:0.4;" width="1584" height="1084" xlink:href="C92100646D082552.png"  transform="matrix(0.24 0 0 0.24 8.68 269.8)">
		</image>
		<g>
			<g>
				<g id="Layer_2_18_">
					<g id="svg2_17_">
						<g id="wild_17_">
							<path id="rect2987-8-5-81-2-4_20_" class="st0" d="M381.8,319.9l0,160c0,22.1-17.9,40-40,40l-280,0c-22.1,0-40-17.9-40-40
								l0-160c0-22.1,17.9-40,40-40l280,0C363.9,279.9,381.8,297.8,381.8,319.9z"/>
							<path id="rect3757-26-33-5-9-0_20_" class="st1" d="M361.8,319.9l0,160c0,11-9,20-20,20l-280,0c-11,0-20-9-20-20l0-160
								c0-11,9-20,20-20l280,0C352.8,299.9,361.8,308.9,361.8,319.9z"/>
							<path id="path3773-0-4-8-4-60-3-86-5-7_20_" class="st2" d="M301.8,459.9c0-88.4-71.6-160-160-160c-22.1,0-40,17.9-40,40
								c0,88.4,71.6,160,160,160C283.9,499.9,301.8,482,301.8,459.9z"/>
							<path id="path3773-0-4-8-8-7-9-0-03-8-0_20_" class="st3" d="M301.8,459.9c-0.1-88.3-71.7-159.9-160-160
								c-22.1,0-40,17.9-40,40c0,65.2,39.6,123.8,100,148.2c19.1,7.8,39.4,11.7,60,11.8C283.9,499.9,301.8,482,301.8,459.9z"/>
						</g>
					</g>
				</g>
				<g id="surface1_17_">
					<path class="st4" d="M241.7,439.4L241.7,439.4c-1.3,0.3-2.5,0.7-3.7,1.3c-1.3,0.7-2.6,1.5-3.8,2.5c-1.7,1.4-3.2,3-4.3,4.7
						c-1,1.5-1.6,3.2-1.9,4.8c-0.1,2,0.1,3.8,0.6,5.1c0.4,1.1,1,1.9,1.7,2.3c0.5,0.3,1.2,0.3,2.1,0.2c1.2-0.2,2.7-0.9,4.4-1.9
						c0.5-0.3,0.9-0.5,1.3-0.8c0.4-0.3,0.8-0.6,1.2-0.9c2.1-1.7,3.9-3.8,5-5.9c1-1.9,1.5-3.8,1.4-5.8s-0.6-3.6-1.5-4.6
						c-0.5-0.7-1.3-1-2.3-1H241.7z M270.8,428.5c6.6,8.1,9,17.6,7.8,26.8c-1.2,9.5-6.3,18.6-14.4,25.3c-4.5,3.7-9.7,6.4-15,7.9
						s-10.8,1.8-16.2,0.9c-0.2,0-0.6-0.1-1.1-0.2c-0.5-0.1-0.8-0.1-1.1-0.2c-7.5-1.7-13.2-4-17.8-6.8c-4.6-2.8-8-6-10.8-9.4
						c-6.8-8.3-9.2-17.9-8.1-27.2c1.2-9.7,6.3-18.9,14.4-25.6c4.4-3.6,9.2-6.3,14.2-7.8c5.1-1.6,10.3-2,15.6-1.3
						c3.9,0.5,8.7,1.9,13.6,4c4.3,1.9,8.7,4.5,12.8,7.7l0,0c1.1,0.8,2.1,1.7,3.1,2.7C268.9,426.3,269.9,427.4,270.8,428.5"/>
					<path class="st4" d="M238.8,390.9l11.3,13.8c1,1.2,0.8,3.1-0.4,4.1c-0.1,0.1-0.1,0.1-0.2,0.2L197,452.2c-0.3,0.3-0.6,0.5-1,0.7
						c-0.8,0.4-1.7,0.3-2.5,0l-9.9-4.9c-0.4-0.2-0.8-0.5-1-0.8l-9.3-11.4c-0.6-0.7-0.8-1.7-0.6-2.6l0,0l4.7-18.1l-6.5,5.3
						c-0.3,0.4-0.8,0.7-1.3,0.9c-0.8,0.2-1.5,0.2-2.2-0.2l-9.9-4.9c-0.4-0.2-0.7-0.5-1-0.8l0,0l-11.4-13.9c-1-1.2-0.8-3.1,0.4-4.1
						l53.1-43.6c1-0.8,2.3-0.9,3.4-0.2l9.7,4.7c0.4,0.2,0.8,0.5,1,0.8l9.9,12.2c0.6,0.7,0.8,1.7,0.6,2.6l0,0l-4.2,16.6l5.8-4.8
						c0.9-0.7,2.1-0.8,3.1-0.4l9.9,4.8C238.2,390.3,238.5,390.6,238.8,390.9L238.8,390.9"/>
					<path class="st4" d="M120.6,370.9c-2.8-6-3.4-11.9-2.2-17.5c1.6-7.6,6.5-14.6,14-20.7l29.3-24.1c1-0.8,2.3-0.9,3.4-0.2l9.7,4.7
						c0.4,0.2,0.7,0.5,1,0.8l0,0l11.4,13.9c1,1.2,0.8,3.1-0.4,4.1l-29.9,24.6c-1.8,1.4-3.2,3.1-4,5c-0.6,1.4-0.7,3-0.2,4.6
						c0.1,0.3,0.2,0.7,0.4,1c0.6-0.2,1.2-0.5,1.8-0.8c0.9-0.5,1.8-1.1,2.6-1.8l29.7-24.6c1-0.8,2.3-0.9,3.4-0.2l9.4,4.6
						c0.5,0.2,1,0.5,1.3,0.9l11.4,13.9c1,1.2,0.8,3.1-0.4,4.1l-29.7,24.4c-4.6,3.8-9.2,6.4-13.9,8c-4.8,1.6-9.5,1.9-14.2,1.1
						c-3.7-0.7-8.1-2.9-12.5-5.2c-1-0.5-2-1-2.8-1.4h-0.1c-1.8-0.8-3.5-1.8-5.2-3C128.2,382.9,123.5,377.3,120.6,370.9"/>
					<path class="st5" d="M236.5,392.7l11.3,13.8l-53,43.6l0,0l-9.9-4.9l-9.3-11.5l7-26.8l-13.8,11.3l0,0v0.1l-9.9-4.9l-11.4-13.9
						l53-43.5l9.9,4.8l9.9,12.2l-6.4,25.2l12.7-10.3L236.5,392.7"/>
					<path class="st5" d="M268.6,430.3c12.5,15.2,8.5,35.8-6.2,47.9c-8.5,7-19.1,9.9-29,8.1c-0.6-0.1-1.2-0.2-1.9-0.3
						c-14.3-3.2-21.8-8.9-26.9-15.2c-12.9-15.7-8.8-36.6,5.9-48.6c8.3-6.9,17.9-9.7,27.6-8.5c6.9,0.9,16.7,4.7,24.9,11.1l0,0
						C264.9,426.4,266.8,428.2,268.6,430.3z M241.3,436.5c0.1,0,0.2,0,0.3,0c4.2-0.1,6.5,3.2,6.9,8.4c0.4,5.2-2.8,10.4-7.4,14.2
						c-0.9,0.8-1.9,1.4-2.9,2c-4,2.4-7.1,3-9.4,1.8c-2.7-1.4-4.2-5.2-3.8-10.3c0.7-4.3,3.4-8.4,7.2-11.5
						C235,438.7,238.1,437.1,241.3,436.5"/>
					<path class="st5" d="M209.8,414.6l26.7-21.9l11.3,13.8l-53,43.6l-9.3-11.5l11.3-43.3l-28,23l-11.4-13.9l53-43.5l9.9,12.2
						L209.8,414.6"/>
					<path class="st6" d="M206,420.7l30.2-24.8l8.5,10.4l-49.6,40.8l-7.2-8.9l12.8-48.8l-31.6,25.9l-8.6-10.5l49.6-40.7l7.8,9.6
						L206,420.7"/>
					<path class="st7" d="M169.3,413.1l-6.7-8.1l47.2-38.8l6.3,7.8l-12.9,50.8l32.7-26.8l6.6,8l-47.2,38.8l-5.7-7l13.8-52.7
						L169.3,413.1"/>
					<path class="st5" d="M268.6,430.3c12.5,15.2,8.5,35.8-6.2,47.9c-14.7,12.1-35.7,11.9-48.2-3.3c-12.4-15.2-8.5-35.8,6.2-47.9
						C235.1,415,256.1,415.1,268.6,430.3z M255.1,441.4c-6.3-7.7-15.8-6.2-22.8-0.4s-10.4,14.8-4.1,22.5c6.3,7.7,15.8,6.1,22.8,0.4
						C258.1,458,261.4,449,255.1,441.4"/>
					<path class="st6" d="M266.8,431.7c11.7,14.2,7.9,33.4-5.9,44.8c-13.7,11.3-33.4,11.2-45-3c-11.7-14.2-7.9-33.5,5.9-44.8
						C235.6,417.5,255.2,417.5,266.8,431.7z M256.8,439.9c-7.1-8.6-18-7.2-26-0.7c-8,6.6-11.5,16.9-4.4,25.6
						c7.1,8.7,18,7.2,25.9,0.7C260.4,459,263.9,448.6,256.8,439.9"/>
					<path class="st7" d="M258,439c7.4,9,4.4,20.3-4.6,27.7s-20.7,8.2-28.1-0.9c-7.4-9-4.4-20.4,4.6-27.8
						C238.9,430.6,250.6,430,258,439z M265.7,432.7c10.9,13.3,7.7,31.6-5.7,42.6c-13.4,11-32,10.5-42.9-2.7
						c-10.9-13.3-7.7-31.6,5.7-42.6C236.2,419,254.7,419.4,265.7,432.7"/>
					<path class="st5" d="M122.6,368.3c-5-12.3,0-23.9,11.5-33.3l29.3-24.1l9.9,4.8l11.5,14l-30,24.5c-3.9,3.2-6.7,7.6-5.1,12.7
						c0.4,1.5,1.2,3.4,3.3,3.2c2.2-0.6,4.3-1.8,6.1-3.3l29.9-24.6l9.9,4.8l0,0l0,0l0,0l0,0l11.5,13.9l-29.7,24.4
						c-8.6,7-17.3,10-25.8,8.4c-4-0.7-9.5-3.8-14.5-6.3l0,0C132.4,383.8,125.9,376.3,122.6,368.3"/>
					<path class="st5" d="M140.9,385.5l-0.2,0.1l-2.4-2.9c-0.1-0.1-0.1-0.2-0.2-0.2c-0.1-0.1-0.2-0.2-0.2-0.3l-2.4-2.9l0.2-0.1
						c-9.7-14.6-5-28.4,8.3-39.3l29.3-24.1l11.5,13.9l-30,24.5c-3.9,3.2-6.7,7.6-5.1,12.7c0.5,1.5,1.3,2.9,2.3,4.2
						c1,1.3,2.3,2.3,3.7,3.1c4.7,2.5,9.6,0.5,13.4-2.6L199,347l11.4,13.9l-29.7,24.4C167.3,396.3,153.3,397.9,140.9,385.5"/>
					<path class="st6" d="M141.1,382.4L141.1,382.4l-1-1.2c-0.1-0.1-0.1-0.2-0.2-0.2c-0.1-0.1-0.1-0.2-0.2-0.3l-1-1.2l0,0
						c-10.4-14.1-6.4-27.3,6.7-38l27.6-22.6l8.6,10.5l-28.2,23.2c-4.6,3.8-7.6,9-5.9,15.1c0.5,1.8,1.5,3.5,2.7,5s2.7,2.8,4.4,3.6
						c5.5,2.9,11.3,0.9,15.8-2.9l28.2-23.2l8.6,10.5l-27.9,22.9C166.1,394.4,152.9,395.5,141.1,382.4"/>
					<path class="st7" d="M172.8,321l6.6,8.1l-27,22.2c-8.9,7.3-8.2,16.2-3.4,22.2c4.9,5.9,13.5,8.4,22.4,1l27-22.2l6.6,8.1
						l-26.8,22c-10.7,8.8-24,13.4-37.1-2.1l0,0c-0.1-0.1-0.1-0.2-0.2-0.2c-0.1-0.1-0.1-0.2-0.2-0.3l0,0
						c-12.3-15.4-5.4-28.1,5.6-37.1L172.8,321"/>
					<path class="st8" d="M227,390.5l7.8,3.8l-7.6,6.2l-7.8-3.8L227,390.5z M216.9,398.7l7.8,3.8l-2.9,2.3L214,401L216.9,398.7"/>
					<path class="st8" d="M189.4,344.7l7.8,3.8l-7.6,6.2l-7.8-3.8L189.4,344.7z M179.3,353l7.8,3.8l-2.9,2.3l-7.8-3.8L179.3,353"/>
					<path class="st8" d="M146.7,327.4l7.8,3.8l-7.6,6.2l-7.8-3.8L146.7,327.4z M136.6,335.7l7.8,3.8l0,0l-0.4,0.3
						c-0.9,0.7-1.7,1.4-2.5,2.1l-7.9-3.8L136.6,335.7"/>
					<path class="st8" d="M249.7,451.2l7.8,3.8c-1,2.7-2.7,5.3-5,7.4l-7.7-3.8C246.9,456.5,248.7,454,249.7,451.2z M242.5,460.8
						l7.6,3.7c-1.1,0.8-2.2,1.5-3.4,2.1l-7.4-3.6h0.1C240.4,462.4,241.5,461.6,242.5,460.8"/>
				</g>
				<rect x="160.2" y="499.9" class="st4" width="135.5" height="11.8"/>
				<rect x="89.6" y="288.1" class="st4" width="135.5" height="11.8"/>
			</g>
		</g>
	</g>
	<g>
		
			<image style="overflow:visible;opacity:0.4;" width="1584" height="1084" xlink:href="C92100646D082553.png"  transform="matrix(0.24 0 0 0.24 9.88 341.8)">
		</image>
		<g>
			<g>
				<g id="Layer_2_19_">
					<g id="svg2_18_">
						<g id="wild_18_">
							<path id="rect2987-8-5-81-2-4_21_" class="st0" d="M383,391.8l0,160c0,22.1-17.9,40-40,40l-280,0c-22.1,0-40-17.9-40-40
								l0-160c0-22.1,17.9-40,40-40l280,0C365.1,351.8,383,369.7,383,391.8z"/>
							<path id="rect3757-26-33-5-9-0_21_" class="st1" d="M363,391.8l0,160c0,11-9,20-20,20l-280,0c-11,0-20-9-20-20l0-160
								c0-11,9-20,20-20l280,0C354,371.8,363,380.8,363,391.8z"/>
							<path id="path3773-0-4-8-4-60-3-86-5-7_21_" class="st2" d="M303,531.8c0-88.4-71.6-160-160-160c-22.1,0-40,17.9-40,40
								c0,88.4,71.6,160,160,160C285.1,571.8,303,553.9,303,531.8z"/>
							<path id="path3773-0-4-8-8-7-9-0-03-8-0_21_" class="st3" d="M303,531.8c-0.1-88.3-71.7-159.9-160-160c-22.1,0-40,17.9-40,40
								c0,65.2,39.6,123.8,100,148.2c19.1,7.8,39.4,11.7,60,11.8C285.1,571.8,303,553.9,303,531.8z"/>
						</g>
					</g>
				</g>
				<g id="surface1_18_">
					<path class="st4" d="M242.9,511.3L242.9,511.3c-1.3,0.3-2.5,0.7-3.7,1.3c-1.3,0.7-2.6,1.5-3.8,2.5c-1.7,1.4-3.2,3-4.3,4.7
						c-1,1.5-1.6,3.2-1.9,4.8c-0.1,2,0.1,3.8,0.6,5.1c0.4,1.1,1,1.9,1.7,2.3c0.5,0.3,1.2,0.3,2.1,0.2c1.2-0.2,2.7-0.9,4.4-1.9
						c0.5-0.3,0.9-0.5,1.3-0.8c0.4-0.3,0.8-0.6,1.2-0.9c2.1-1.7,3.9-3.8,5-5.9c1-1.9,1.5-3.8,1.4-5.8s-0.6-3.6-1.5-4.6
						c-0.5-0.7-1.3-1-2.3-1H242.9z M272,500.4c6.6,8.1,9,17.6,7.8,26.8c-1.2,9.5-6.3,18.6-14.4,25.3c-4.5,3.7-9.7,6.4-15,7.9
						s-10.8,1.8-16.2,0.9c-0.2,0-0.6-0.1-1.1-0.2c-0.5-0.1-0.8-0.1-1.1-0.2c-7.5-1.7-13.2-4-17.8-6.8s-8-6-10.8-9.4
						c-6.8-8.3-9.2-17.9-8.1-27.2c1.2-9.7,6.3-18.9,14.4-25.6c4.4-3.6,9.2-6.3,14.2-7.8c5.1-1.6,10.3-2,15.6-1.3
						c3.9,0.5,8.7,1.9,13.6,4c4.3,1.9,8.7,4.5,12.8,7.7l0,0c1.1,0.8,2.1,1.7,3.1,2.7C270.1,498.2,271.1,499.3,272,500.4"/>
					<path class="st4" d="M240,462.8l11.3,13.8c1,1.2,0.8,3.1-0.4,4.1c-0.1,0.1-0.1,0.1-0.2,0.2l-52.5,43.2c-0.3,0.3-0.6,0.5-1,0.7
						c-0.8,0.4-1.7,0.3-2.5,0l-9.9-4.9c-0.4-0.2-0.8-0.5-1-0.8l-9.3-11.4c-0.6-0.7-0.8-1.7-0.6-2.6l0,0l4.7-18.1l-6.5,5.3
						c-0.3,0.4-0.8,0.7-1.3,0.9c-0.8,0.2-1.5,0.2-2.2-0.2l-9.9-4.9c-0.4-0.2-0.7-0.5-1-0.8l0,0l-11.4-13.9c-1-1.2-0.8-3.1,0.4-4.1
						l53.1-43.6c1-0.8,2.3-0.9,3.4-0.2l9.7,4.7c0.4,0.2,0.8,0.5,1,0.8l9.9,12.2c0.6,0.7,0.8,1.7,0.6,2.6l0,0l-4.2,16.6l5.8-4.8
						c0.9-0.7,2.1-0.8,3.1-0.4l9.9,4.8C239.4,462.2,239.7,462.5,240,462.8L240,462.8"/>
					<path class="st4" d="M121.8,442.8c-2.8-6-3.4-11.9-2.2-17.5c1.6-7.6,6.5-14.6,14-20.7l29.3-24.1c1-0.8,2.3-0.9,3.4-0.2l9.7,4.7
						c0.4,0.2,0.7,0.5,1,0.8l0,0l11.4,13.9c1,1.2,0.8,3.1-0.4,4.1l-29.9,24.6c-1.8,1.4-3.2,3.1-4,5c-0.6,1.4-0.7,3-0.2,4.6
						c0.1,0.3,0.2,0.7,0.4,1c0.6-0.2,1.2-0.5,1.8-0.8c0.9-0.5,1.8-1.1,2.6-1.8l29.7-24.6c1-0.8,2.3-0.9,3.4-0.2l9.4,4.6
						c0.5,0.2,1,0.5,1.3,0.9l11.4,13.9c1,1.2,0.8,3.1-0.4,4.1l-29.7,24.4c-4.6,3.8-9.2,6.4-13.9,8c-4.8,1.6-9.5,1.9-14.2,1.1
						c-3.7-0.7-8.1-2.9-12.5-5.2c-1-0.5-2-1-2.8-1.4h-0.1c-1.8-0.8-3.5-1.8-5.2-3C129.4,454.8,124.7,449.2,121.8,442.8"/>
					<path class="st5" d="M237.7,464.6l11.3,13.8L196,522l0,0l-9.9-4.9l-9.3-11.5l7-26.8L170,490.1l0,0v0.1l-9.9-4.9l-11.4-13.9
						l53-43.5l9.9,4.8l9.9,12.2l-6.4,25.2l12.7-10.3L237.7,464.6"/>
					<path class="st5" d="M269.8,502.2c12.5,15.2,8.5,35.8-6.2,47.9c-8.5,7-19.1,9.9-29,8.1c-0.6-0.1-1.2-0.2-1.9-0.3
						c-14.3-3.2-21.8-8.9-26.9-15.2c-12.9-15.7-8.8-36.6,5.9-48.6c8.3-6.9,17.9-9.7,27.6-8.5c6.9,0.9,16.7,4.7,24.9,11.1l0,0
						C266.1,498.3,268,500.1,269.8,502.2z M242.5,508.4c0.1,0,0.2,0,0.3,0c4.2-0.1,6.5,3.2,6.9,8.4c0.4,5.2-2.8,10.4-7.4,14.2
						c-0.9,0.8-1.9,1.4-2.9,2c-4,2.4-7.1,3-9.4,1.8c-2.7-1.4-4.2-5.2-3.8-10.3c0.7-4.3,3.4-8.4,7.2-11.5
						C236.2,510.6,239.3,509,242.5,508.4"/>
					<path class="st5" d="M211,486.5l26.7-21.9l11.3,13.8L196,522l-9.3-11.5l11.3-43.3l-28,23l-11.4-13.9l53-43.5l9.9,12.2
						L211,486.5"/>
					<path class="st6" d="M207.2,492.6l30.2-24.8l8.5,10.4L196.3,519l-7.2-8.9l12.8-48.8l-31.6,25.9l-8.6-10.5l49.6-40.7l7.8,9.6
						L207.2,492.6"/>
					<path class="st7" d="M170.5,485l-6.7-8.1l47.2-38.8l6.3,7.8l-12.9,50.8l32.7-26.8l6.6,8l-47.2,38.8l-5.7-7l13.8-52.7L170.5,485
						"/>
					<path class="st5" d="M269.8,502.2c12.5,15.2,8.5,35.8-6.2,47.9c-14.7,12.1-35.7,11.9-48.2-3.3c-12.4-15.2-8.5-35.8,6.2-47.9
						C236.3,486.9,257.3,487,269.8,502.2z M256.3,513.3c-6.3-7.7-15.8-6.2-22.8-0.4c-7,5.8-10.4,14.8-4.1,22.5
						c6.3,7.7,15.8,6.1,22.8,0.4C259.3,529.9,262.6,520.9,256.3,513.3"/>
					<path class="st6" d="M268,503.6c11.7,14.2,7.9,33.4-5.9,44.8c-13.7,11.3-33.4,11.2-45-3c-11.7-14.2-7.9-33.5,5.9-44.8
						C236.8,489.4,256.4,489.4,268,503.6z M258,511.8c-7.1-8.6-18-7.2-26-0.7c-8,6.6-11.5,16.9-4.4,25.6s18,7.2,25.9,0.7
						C261.6,530.9,265.1,520.5,258,511.8"/>
					<path class="st7" d="M259.2,510.9c7.4,9,4.4,20.3-4.6,27.7c-9,7.4-20.7,8.2-28.1-0.9c-7.4-9-4.4-20.4,4.6-27.8
						C240.1,502.5,251.8,501.9,259.2,510.9z M266.9,504.6c10.9,13.3,7.7,31.6-5.7,42.6s-32,10.5-42.9-2.7
						c-10.9-13.3-7.7-31.6,5.7-42.6S255.9,491.3,266.9,504.6"/>
					<path class="st5" d="M123.8,440.2c-5-12.3,0-23.9,11.5-33.3l29.3-24.1l9.9,4.8l11.5,14l-30,24.5c-3.9,3.2-6.7,7.6-5.1,12.7
						c0.4,1.5,1.2,3.4,3.3,3.2c2.2-0.6,4.3-1.8,6.1-3.3l29.9-24.6l9.9,4.8l0,0l0,0l0,0l0,0l11.5,13.9l-29.7,24.4
						c-8.6,7-17.3,10-25.8,8.4c-4-0.7-9.5-3.8-14.5-6.3l0,0C133.6,455.7,127.1,448.2,123.8,440.2"/>
					<path class="st5" d="M142.1,457.4l-0.2,0.1l-2.4-2.9c-0.1-0.1-0.1-0.2-0.2-0.2c-0.1-0.1-0.2-0.2-0.2-0.3l-2.4-2.9l0.2-0.1
						c-9.7-14.6-5-28.4,8.3-39.3l29.3-24.1l11.5,13.9l-30,24.5c-3.9,3.2-6.7,7.6-5.1,12.7c0.5,1.5,1.3,2.9,2.3,4.2
						c1,1.3,2.3,2.3,3.7,3.1c4.7,2.5,9.6,0.5,13.4-2.6l29.9-24.6l11.4,13.9l-29.7,24.4C168.5,468.2,154.5,469.8,142.1,457.4"/>
					<path class="st6" d="M142.3,454.3L142.3,454.3l-1-1.2c-0.1-0.1-0.1-0.2-0.2-0.2c-0.1-0.1-0.1-0.2-0.2-0.3l-1-1.2l0,0
						c-10.4-14.1-6.4-27.3,6.7-38l27.6-22.6l8.6,10.5l-28.2,23.2c-4.6,3.8-7.6,9-5.9,15.1c0.5,1.8,1.5,3.5,2.7,5s2.7,2.8,4.4,3.6
						c5.5,2.9,11.3,0.9,15.8-2.9l28.2-23.2l8.6,10.5l-27.9,22.9C167.3,466.3,154.1,467.4,142.3,454.3"/>
					<path class="st7" d="M174,392.9l6.6,8.1l-27,22.2c-8.9,7.3-8.2,16.2-3.4,22.2c4.9,5.9,13.5,8.4,22.4,1l27-22.2l6.6,8.1
						l-26.8,22c-10.7,8.8-24,13.4-37.1-2.1l0,0c-0.1-0.1-0.1-0.2-0.2-0.2c-0.1-0.1-0.1-0.2-0.2-0.3l0,0
						c-12.3-15.4-5.4-28.1,5.6-37.1L174,392.9"/>
					<path class="st8" d="M228.2,462.4l7.8,3.8l-7.6,6.2l-7.8-3.8L228.2,462.4z M218.1,470.6l7.8,3.8l-2.9,2.3l-7.8-3.8L218.1,470.6
						"/>
					<path class="st8" d="M190.6,416.6l7.8,3.8l-7.6,6.2l-7.8-3.8L190.6,416.6z M180.5,424.9l7.8,3.8l-2.9,2.3l-7.8-3.8L180.5,424.9
						"/>
					<path class="st8" d="M147.9,399.3l7.8,3.8l-7.6,6.2l-7.8-3.8L147.9,399.3z M137.8,407.6l7.8,3.8l0,0l-0.4,0.3
						c-0.9,0.7-1.7,1.4-2.5,2.1l-7.9-3.8L137.8,407.6"/>
					<path class="st8" d="M250.9,523.1l7.8,3.8c-1,2.7-2.7,5.3-5,7.4l-7.7-3.8C248.1,528.4,249.9,525.9,250.9,523.1z M243.7,532.7
						l7.6,3.7c-1.1,0.8-2.2,1.5-3.4,2.1l-7.4-3.6h0.1C241.6,534.3,242.7,533.5,243.7,532.7"/>
				</g>
				<rect x="161.4" y="571.8" class="st4" width="135.5" height="11.8"/>
				<rect x="90.8" y="360" class="st4" width="135.5" height="11.8"/>
			</g>
		</g>
	</g>
	<g>
		
			<image style="overflow:visible;opacity:0.4;" width="1584" height="1084" xlink:href="C92100646D08255D.png"  transform="matrix(0.24 0 0 0.24 8.68 414.52)">
		</image>
		<g>
			<g>
				<g id="Layer_2_20_">
					<g id="svg2_19_">
						<g id="wild_19_">
							<path id="rect2987-8-5-81-2-4_22_" class="st0" d="M381.7,464.6l0,160c0,22.1-17.9,40-40,40l-280,0c-22.1,0-40-17.9-40-40
								l0-160c0-22.1,17.9-40,40-40l280,0C363.8,424.6,381.7,442.5,381.7,464.6z"/>
							<path id="rect3757-26-33-5-9-0_22_" class="st1" d="M361.7,464.6l0,160c0,11-9,20-20,20l-280,0c-11,0-20-9-20-20l0-160
								c0-11,9-20,20-20l280,0C352.7,444.6,361.7,453.6,361.7,464.6z"/>
							<path id="path3773-0-4-8-4-60-3-86-5-7_22_" class="st2" d="M301.7,604.6c0-88.4-71.6-160-160-160c-22.1,0-40,17.9-40,40
								c0,88.4,71.6,160,160,160C283.8,644.6,301.7,626.7,301.7,604.6z"/>
							<path id="path3773-0-4-8-8-7-9-0-03-8-0_22_" class="st3" d="M301.7,604.6c-0.1-88.3-71.7-159.9-160-160
								c-22.1,0-40,17.9-40,40c0,65.2,39.6,123.8,100,148.2c19.1,7.8,39.4,11.7,60,11.8C283.8,644.6,301.7,626.7,301.7,604.6z"/>
						</g>
					</g>
				</g>
				<g id="surface1_19_">
					<path class="st4" d="M241.6,584.1L241.6,584.1c-1.3,0.3-2.5,0.7-3.7,1.3c-1.3,0.7-2.6,1.5-3.8,2.5c-1.7,1.4-3.2,3-4.3,4.7
						c-1,1.5-1.6,3.2-1.9,4.8c-0.1,2,0.1,3.8,0.6,5.1c0.4,1.1,1,1.9,1.7,2.3c0.5,0.3,1.2,0.3,2.1,0.2c1.2-0.2,2.7-0.9,4.4-1.9
						c0.5-0.3,0.9-0.5,1.3-0.8c0.4-0.3,0.8-0.6,1.2-0.9c2.1-1.7,3.9-3.8,5-5.9c1-1.9,1.5-3.8,1.4-5.8s-0.6-3.6-1.5-4.6
						c-0.5-0.7-1.3-1-2.3-1L241.6,584.1z M270.7,573.2c6.6,8.1,9,17.6,7.8,26.8c-1.2,9.5-6.3,18.6-14.4,25.3
						c-4.5,3.7-9.7,6.4-15,7.9s-10.8,1.8-16.2,0.9c-0.2,0-0.6-0.1-1.1-0.2c-0.5-0.1-0.8-0.1-1.1-0.2c-7.5-1.7-13.2-4-17.8-6.8
						c-4.6-2.8-8-6-10.8-9.4c-6.8-8.3-9.2-17.9-8.1-27.2c1.2-9.7,6.3-18.9,14.4-25.6c4.4-3.6,9.2-6.3,14.2-7.8
						c5.1-1.6,10.3-2,15.6-1.3c3.9,0.5,8.7,1.9,13.6,4c4.3,1.9,8.7,4.5,12.8,7.7l0,0c1.1,0.8,2.1,1.7,3.1,2.7
						C268.8,571,269.8,572.1,270.7,573.2"/>
					<path class="st4" d="M238.7,535.6l11.3,13.8c1,1.2,0.8,3.1-0.4,4.1c-0.1,0.1-0.1,0.1-0.2,0.2l-52.5,43.2
						c-0.3,0.3-0.6,0.5-1,0.7c-0.8,0.4-1.7,0.3-2.5,0l-9.9-4.9c-0.4-0.2-0.8-0.5-1-0.8l-9.3-11.4c-0.6-0.7-0.8-1.7-0.6-2.6l0,0
						l4.7-18.1l-6.5,5.3c-0.3,0.4-0.8,0.7-1.3,0.9c-0.8,0.2-1.5,0.2-2.2-0.2l-9.9-4.9c-0.4-0.2-0.7-0.5-1-0.8l0,0L145,546.2
						c-1-1.2-0.8-3.1,0.4-4.1l53.1-43.6c1-0.8,2.3-0.9,3.4-0.2l9.7,4.7c0.4,0.2,0.8,0.5,1,0.8l9.9,12.2c0.6,0.7,0.8,1.7,0.6,2.6l0,0
						l-4.2,16.6l5.8-4.8c0.9-0.7,2.1-0.8,3.1-0.4l9.9,4.8C238.1,535,238.4,535.3,238.7,535.6L238.7,535.6"/>
					<path class="st4" d="M120.5,515.6c-2.8-6-3.4-11.9-2.2-17.5c1.6-7.6,6.5-14.6,14-20.7l29.3-24.1c1-0.8,2.3-0.9,3.4-0.2l9.7,4.7
						c0.4,0.2,0.7,0.5,1,0.8l0,0l11.4,13.9c1,1.2,0.8,3.1-0.4,4.1l-29.9,24.6c-1.8,1.4-3.2,3.1-4,5c-0.6,1.4-0.7,3-0.2,4.6
						c0.1,0.3,0.2,0.7,0.4,1c0.6-0.2,1.2-0.5,1.8-0.8c0.9-0.5,1.8-1.1,2.6-1.8l29.7-24.6c1-0.8,2.3-0.9,3.4-0.2l9.4,4.6
						c0.5,0.2,1,0.5,1.3,0.9l11.4,13.9c1,1.2,0.8,3.1-0.4,4.1l-29.7,24.4c-4.6,3.8-9.2,6.4-13.9,8c-4.8,1.6-9.5,1.9-14.2,1.1
						c-3.7-0.7-8.1-2.9-12.5-5.2c-1-0.5-2-1-2.8-1.4H139c-1.8-0.8-3.5-1.8-5.2-3C128.1,527.6,123.4,522,120.5,515.6"/>
					<path class="st5" d="M236.4,537.4l11.3,13.8l-53,43.6l0,0l-9.9-4.9l-9.3-11.5l7-26.8l-13.8,11.3l0,0v0.1l-9.9-4.9l-11.4-13.9
						l53-43.5l9.9,4.8l9.9,12.2l-6.4,25.2l12.7-10.3L236.4,537.4"/>
					<path class="st5" d="M268.5,575c12.5,15.2,8.5,35.8-6.2,47.9c-8.5,7-19.1,9.9-29,8.1c-0.6-0.1-1.2-0.2-1.9-0.3
						c-14.3-3.2-21.8-8.9-26.9-15.2c-12.9-15.7-8.8-36.6,5.9-48.6c8.3-6.9,17.9-9.7,27.6-8.5c6.9,0.9,16.7,4.7,24.9,11.1l0,0
						C264.8,571.1,266.7,572.9,268.5,575z M241.2,581.2c0.1,0,0.2,0,0.3,0c4.2-0.1,6.5,3.2,6.9,8.4c0.4,5.2-2.8,10.4-7.4,14.2
						c-0.9,0.8-1.9,1.4-2.9,2c-4,2.4-7.1,3-9.4,1.8c-2.7-1.4-4.2-5.2-3.8-10.3c0.7-4.3,3.4-8.4,7.2-11.5
						C234.9,583.4,238,581.8,241.2,581.2"/>
					<path class="st5" d="M209.7,559.3l26.7-21.9l11.3,13.8l-53,43.6l-9.3-11.5l11.3-43.3l-28,23l-11.4-13.9l53-43.5l9.9,12.2
						L209.7,559.3"/>
					<path class="st6" d="M205.9,565.4l30.2-24.8l8.5,10.4L195,591.8l-7.2-8.9l12.8-48.8L169,560l-8.6-10.5l49.6-40.7l7.8,9.6
						L205.9,565.4"/>
					<path class="st7" d="M169.2,557.8l-6.7-8.1l47.2-38.8l6.3,7.8l-12.9,50.8l32.7-26.8l6.6,8l-47.2,38.8l-5.7-7l13.8-52.7
						L169.2,557.8"/>
					<path class="st5" d="M268.5,575c12.5,15.2,8.5,35.8-6.2,47.9c-14.7,12.1-35.7,11.9-48.2-3.3c-12.4-15.2-8.5-35.8,6.2-47.9
						C235,559.7,256,559.8,268.5,575z M255,586.1c-6.3-7.7-15.8-6.2-22.8-0.4s-10.4,14.8-4.1,22.5c6.3,7.7,15.8,6.1,22.8,0.4
						C258,602.7,261.3,593.7,255,586.1"/>
					<path class="st6" d="M266.7,576.4c11.7,14.2,7.9,33.4-5.9,44.8c-13.7,11.3-33.4,11.2-45-3c-11.7-14.2-7.9-33.5,5.9-44.8
						C235.5,562.2,255.1,562.2,266.7,576.4z M256.7,584.6c-7.1-8.6-18-7.2-26-0.7c-8,6.6-11.5,16.9-4.4,25.6s18,7.2,25.9,0.7
						C260.3,603.7,263.8,593.3,256.7,584.6"/>
					<path class="st7" d="M257.9,583.7c7.4,9,4.4,20.3-4.6,27.7c-9,7.4-20.7,8.2-28.1-0.9c-7.4-9-4.4-20.4,4.6-27.8
						S250.5,574.7,257.9,583.7z M265.6,577.4c10.9,13.3,7.7,31.6-5.7,42.6c-13.4,11-32,10.5-42.9-2.7c-10.9-13.3-7.7-31.6,5.7-42.6
						C236.1,563.7,254.6,564.1,265.6,577.4"/>
					<path class="st5" d="M122.5,513c-5-12.3,0-23.9,11.5-33.3l29.3-24.1l9.9,4.8l11.5,14l-30,24.5c-3.9,3.2-6.7,7.6-5.1,12.7
						c0.4,1.5,1.2,3.4,3.3,3.2c2.2-0.6,4.3-1.8,6.1-3.3l29.9-24.6l9.9,4.8l0,0l0,0l0,0l0,0l11.5,13.9L180.6,530
						c-8.6,7-17.3,10-25.8,8.4c-4-0.7-9.5-3.8-14.5-6.3l0,0C132.3,528.5,125.8,521,122.5,513"/>
					<path class="st5" d="M140.8,530.2l-0.2,0.1l-2.4-2.9c-0.1-0.1-0.1-0.2-0.2-0.2c-0.1-0.1-0.2-0.2-0.2-0.3l-2.4-2.9l0.2-0.1
						c-9.7-14.6-5-28.4,8.3-39.3l29.3-24.1l11.5,13.9l-30,24.5c-3.9,3.2-6.7,7.6-5.1,12.7c0.5,1.5,1.3,2.9,2.3,4.2s2.3,2.3,3.7,3.1
						c4.7,2.5,9.6,0.5,13.4-2.6l29.9-24.6l11.4,13.9L180.6,530C167.2,541,153.2,542.6,140.8,530.2"/>
					<path class="st6" d="M141,527.1L141,527.1l-1-1.2c-0.1-0.1-0.1-0.2-0.2-0.2c-0.1-0.1-0.1-0.2-0.2-0.3l-1-1.2l0,0
						c-10.4-14.1-6.4-27.3,6.7-38l27.6-22.6l8.6,10.5l-28.2,23.2c-4.6,3.8-7.6,9-5.9,15.1c0.5,1.8,1.5,3.5,2.7,5s2.7,2.8,4.4,3.6
						c5.5,2.9,11.3,0.9,15.8-2.9l28.2-23.2l8.6,10.5l-27.9,22.9C166,539.1,152.8,540.2,141,527.1"/>
					<path class="st7" d="M172.7,465.7l6.6,8.1l-27,22.2c-8.9,7.3-8.2,16.2-3.4,22.2c4.9,5.9,13.5,8.4,22.4,1l27-22.2l6.6,8.1
						l-26.8,22c-10.7,8.8-24,13.4-37.1-2.1l0,0c-0.1-0.1-0.1-0.2-0.2-0.2c-0.1-0.1-0.1-0.2-0.2-0.3l0,0
						c-12.3-15.4-5.4-28.1,5.6-37.1L172.7,465.7"/>
					<path class="st8" d="M226.9,535.2l7.8,3.8l-7.6,6.2l-7.8-3.8L226.9,535.2z M216.8,543.4l7.8,3.8l-2.9,2.3l-7.8-3.8L216.8,543.4
						"/>
					<path class="st8" d="M189.3,489.4l7.8,3.8l-7.6,6.2l-7.8-3.8L189.3,489.4z M179.2,497.7l7.8,3.8l-2.9,2.3l-7.8-3.8L179.2,497.7
						"/>
					<path class="st8" d="M146.6,472.1l7.8,3.8l-7.6,6.2l-7.8-3.8L146.6,472.1z M136.5,480.4l7.8,3.8l0,0l-0.4,0.3
						c-0.9,0.7-1.7,1.4-2.5,2.1l-7.9-3.8L136.5,480.4"/>
					<path class="st8" d="M249.6,595.9l7.8,3.8c-1,2.7-2.7,5.3-5,7.4l-7.7-3.8C246.8,601.2,248.6,598.7,249.6,595.9z M242.4,605.5
						l7.6,3.7c-1.1,0.8-2.2,1.5-3.4,2.1l-7.4-3.6h0.1C240.3,607.1,241.4,606.3,242.4,605.5"/>
				</g>
				<rect x="160.1" y="644.6" class="st4" width="135.5" height="11.8"/>
				<rect x="89.5" y="432.8" class="st4" width="135.5" height="11.8"/>
			</g>
		</g>
	</g>
	<g>
		
			<image style="overflow:visible;opacity:0.4;" width="1584" height="1084" xlink:href="C92100646D08255F.png"  transform="matrix(0.24 0 0 0.24 9.4 485.56)">
		</image>
		<g>
			<g>
				<g id="Layer_2_21_">
					<g id="svg2_20_">
						<g id="wild_20_">
							<path id="rect2987-8-5-81-2-4_23_" class="st0" d="M382.5,535.7l0,160c0,22.1-17.9,40-40,40l-280,0c-22.1,0-40-17.9-40-40
								l0-160c0-22.1,17.9-40,40-40l280,0C364.6,495.7,382.5,513.6,382.5,535.7z"/>
							<path id="rect3757-26-33-5-9-0_23_" class="st1" d="M362.5,535.7l0,160c0,11-9,20-20,20l-280,0c-11,0-20-9-20-20l0-160
								c0-11,9-20,20-20l280,0C353.5,515.7,362.5,524.7,362.5,535.7z"/>
							<path id="path3773-0-4-8-4-60-3-86-5-7_23_" class="st2" d="M302.5,675.7c0-88.4-71.6-160-160-160c-22.1,0-40,17.9-40,40
								c0,88.4,71.6,160,160,160C284.6,715.7,302.5,697.8,302.5,675.7z"/>
							<path id="path3773-0-4-8-8-7-9-0-03-8-0_23_" class="st3" d="M302.5,675.7c-0.1-88.3-71.7-159.9-160-160
								c-22.1,0-40,17.9-40,40c0,65.2,39.6,123.8,100,148.2c19.1,7.8,39.4,11.7,60,11.8C284.6,715.7,302.5,697.8,302.5,675.7z"/>
						</g>
					</g>
				</g>
				<g id="surface1_20_">
					<path class="st4" d="M242.4,655.2L242.4,655.2c-1.3,0.3-2.5,0.7-3.7,1.3c-1.3,0.7-2.6,1.5-3.8,2.5c-1.7,1.4-3.2,3-4.3,4.7
						c-1,1.5-1.6,3.2-1.9,4.8c-0.1,2,0.1,3.8,0.6,5.1c0.4,1.1,1,1.9,1.7,2.3c0.5,0.3,1.2,0.3,2.1,0.2c1.2-0.2,2.7-0.9,4.4-1.9
						c0.5-0.3,0.9-0.5,1.3-0.8c0.4-0.3,0.8-0.6,1.2-0.9c2.1-1.7,3.9-3.8,5-5.9c1-1.9,1.5-3.8,1.4-5.8s-0.6-3.6-1.5-4.6
						c-0.5-0.7-1.3-1-2.3-1H242.4z M271.5,644.3c6.6,8.1,9,17.6,7.8,26.8c-1.2,9.5-6.3,18.6-14.4,25.3c-4.5,3.7-9.7,6.4-15,7.9
						s-10.8,1.8-16.2,0.9c-0.2,0-0.6-0.1-1.1-0.2s-0.8-0.1-1.1-0.2c-7.5-1.7-13.2-4-17.8-6.8c-4.6-2.8-8-6-10.8-9.4
						c-6.8-8.3-9.2-17.9-8.1-27.2c1.2-9.7,6.3-18.9,14.4-25.6c4.4-3.6,9.2-6.3,14.2-7.8c5.1-1.6,10.3-2,15.6-1.3
						c3.9,0.5,8.7,1.9,13.6,4c4.3,1.9,8.7,4.5,12.8,7.7l0,0c1.1,0.8,2.1,1.7,3.1,2.7C269.6,642.1,270.6,643.2,271.5,644.3"/>
					<path class="st4" d="M239.5,606.7l11.3,13.8c1,1.2,0.8,3.1-0.4,4.1c-0.1,0.1-0.1,0.1-0.2,0.2L197.7,668c-0.3,0.3-0.6,0.5-1,0.7
						c-0.8,0.4-1.7,0.3-2.5,0l-9.9-4.9c-0.4-0.2-0.8-0.5-1-0.8l-9.3-11.4c-0.6-0.7-0.8-1.7-0.6-2.6l0,0l4.7-18.1l-6.5,5.3
						c-0.3,0.4-0.8,0.7-1.3,0.9c-0.8,0.2-1.5,0.2-2.2-0.2l-9.9-4.9c-0.4-0.2-0.7-0.5-1-0.8l0,0l-11.4-13.9c-1-1.2-0.8-3.1,0.4-4.1
						l53.1-43.6c1-0.8,2.3-0.9,3.4-0.2l9.7,4.7c0.4,0.2,0.8,0.5,1,0.8l9.9,12.2c0.6,0.7,0.8,1.7,0.6,2.6l0,0l-4.2,16.6l5.8-4.8
						c0.9-0.7,2.1-0.8,3.1-0.4l9.9,4.8C238.9,606.1,239.2,606.4,239.5,606.7L239.5,606.7"/>
					<path class="st4" d="M121.3,586.7c-2.8-6-3.4-11.9-2.2-17.5c1.6-7.6,6.5-14.6,14-20.7l29.3-24.1c1-0.8,2.3-0.9,3.4-0.2l9.7,4.7
						c0.4,0.2,0.7,0.5,1,0.8l0,0l11.4,13.9c1,1.2,0.8,3.1-0.4,4.1l-29.9,24.6c-1.8,1.4-3.2,3.1-4,5c-0.6,1.4-0.7,3-0.2,4.6
						c0.1,0.3,0.2,0.7,0.4,1c0.6-0.2,1.2-0.5,1.8-0.8c0.9-0.5,1.8-1.1,2.6-1.8l29.7-24.6c1-0.8,2.3-0.9,3.4-0.2l9.4,4.6
						c0.5,0.2,1,0.5,1.3,0.9l11.4,13.9c1,1.2,0.8,3.1-0.4,4.1l-29.7,24.4c-4.6,3.8-9.2,6.4-13.9,8c-4.8,1.6-9.5,1.9-14.2,1.1
						c-3.7-0.7-8.1-2.9-12.5-5.2c-1-0.5-2-1-2.8-1.4h-0.1c-1.8-0.8-3.5-1.8-5.2-3C128.9,598.7,124.2,593.1,121.3,586.7"/>
					<path class="st5" d="M237.2,608.5l11.3,13.8l-53,43.6l0,0l-9.9-4.9l-9.3-11.5l7-26.8L169.5,634l0,0v0.1l-9.9-4.9l-11.4-13.9
						l53-43.5l9.9,4.8l9.9,12.2l-6.4,25.2l12.7-10.3L237.2,608.5"/>
					<path class="st5" d="M269.3,646.1c12.5,15.2,8.5,35.8-6.2,47.9c-8.5,7-19.1,9.9-29,8.1c-0.6-0.1-1.2-0.2-1.9-0.3
						c-14.3-3.2-21.8-8.9-26.9-15.2c-12.9-15.7-8.8-36.6,5.9-48.6c8.3-6.9,17.9-9.7,27.6-8.5c6.9,0.9,16.7,4.7,24.9,11.1l0,0
						C265.6,642.2,267.5,644,269.3,646.1z M242,652.3c0.1,0,0.2,0,0.3,0c4.2-0.1,6.5,3.2,6.9,8.4c0.4,5.2-2.8,10.4-7.4,14.2
						c-0.9,0.8-1.9,1.4-2.9,2c-4,2.4-7.1,3-9.4,1.8c-2.7-1.4-4.2-5.2-3.8-10.3c0.7-4.3,3.4-8.4,7.2-11.5
						C235.7,654.5,238.8,652.9,242,652.3"/>
					<path class="st5" d="M210.5,630.4l26.7-21.9l11.3,13.8l-53,43.6l-9.3-11.5l11.3-43.3l-28,23l-11.4-13.9l53-43.5l9.9,12.2
						L210.5,630.4"/>
					<path class="st6" d="M206.7,636.5l30.2-24.8l8.5,10.4l-49.6,40.8l-7.2-8.9l12.8-48.8l-31.6,25.9l-8.6-10.5l49.6-40.7l7.8,9.6
						L206.7,636.5"/>
					<path class="st7" d="M170,628.9l-6.7-8.1l47.2-38.8l6.3,7.8l-12.9,50.8l32.7-26.8l6.6,8L196,660.6l-5.7-7l13.8-52.7L170,628.9"
						/>
					<path class="st5" d="M269.3,646.1c12.5,15.2,8.5,35.8-6.2,47.9c-14.7,12.1-35.7,11.9-48.2-3.3c-12.4-15.2-8.5-35.8,6.2-47.9
						C235.8,630.8,256.8,630.9,269.3,646.1z M255.8,657.2c-6.3-7.7-15.8-6.2-22.8-0.4c-7,5.8-10.4,14.8-4.1,22.5
						c6.3,7.7,15.8,6.1,22.8,0.4C258.8,673.8,262.1,664.8,255.8,657.2"/>
					<path class="st6" d="M267.5,647.5c11.7,14.2,7.9,33.4-5.9,44.8c-13.7,11.3-33.4,11.2-45-3c-11.7-14.2-7.9-33.5,5.9-44.8
						C236.3,633.3,255.9,633.3,267.5,647.5z M257.5,655.7c-7.1-8.6-18-7.2-26-0.7c-8,6.6-11.5,16.9-4.4,25.6
						c7.1,8.7,18,7.2,25.9,0.7C261.1,674.8,264.6,664.4,257.5,655.7"/>
					<path class="st7" d="M258.7,654.8c7.4,9,4.4,20.3-4.6,27.7c-9,7.4-20.7,8.2-28.1-0.9c-7.4-9-4.4-20.4,4.6-27.8
						C239.6,646.4,251.3,645.8,258.7,654.8z M266.4,648.5c10.9,13.3,7.7,31.6-5.7,42.6s-32,10.5-42.9-2.7
						c-10.9-13.3-7.7-31.6,5.7-42.6C236.9,634.8,255.4,635.2,266.4,648.5"/>
					<path class="st5" d="M123.3,584.1c-5-12.3,0-23.9,11.5-33.3l29.3-24.1l9.9,4.8l11.5,14l-30,24.5c-3.9,3.2-6.7,7.6-5.1,12.7
						c0.4,1.5,1.2,3.4,3.3,3.2c2.2-0.6,4.3-1.8,6.1-3.3l29.9-24.6l9.9,4.8l0,0l0,0l0,0l0,0l11.5,13.9l-29.7,24.4
						c-8.6,7-17.3,10-25.8,8.4c-4-0.7-9.5-3.8-14.5-6.3l0,0C133.1,599.6,126.6,592.1,123.3,584.1"/>
					<path class="st5" d="M141.6,601.3l-0.2,0.1l-2.4-2.9c-0.1-0.1-0.1-0.2-0.2-0.2c-0.1-0.1-0.2-0.2-0.2-0.3l-2.4-2.9l0.2-0.1
						c-9.7-14.6-5-28.4,8.3-39.3l29.3-24.1l11.5,13.9l-30,24.5c-3.9,3.2-6.7,7.6-5.1,12.7c0.5,1.5,1.3,2.9,2.3,4.2s2.3,2.3,3.7,3.1
						c4.7,2.5,9.6,0.5,13.4-2.6l29.9-24.6l11.4,13.9l-29.7,24.4C168,612.1,154,613.7,141.6,601.3"/>
					<path class="st6" d="M141.8,598.2L141.8,598.2l-1-1.2c-0.1-0.1-0.1-0.2-0.2-0.2c-0.1-0.1-0.1-0.2-0.2-0.3l-1-1.2l0,0
						c-10.4-14.1-6.4-27.3,6.7-38l27.6-22.6l8.6,10.5l-28.2,23.2c-4.6,3.8-7.6,9-5.9,15.1c0.5,1.8,1.5,3.5,2.7,5s2.7,2.8,4.4,3.6
						c5.5,2.9,11.3,0.9,15.8-2.9l28.2-23.2l8.6,10.5L180,599.4C166.8,610.2,153.6,611.3,141.8,598.2"/>
					<path class="st7" d="M173.5,536.8l6.6,8.1l-27,22.2c-8.9,7.3-8.2,16.2-3.4,22.2c4.9,5.9,13.5,8.4,22.4,1l27-22.2l6.6,8.1
						l-26.8,22c-10.7,8.8-24,13.4-37.1-2.1l0,0c-0.1-0.1-0.1-0.2-0.2-0.2c-0.1-0.1-0.1-0.2-0.2-0.3l0,0
						c-12.3-15.4-5.4-28.1,5.6-37.1L173.5,536.8"/>
					<path class="st8" d="M227.7,606.3l7.8,3.8l-7.6,6.2l-7.8-3.8L227.7,606.3z M217.6,614.5l7.8,3.8l-2.9,2.3l-7.8-3.8L217.6,614.5
						"/>
					<path class="st8" d="M190.1,560.5l7.8,3.8l-7.6,6.2l-7.8-3.8L190.1,560.5z M180,568.8l7.8,3.8l-2.9,2.3l-7.8-3.8L180,568.8"/>
					<path class="st8" d="M147.4,543.2l7.8,3.8l-7.6,6.2l-7.8-3.8L147.4,543.2z M137.3,551.5l7.8,3.8l0,0l-0.4,0.3
						c-0.9,0.7-1.7,1.4-2.5,2.1l-7.9-3.8L137.3,551.5"/>
					<path class="st8" d="M250.4,667l7.8,3.8c-1,2.7-2.7,5.3-5,7.4l-7.7-3.8C247.6,672.3,249.4,669.8,250.4,667z M243.2,676.6
						l7.6,3.7c-1.1,0.8-2.2,1.5-3.4,2.1l-7.4-3.6h0.1C241.1,678.2,242.2,677.4,243.2,676.6"/>
				</g>
				<rect x="160.9" y="715.7" class="st4" width="135.5" height="11.8"/>
				<rect x="90.3" y="503.9" class="st4" width="135.5" height="11.8"/>
			</g>
		</g>
	</g>
</g>
</svg>
