<?xml version="1.0" encoding="utf-8"?>
<!-- Generator: Adobe Illustrator 25.2.1, SVG Export Plug-In . SVG Version: 6.00 Build 0)  -->
<svg version="1.1" id="Layer_1" xmlns="http://www.w3.org/2000/svg" xmlns:xlink="http://www.w3.org/1999/xlink" x="0px" y="0px"
	 viewBox="0 0 400 800" style="enable-background:new 0 0 400 800;" xml:space="preserve">
<style type="text/css">
	.st0{fill:#FFFFFF;stroke:#010101;stroke-width:2;}
	.st1{fill:#010101;}
	.st2{fill-rule:evenodd;clip-rule:evenodd;fill:#EC2227;stroke:#EC2227;}
	.st3{fill:none;stroke:#EC2227;stroke-width:4;}
	.st4{fill:#FFFFFF;}
	.st5{fill-rule:evenodd;clip-rule:evenodd;fill:#010101;}
	.st6{fill-rule:evenodd;clip-rule:evenodd;fill:#FFFFFF;}
	.st7{fill-rule:evenodd;clip-rule:evenodd;fill:#F8DA27;}
	.st8{fill-rule:evenodd;clip-rule:evenodd;fill:#59595B;}
</style>
<g>
	<g>
		
			<image style="overflow:visible;opacity:0.4;" width="1584" height="1084" xlink:href="BD0577AE36A96B47.png"  transform="matrix(0.24 0 0 0.24 9.16 54.28)">
		</image>
		<g>
			<g>
				<g id="Layer_2_21_">
					<g id="svg2_20_">
						<g id="wild_20_">
							<path id="rect2987-8-5-81-2-4_23_" class="st0" d="M22.2,264.3v-160c0-22.1,17.9-40,40-40h280c22.1,0,40,17.9,40,40v160
								c0,22.1-17.9,40-40,40h-280C40.1,304.3,22.2,286.4,22.2,264.3z"/>
							<path id="rect3757-26-33-5-9-0_23_" class="st1" d="M42.2,264.3v-160c0-11,9-20,20-20h280c11,0,20,9,20,20v160
								c0,11-9,20-20,20h-280C51.2,284.3,42.2,275.3,42.2,264.3z"/>
							<path id="path3773-0-4-8-4-60-3-86-5-7_23_" class="st2" d="M102.2,124.3c0,88.4,71.6,160,160,160c22.1,0,40-17.9,40-40
								c0-88.4-71.6-160-160-160C120.1,84.3,102.2,102.2,102.2,124.3z"/>
							<path id="path3773-0-4-8-8-7-9-0-03-8-0_23_" class="st3" d="M102.2,124.3c0.1,88.3,71.7,159.9,160,160c22.1,0,40-17.9,40-40
								c0-65.2-39.6-123.8-100-148.2c-19.1-7.8-39.4-11.7-60-11.8C120.1,84.3,102.2,102.2,102.2,124.3z"/>
						</g>
					</g>
				</g>
				<g id="surface1_20_">
					<path class="st4" d="M162.3,144.8L162.3,144.8c1.3-0.3,2.5-0.7,3.7-1.3c1.3-0.7,2.6-1.5,3.8-2.5c1.7-1.4,3.2-3,4.3-4.7
						c1-1.5,1.6-3.2,1.9-4.8c0.1-2-0.1-3.8-0.6-5.1c-0.4-1.1-1-1.9-1.7-2.3c-0.5-0.3-1.2-0.3-2.1-0.2c-1.2,0.2-2.7,0.9-4.4,1.9
						c-0.5,0.3-0.9,0.5-1.3,0.8c-0.4,0.3-0.8,0.6-1.2,0.9c-2.1,1.7-3.9,3.8-5,5.9c-1,1.9-1.5,3.8-1.4,5.8s0.6,3.6,1.5,4.6
						c0.5,0.7,1.3,1,2.3,1L162.3,144.8z M133.2,155.7c-6.6-8.1-9-17.6-7.8-26.8c1.2-9.5,6.3-18.6,14.4-25.3c4.5-3.7,9.7-6.4,15-7.9
						s10.8-1.8,16.2-0.9c0.2,0,0.6,0.1,1.1,0.2c0.5,0.1,0.8,0.1,1.1,0.2c7.5,1.7,13.2,4,17.8,6.8s8,6,10.8,9.4
						c6.8,8.3,9.2,17.9,8.1,27.2c-1.2,9.7-6.3,18.9-14.4,25.6c-4.4,3.6-9.2,6.3-14.2,7.8c-5.1,1.6-10.3,2-15.6,1.3
						c-3.9-0.5-8.7-1.9-13.6-4c-4.3-1.9-8.7-4.5-12.8-7.7l0,0c-1.1-0.8-2.1-1.7-3.1-2.7C135.1,157.9,134.1,156.8,133.2,155.7"/>
					<path class="st4" d="M165.2,193.3l-11.3-13.8c-1-1.2-0.8-3.1,0.4-4.1c0.1-0.1,0.1-0.1,0.2-0.2L207,132c0.3-0.3,0.6-0.5,1-0.7
						c0.8-0.4,1.7-0.3,2.5,0l9.9,4.9c0.4,0.2,0.8,0.5,1,0.8l9.3,11.4c0.6,0.7,0.8,1.7,0.6,2.6l0,0l-4.7,18.1l6.5-5.3
						c0.3-0.4,0.8-0.7,1.3-0.9c0.8-0.2,1.5-0.2,2.2,0.2l9.9,4.9c0.4,0.2,0.7,0.5,1,0.8l0,0l11.4,13.9c1,1.2,0.8,3.1-0.4,4.1
						l-53.1,43.6c-1,0.8-2.3,0.9-3.4,0.2l-9.7-4.7c-0.4-0.2-0.8-0.5-1-0.8l-9.9-12.2c-0.6-0.7-0.8-1.7-0.6-2.6l0,0l4.2-16.6
						l-5.8,4.8c-0.9,0.7-2.1,0.8-3.1,0.4l-9.9-4.8C165.8,193.9,165.5,193.6,165.2,193.3L165.2,193.3"/>
					<path class="st4" d="M283.4,213.3c2.8,6,3.4,11.9,2.2,17.5c-1.6,7.6-6.5,14.6-14,20.7l-29.3,24.1c-1,0.8-2.3,0.9-3.4,0.2
						l-9.7-4.7c-0.4-0.2-0.7-0.5-1-0.8l0,0l-11.4-13.9c-1-1.2-0.8-3.1,0.4-4.1l29.9-24.6c1.8-1.4,3.2-3.1,4-5c0.6-1.4,0.7-3,0.2-4.6
						c-0.1-0.3-0.2-0.7-0.4-1c-0.6,0.2-1.2,0.5-1.8,0.8c-0.9,0.5-1.8,1.1-2.6,1.8l-29.7,24.6c-1,0.8-2.3,0.9-3.4,0.2l-9.4-4.6
						c-0.5-0.2-1-0.5-1.3-0.9l-11.4-13.9c-1-1.2-0.8-3.1,0.4-4.1l29.7-24.4c4.6-3.8,9.2-6.4,13.9-8c4.8-1.6,9.5-1.9,14.2-1.1
						c3.7,0.7,8.1,2.9,12.5,5.2c1,0.5,2,1,2.8,1.4h0.1c1.8,0.8,3.5,1.8,5.2,3C275.8,201.3,280.5,206.9,283.4,213.3"/>
					<path class="st5" d="M167.5,191.5l-11.3-13.8l53-43.6l0,0l9.9,4.9l9.3,11.5l-7,26.8l13.8-11.3l0,0v-0.1l9.9,4.9l11.4,13.9
						l-53,43.5l-9.9-4.8l-9.9-12.2l6.4-25.2l-12.7,10.3L167.5,191.5"/>
					<path class="st5" d="M135.4,153.9c-12.5-15.2-8.5-35.8,6.2-47.9c8.5-7,19.1-9.9,29-8.1c0.6,0.1,1.2,0.2,1.9,0.3
						c14.3,3.2,21.8,8.9,26.9,15.2c12.9,15.7,8.8,36.6-5.9,48.6c-8.3,6.9-17.9,9.7-27.6,8.5c-6.9-0.9-16.7-4.7-24.9-11.1l0,0
						C139.1,157.8,137.2,156,135.4,153.9z M162.7,147.7c-0.1,0-0.2,0-0.3,0c-4.2,0.1-6.5-3.2-6.9-8.4s2.8-10.4,7.4-14.2
						c0.9-0.8,1.9-1.4,2.9-2c4-2.4,7.1-3,9.4-1.8c2.7,1.4,4.2,5.2,3.8,10.3c-0.7,4.3-3.4,8.4-7.2,11.5
						C169,145.5,165.9,147.1,162.7,147.7"/>
					<path class="st5" d="M194.2,169.6l-26.7,21.9l-11.3-13.8l53-43.6l9.3,11.5l-11.3,43.3l28-23l11.4,13.9l-53,43.5l-9.9-12.2
						L194.2,169.6"/>
					<path class="st6" d="M198,163.5l-30.2,24.8l-8.5-10.4l49.6-40.8l7.2,8.9l-12.8,48.8l31.6-25.9l8.6,10.5l-49.6,40.7l-7.8-9.6
						L198,163.5"/>
					<path class="st7" d="M234.7,171.1l6.7,8.1L194.2,218l-6.3-7.8l12.9-50.8l-32.7,26.8l-6.6-8l47.2-38.8l5.7,7l-13.8,52.7
						L234.7,171.1"/>
					<path class="st5" d="M135.4,153.9c-12.5-15.2-8.5-35.8,6.2-47.9c14.7-12.1,35.7-11.9,48.2,3.3c12.4,15.2,8.5,35.8-6.2,47.9
						C168.9,169.2,147.9,169.1,135.4,153.9z M148.9,142.8c6.3,7.7,15.8,6.2,22.8,0.4s10.4-14.8,4.1-22.5c-6.3-7.7-15.8-6.1-22.8-0.4
						C145.9,126.2,142.6,135.2,148.9,142.8"/>
					<path class="st6" d="M137.2,152.5c-11.7-14.2-7.9-33.4,5.9-44.8c13.7-11.3,33.4-11.2,45,3c11.7,14.2,7.9,33.5-5.9,44.8
						C168.4,166.7,148.8,166.7,137.2,152.5z M147.2,144.3c7.1,8.6,18,7.2,26,0.7c8-6.6,11.5-16.9,4.4-25.6s-18-7.2-25.9-0.7
						C143.6,125.2,140.1,135.6,147.2,144.3"/>
					<path class="st7" d="M146,145.2c-7.4-9-4.4-20.3,4.6-27.7c9-7.4,20.7-8.2,28.1,0.9c7.4,9,4.4,20.4-4.6,27.8
						C165.1,153.6,153.4,154.2,146,145.2z M138.3,151.5c-10.9-13.3-7.7-31.6,5.7-42.6c13.4-11,32-10.5,42.9,2.7
						c10.9,13.3,7.7,31.6-5.7,42.6C167.8,165.2,149.3,164.8,138.3,151.5"/>
					<path class="st5" d="M281.4,215.9c5,12.3,0,23.9-11.5,33.3l-29.3,24.1l-9.9-4.8l-11.5-14l30-24.5c3.9-3.2,6.7-7.6,5.1-12.7
						c-0.4-1.5-1.2-3.4-3.3-3.2c-2.2,0.6-4.3,1.8-6.1,3.3L215,242l-9.9-4.8l0,0l0,0l0,0l0,0l-11.5-13.9l29.7-24.4
						c8.6-7,17.3-10,25.8-8.4c4,0.7,9.5,3.8,14.5,6.3l0,0C271.6,200.4,278.1,207.9,281.4,215.9"/>
					<path class="st5" d="M263.1,198.7l0.2-0.1l2.4,2.9c0.1,0.1,0.1,0.2,0.2,0.2c0.1,0.1,0.2,0.2,0.2,0.3l2.4,2.9l-0.2,0.1
						c9.7,14.6,5,28.4-8.3,39.3l-29.3,24.1l-11.5-13.9l30-24.5c3.9-3.2,6.7-7.6,5.1-12.7c-0.5-1.5-1.3-2.9-2.3-4.2s-2.3-2.3-3.7-3.1
						c-4.7-2.5-9.6-0.5-13.4,2.6L205,237.2l-11.4-13.9l29.7-24.4C236.7,187.9,250.7,186.3,263.1,198.7"/>
					<path class="st6" d="M262.9,201.8L262.9,201.8l1,1.2c0.1,0.1,0.1,0.2,0.2,0.2c0.1,0.1,0.1,0.2,0.2,0.3l1,1.2l0,0
						c10.4,14.1,6.4,27.3-6.7,38L231,265.3l-8.6-10.5l28.2-23.2c4.6-3.8,7.6-9,5.9-15.1c-0.5-1.8-1.5-3.5-2.7-5s-2.7-2.8-4.4-3.6
						c-5.5-2.9-11.3-0.9-15.8,2.9L205.4,234l-8.6-10.5l27.9-22.9C237.9,189.8,251.1,188.7,262.9,201.8"/>
					<path class="st7" d="M231.2,263.2l-6.6-8.1l27-22.2c8.9-7.3,8.2-16.2,3.4-22.2c-4.9-5.9-13.5-8.4-22.4-1l-27,22.2l-6.6-8.1
						l26.8-22c10.7-8.8,24-13.4,37.1,2.1l0,0c0.1,0.1,0.1,0.2,0.2,0.2c0.1,0.1,0.1,0.2,0.2,0.3l0,0c12.3,15.4,5.4,28.1-5.6,37.1
						L231.2,263.2"/>
					<path class="st8" d="M177,193.7l-7.8-3.8l7.6-6.2l7.8,3.8L177,193.7z M187.1,185.5l-7.8-3.8l2.9-2.3l7.8,3.8L187.1,185.5"/>
					<path class="st8" d="M214.6,239.5l-7.8-3.8l7.6-6.2l7.8,3.8L214.6,239.5z M224.7,231.2l-7.8-3.8l2.9-2.3l7.8,3.8L224.7,231.2"
						/>
					<path class="st8" d="M257.3,256.8l-7.8-3.8l7.6-6.2l7.8,3.8L257.3,256.8z M267.4,248.5l-7.8-3.8l0,0l0.4-0.3
						c0.9-0.7,1.7-1.4,2.5-2.1l7.9,3.8L267.4,248.5"/>
					<path class="st8" d="M154.3,133l-7.8-3.8c1-2.7,2.7-5.3,5-7.4l7.7,3.8C157.1,127.7,155.3,130.2,154.3,133z M161.5,123.4
						l-7.6-3.7c1.1-0.8,2.2-1.5,3.4-2.1l7.4,3.6h-0.1C163.6,121.8,162.5,122.6,161.5,123.4"/>
				</g>
				<rect x="108.3" y="72.5" class="st4" width="135.5" height="11.8"/>
				<rect x="178.9" y="284.3" class="st4" width="135.5" height="11.8"/>
			</g>
		</g>
	</g>
	<g>
		
			<image style="overflow:visible;opacity:0.4;" width="1584" height="1084" xlink:href="BD0577AE36A96B42.png"  transform="matrix(0.24 0 0 0.24 9.88 125.32)">
		</image>
		<g>
			<g>
				<g id="Layer_2_20_">
					<g id="svg2_19_">
						<g id="wild_19_">
							<path id="rect2987-8-5-81-2-4_22_" class="st0" d="M23,335.4v-160c0-22.1,17.9-40,40-40h280c22.1,0,40,17.9,40,40v160
								c0,22.1-17.9,40-40,40H63C40.9,375.4,23,357.5,23,335.4z"/>
							<path id="rect3757-26-33-5-9-0_22_" class="st1" d="M43,335.4v-160c0-11,9-20,20-20h280c11,0,20,9,20,20v160c0,11-9,20-20,20
								H63C52,355.4,43,346.4,43,335.4z"/>
							<path id="path3773-0-4-8-4-60-3-86-5-7_22_" class="st2" d="M103,195.4c0,88.4,71.6,160,160,160c22.1,0,40-17.9,40-40
								c0-88.4-71.6-160-160-160C120.9,155.4,103,173.3,103,195.4z"/>
							<path id="path3773-0-4-8-8-7-9-0-03-8-0_22_" class="st3" d="M103,195.4c0.1,88.3,71.7,159.9,160,160c22.1,0,40-17.9,40-40
								c0-65.2-39.6-123.8-100-148.2c-19.1-7.8-39.4-11.7-60-11.8C120.9,155.4,103,173.3,103,195.4z"/>
						</g>
					</g>
				</g>
				<g id="surface1_19_">
					<path class="st4" d="M163.1,215.9L163.1,215.9c1.3-0.3,2.5-0.7,3.7-1.3c1.3-0.7,2.6-1.5,3.8-2.5c1.7-1.4,3.2-3,4.3-4.7
						c1-1.5,1.6-3.2,1.9-4.8c0.1-2-0.1-3.8-0.6-5.1c-0.4-1.1-1-1.9-1.7-2.3c-0.5-0.3-1.2-0.3-2.1-0.2c-1.2,0.2-2.7,0.9-4.4,1.9
						c-0.5,0.3-0.9,0.5-1.3,0.8c-0.4,0.3-0.8,0.6-1.2,0.9c-2.1,1.7-3.9,3.8-5,5.9c-1,1.9-1.5,3.8-1.4,5.8s0.6,3.6,1.5,4.6
						c0.5,0.7,1.3,1,2.3,1L163.1,215.9z M134,226.8c-6.6-8.1-9-17.6-7.8-26.8c1.2-9.5,6.3-18.6,14.4-25.3c4.5-3.7,9.7-6.4,15-7.9
						s10.8-1.8,16.2-0.9c0.2,0,0.6,0.1,1.1,0.2c0.5,0.1,0.8,0.1,1.1,0.2c7.5,1.7,13.2,4,17.8,6.8s8,6,10.8,9.4
						c6.8,8.3,9.2,17.9,8.1,27.2c-1.2,9.7-6.3,18.9-14.4,25.6c-4.4,3.6-9.2,6.3-14.2,7.8c-5.1,1.6-10.3,2-15.6,1.3
						c-3.9-0.5-8.7-1.9-13.6-4c-4.3-1.9-8.7-4.5-12.8-7.7l0,0c-1.1-0.8-2.1-1.7-3.1-2.7C135.9,229,134.9,227.9,134,226.8"/>
					<path class="st4" d="M166,264.4l-11.3-13.8c-1-1.2-0.8-3.1,0.4-4.1c0.1-0.1,0.1-0.1,0.2-0.2l52.5-43.2c0.3-0.3,0.6-0.5,1-0.7
						c0.8-0.4,1.7-0.3,2.5,0l9.9,4.9c0.4,0.2,0.8,0.5,1,0.8l9.3,11.4c0.6,0.7,0.8,1.7,0.6,2.6l0,0l-4.7,18.1l6.5-5.3
						c0.3-0.4,0.8-0.7,1.3-0.9c0.8-0.2,1.5-0.2,2.2,0.2l9.9,4.9c0.4,0.2,0.7,0.5,1,0.8l0,0l11.4,13.9c1,1.2,0.8,3.1-0.4,4.1
						l-53.1,43.6c-1,0.8-2.3,0.9-3.4,0.2l-9.7-4.7c-0.4-0.2-0.8-0.5-1-0.8l-9.9-12.2c-0.6-0.7-0.8-1.7-0.6-2.6l0,0l4.2-16.6
						l-5.8,4.8c-0.9,0.7-2.1,0.8-3.1,0.4l-9.9-4.8C166.6,265,166.3,264.7,166,264.4L166,264.4"/>
					<path class="st4" d="M284.2,284.4c2.8,6,3.4,11.9,2.2,17.5c-1.6,7.6-6.5,14.6-14,20.7l-29.3,24.1c-1,0.8-2.3,0.9-3.4,0.2
						l-9.7-4.7c-0.4-0.2-0.7-0.5-1-0.8l0,0l-11.4-13.9c-1-1.2-0.8-3.1,0.4-4.1l29.9-24.6c1.8-1.4,3.2-3.1,4-5c0.6-1.4,0.7-3,0.2-4.6
						c-0.1-0.3-0.2-0.7-0.4-1c-0.6,0.2-1.2,0.5-1.8,0.8c-0.9,0.5-1.8,1.1-2.6,1.8l-29.7,24.6c-1,0.8-2.3,0.9-3.4,0.2l-9.4-4.6
						c-0.5-0.2-1-0.5-1.3-0.9l-11.4-13.9c-1-1.2-0.8-3.1,0.4-4.1l29.7-24.4c4.6-3.8,9.2-6.4,13.9-8c4.8-1.6,9.5-1.9,14.2-1.1
						c3.7,0.7,8.1,2.9,12.5,5.2c1,0.5,2,1,2.8,1.4h0.1c1.8,0.8,3.5,1.8,5.2,3C276.6,272.4,281.3,278,284.2,284.4"/>
					<path class="st5" d="M168.3,262.6L157,248.8l53-43.6l0,0l9.9,4.9l9.3,11.5l-7,26.8l13.8-11.3l0,0V237l9.9,4.9l11.4,13.9
						l-53,43.5l-9.9-4.8l-9.9-12.2l6.4-25.2l-12.7,10.3L168.3,262.6"/>
					<path class="st5" d="M136.2,225c-12.5-15.2-8.5-35.8,6.2-47.9c8.5-7,19.1-9.9,29-8.1c0.6,0.1,1.2,0.2,1.9,0.3
						c14.3,3.2,21.8,8.9,26.9,15.2c12.9,15.7,8.8,36.6-5.9,48.6c-8.3,6.9-17.9,9.7-27.6,8.5c-6.9-0.9-16.7-4.7-24.9-11.1l0,0
						C139.9,228.9,138,227.1,136.2,225z M163.5,218.8c-0.1,0-0.2,0-0.3,0c-4.2,0.1-6.5-3.2-6.9-8.4s2.8-10.4,7.4-14.2
						c0.9-0.8,1.9-1.4,2.9-2c4-2.4,7.1-3,9.4-1.8c2.7,1.4,4.2,5.2,3.8,10.3c-0.7,4.3-3.4,8.4-7.2,11.5
						C169.8,216.6,166.7,218.2,163.5,218.8"/>
					<path class="st5" d="M195,240.7l-26.7,21.9L157,248.8l53-43.6l9.3,11.5L208,260l28-23l11.4,13.9l-53,43.5l-9.9-12.2L195,240.7"
						/>
					<path class="st6" d="M198.8,234.6l-30.2,24.8l-8.5-10.4l49.6-40.8l7.2,8.9l-12.8,48.8l31.6-25.9l8.6,10.5l-49.6,40.7l-7.8-9.6
						L198.8,234.6"/>
					<path class="st7" d="M235.5,242.2l6.7,8.1L195,289.1l-6.3-7.8l12.9-50.8l-32.7,26.8l-6.6-8l47.2-38.8l5.7,7l-13.8,52.7
						L235.5,242.2"/>
					<path class="st5" d="M136.2,225c-12.5-15.2-8.5-35.8,6.2-47.9c14.7-12.1,35.7-11.9,48.2,3.3c12.4,15.2,8.5,35.8-6.2,47.9
						C169.7,240.3,148.7,240.2,136.2,225z M149.7,213.9c6.3,7.7,15.8,6.2,22.8,0.4s10.4-14.8,4.1-22.5c-6.3-7.7-15.8-6.1-22.8-0.4
						C146.7,197.3,143.4,206.3,149.7,213.9"/>
					<path class="st6" d="M138,223.6c-11.7-14.2-7.9-33.4,5.9-44.8c13.7-11.3,33.4-11.2,45,3c11.7,14.2,7.9,33.5-5.9,44.8
						C169.2,237.8,149.6,237.8,138,223.6z M148,215.4c7.1,8.6,18,7.2,26,0.7c8-6.6,11.5-16.9,4.4-25.6c-7.1-8.7-18-7.2-25.9-0.7
						C144.4,196.3,140.9,206.7,148,215.4"/>
					<path class="st7" d="M146.8,216.3c-7.4-9-4.4-20.3,4.6-27.7c9-7.4,20.7-8.2,28.1,0.9c7.4,9,4.4,20.4-4.6,27.8
						C165.9,224.7,154.2,225.3,146.8,216.3z M139.1,222.6c-10.9-13.3-7.7-31.6,5.7-42.6c13.4-11,32-10.5,42.9,2.7
						c10.9,13.3,7.7,31.6-5.7,42.6C168.6,236.3,150.1,235.9,139.1,222.6"/>
					<path class="st5" d="M282.2,287c5,12.3,0,23.9-11.5,33.3l-29.3,24.1l-9.9-4.8l-11.5-14l30-24.5c3.9-3.2,6.7-7.6,5.1-12.7
						c-0.4-1.5-1.2-3.4-3.3-3.2c-2.2,0.6-4.3,1.8-6.1,3.3l-29.9,24.6l-9.9-4.8l0,0l0,0l0,0l0,0l-11.5-13.9l29.7-24.4
						c8.6-7,17.3-10,25.8-8.4c4,0.7,9.5,3.8,14.5,6.3l0,0C272.4,271.5,278.9,279,282.2,287"/>
					<path class="st5" d="M263.9,269.8l0.2-0.1l2.4,2.9c0.1,0.1,0.1,0.2,0.2,0.2c0.1,0.1,0.2,0.2,0.2,0.3l2.4,2.9l-0.2,0.1
						c9.7,14.6,5,28.4-8.3,39.3l-29.3,24.1L220,325.6l30-24.5c3.9-3.2,6.7-7.6,5.1-12.7c-0.5-1.5-1.3-2.9-2.3-4.2s-2.3-2.3-3.7-3.1
						c-4.7-2.5-9.6-0.5-13.4,2.6l-29.9,24.6l-11.4-13.9l29.7-24.4C237.5,259,251.5,257.4,263.9,269.8"/>
					<path class="st6" d="M263.7,272.9L263.7,272.9l1,1.2c0.1,0.1,0.1,0.2,0.2,0.2c0.1,0.1,0.1,0.2,0.2,0.3l1,1.2l0,0
						c10.4,14.1,6.4,27.3-6.7,38l-27.6,22.6l-8.6-10.5l28.2-23.2c4.6-3.8,7.6-9,5.9-15.1c-0.5-1.8-1.5-3.5-2.7-5s-2.7-2.8-4.4-3.6
						c-5.5-2.9-11.3-0.9-15.8,2.9l-28.2,23.2l-8.6-10.5l27.9-22.9C238.7,260.9,251.9,259.8,263.7,272.9"/>
					<path class="st7" d="M232,334.3l-6.6-8.1l27-22.2c8.9-7.3,8.2-16.2,3.4-22.2c-4.9-5.9-13.5-8.4-22.4-1l-27,22.2l-6.6-8.1
						l26.8-22c10.7-8.8,24-13.4,37.1,2.1l0,0c0.1,0.1,0.1,0.2,0.2,0.2c0.1,0.1,0.1,0.2,0.2,0.3l0,0c12.3,15.4,5.4,28.1-5.6,37.1
						L232,334.3"/>
					<path class="st8" d="M177.8,264.8L170,261l7.6-6.2l7.8,3.8L177.8,264.8z M187.9,256.6l-7.8-3.8l2.9-2.3l7.8,3.8L187.9,256.6"/>
					<path class="st8" d="M215.4,310.6l-7.8-3.8l7.6-6.2l7.8,3.8L215.4,310.6z M225.5,302.3l-7.8-3.8l2.9-2.3l7.8,3.8L225.5,302.3"
						/>
					<path class="st8" d="M258.1,327.9l-7.8-3.8l7.6-6.2l7.8,3.8L258.1,327.9z M268.2,319.6l-7.8-3.8l0,0l0.4-0.3
						c0.9-0.7,1.7-1.4,2.5-2.1l7.9,3.8L268.2,319.6"/>
					<path class="st8" d="M155.1,204.1l-7.8-3.8c1-2.7,2.7-5.3,5-7.4l7.7,3.8C157.9,198.8,156.1,201.3,155.1,204.1z M162.3,194.5
						l-7.6-3.7c1.1-0.8,2.2-1.5,3.4-2.1l7.4,3.6h-0.1C164.4,192.9,163.3,193.7,162.3,194.5"/>
				</g>
				<rect x="109.1" y="143.6" class="st4" width="135.5" height="11.8"/>
				<rect x="179.7" y="355.4" class="st4" width="135.5" height="11.8"/>
			</g>
		</g>
	</g>
	<g>
		
			<image style="overflow:visible;opacity:0.4;" width="1584" height="1084" xlink:href="BD0577AE36A96B41.png"  transform="matrix(0.24 0 0 0.24 8.68 198.04)">
		</image>
		<g>
			<g>
				<g id="Layer_2_19_">
					<g id="svg2_18_">
						<g id="wild_18_">
							<path id="rect2987-8-5-81-2-4_21_" class="st0" d="M21.7,408.2v-160c0-22.1,17.9-40,40-40h280c22.1,0,40,17.9,40,40v160
								c0,22.1-17.9,40-40,40h-280C39.6,448.2,21.7,430.3,21.7,408.2z"/>
							<path id="rect3757-26-33-5-9-0_21_" class="st1" d="M41.7,408.2v-160c0-11,9-20,20-20h280c11,0,20,9,20,20v160
								c0,11-9,20-20,20h-280C50.7,428.2,41.7,419.2,41.7,408.2z"/>
							<path id="path3773-0-4-8-4-60-3-86-5-7_21_" class="st2" d="M101.7,268.2c0,88.4,71.6,160,160,160c22.1,0,40-17.9,40-40
								c0-88.4-71.6-160-160-160C119.6,228.2,101.7,246.1,101.7,268.2z"/>
							<path id="path3773-0-4-8-8-7-9-0-03-8-0_21_" class="st3" d="M101.7,268.2c0.1,88.3,71.7,159.9,160,160c22.1,0,40-17.9,40-40
								c0-65.2-39.6-123.8-100-148.2c-19.1-7.8-39.4-11.7-60-11.8C119.6,228.2,101.7,246.1,101.7,268.2z"/>
						</g>
					</g>
				</g>
				<g id="surface1_18_">
					<path class="st4" d="M161.8,288.7L161.8,288.7c1.3-0.3,2.5-0.7,3.7-1.3c1.3-0.7,2.6-1.5,3.8-2.5c1.7-1.4,3.2-3,4.3-4.7
						c1-1.5,1.6-3.2,1.9-4.8c0.1-2-0.1-3.8-0.6-5.1c-0.4-1.1-1-1.9-1.7-2.3c-0.5-0.3-1.2-0.3-2.1-0.2c-1.2,0.2-2.7,0.9-4.4,1.9
						c-0.5,0.3-0.9,0.5-1.3,0.8c-0.4,0.3-0.8,0.6-1.2,0.9c-2.1,1.7-3.9,3.8-5,5.9c-1,1.9-1.5,3.8-1.4,5.8s0.6,3.6,1.5,4.6
						c0.5,0.7,1.3,1,2.3,1L161.8,288.7z M132.7,299.6c-6.6-8.1-9-17.6-7.8-26.8c1.2-9.5,6.3-18.6,14.4-25.3c4.5-3.7,9.7-6.4,15-7.9
						s10.8-1.8,16.2-0.9c0.2,0,0.6,0.1,1.1,0.2c0.5,0.1,0.8,0.1,1.1,0.2c7.5,1.7,13.2,4,17.8,6.8s8,6,10.8,9.4
						c6.8,8.3,9.2,17.9,8.1,27.2c-1.2,9.7-6.3,18.9-14.4,25.6c-4.4,3.6-9.2,6.3-14.2,7.8c-5.1,1.6-10.3,2-15.6,1.3
						c-3.9-0.5-8.7-1.9-13.6-4c-4.3-1.9-8.7-4.5-12.8-7.7l0,0c-1.1-0.8-2.1-1.7-3.1-2.7C134.6,301.8,133.6,300.7,132.7,299.6"/>
					<path class="st4" d="M164.7,337.2l-11.3-13.8c-1-1.2-0.8-3.1,0.4-4.1c0.1-0.1,0.1-0.1,0.2-0.2l52.5-43.2c0.3-0.3,0.6-0.5,1-0.7
						c0.8-0.4,1.7-0.3,2.5,0l9.9,4.9c0.4,0.2,0.8,0.5,1,0.8l9.3,11.4c0.6,0.7,0.8,1.7,0.6,2.6l0,0l-4.7,18.1l6.5-5.3
						c0.3-0.4,0.8-0.7,1.3-0.9c0.8-0.2,1.5-0.2,2.2,0.2l9.9,4.9c0.4,0.2,0.7,0.5,1,0.8l0,0l11.4,13.9c1,1.2,0.8,3.1-0.4,4.1
						l-53.1,43.6c-1,0.8-2.3,0.9-3.4,0.2l-9.7-4.7c-0.4-0.2-0.8-0.5-1-0.8l-9.9-12.2c-0.6-0.7-0.8-1.7-0.6-2.6l0,0l4.2-16.6
						l-5.8,4.8c-0.9,0.7-2.1,0.8-3.1,0.4l-9.9-4.8C165.3,337.8,165,337.5,164.7,337.2L164.7,337.2"/>
					<path class="st4" d="M282.9,357.2c2.8,6,3.4,11.9,2.2,17.5c-1.6,7.6-6.5,14.6-14,20.7l-29.3,24.1c-1,0.8-2.3,0.9-3.4,0.2
						l-9.7-4.7c-0.4-0.2-0.7-0.5-1-0.8l0,0l-11.4-13.9c-1-1.2-0.8-3.1,0.4-4.1l29.9-24.6c1.8-1.4,3.2-3.1,4-5c0.6-1.4,0.7-3,0.2-4.6
						c-0.1-0.3-0.2-0.7-0.4-1c-0.6,0.2-1.2,0.5-1.8,0.8c-0.9,0.5-1.8,1.1-2.6,1.8l-29.7,24.6c-1,0.8-2.3,0.9-3.4,0.2l-9.4-4.6
						c-0.5-0.2-1-0.5-1.3-0.9L190.8,369c-1-1.2-0.8-3.1,0.4-4.1l29.7-24.4c4.6-3.8,9.2-6.4,13.9-8c4.8-1.6,9.5-1.9,14.2-1.1
						c3.7,0.7,8.1,2.9,12.5,5.2c1,0.5,2,1,2.8,1.4h0.1c1.8,0.8,3.5,1.8,5.2,3C275.3,345.2,280,350.8,282.9,357.2"/>
					<path class="st5" d="M167,335.4l-11.3-13.8l53-43.6l0,0l9.9,4.9l9.3,11.5l-7,26.8l13.8-11.3l0,0v-0.1l9.9,4.9l11.4,13.9
						l-53,43.5l-9.9-4.8l-9.9-12.2l6.4-25.2l-12.7,10.3L167,335.4"/>
					<path class="st5" d="M134.9,297.8c-12.5-15.2-8.5-35.8,6.2-47.9c8.5-7,19.1-9.9,29-8.1c0.6,0.1,1.2,0.2,1.9,0.3
						c14.3,3.2,21.8,8.9,26.9,15.2c12.9,15.7,8.8,36.6-5.9,48.6c-8.3,6.9-17.9,9.7-27.6,8.5c-6.9-0.9-16.7-4.7-24.9-11.1l0,0
						C138.6,301.7,136.7,299.9,134.9,297.8z M162.2,291.6c-0.1,0-0.2,0-0.3,0c-4.2,0.1-6.5-3.2-6.9-8.4c-0.4-5.2,2.8-10.4,7.4-14.2
						c0.9-0.8,1.9-1.4,2.9-2c4-2.4,7.1-3,9.4-1.8c2.7,1.4,4.2,5.2,3.8,10.3c-0.7,4.3-3.4,8.4-7.2,11.5
						C168.5,289.4,165.4,291,162.2,291.6"/>
					<path class="st5" d="M193.7,313.5L167,335.4l-11.3-13.8l53-43.6l9.3,11.5l-11.3,43.3l28-23l11.4,13.9l-53,43.5l-9.9-12.2
						L193.7,313.5"/>
					<path class="st6" d="M197.5,307.4l-30.2,24.8l-8.5-10.4l49.6-40.8l7.2,8.9l-12.8,48.8l31.6-25.9l8.6,10.5L193.4,364l-7.8-9.6
						L197.5,307.4"/>
					<path class="st7" d="M234.2,315l6.7,8.1l-47.2,38.8l-6.3-7.8l12.9-50.8l-32.7,26.8l-6.6-8l47.2-38.8l5.7,7L200.1,343L234.2,315
						"/>
					<path class="st5" d="M134.9,297.8c-12.5-15.2-8.5-35.8,6.2-47.9c14.7-12.1,35.7-11.9,48.2,3.3c12.4,15.2,8.5,35.8-6.2,47.9
						C168.4,313.1,147.4,313,134.9,297.8z M148.4,286.7c6.3,7.7,15.8,6.2,22.8,0.4c7-5.8,10.4-14.8,4.1-22.5
						c-6.3-7.7-15.8-6.1-22.8-0.4C145.4,270.1,142.1,279.1,148.4,286.7"/>
					<path class="st6" d="M136.7,296.4c-11.7-14.2-7.9-33.4,5.9-44.8c13.7-11.3,33.4-11.2,45,3c11.7,14.2,7.9,33.5-5.9,44.8
						C167.9,310.6,148.3,310.6,136.7,296.4z M146.7,288.2c7.1,8.6,18,7.2,26,0.7c8-6.6,11.5-16.9,4.4-25.6c-7.1-8.7-18-7.2-25.9-0.7
						C143.1,269.1,139.6,279.5,146.7,288.2"/>
					<path class="st7" d="M145.5,289.1c-7.4-9-4.4-20.3,4.6-27.7c9-7.4,20.7-8.2,28.1,0.9c7.4,9,4.4,20.4-4.6,27.8
						C164.6,297.5,152.9,298.1,145.5,289.1z M137.8,295.4c-10.9-13.3-7.7-31.6,5.7-42.6c13.4-11,32-10.5,42.9,2.7
						c10.9,13.3,7.7,31.6-5.7,42.6S148.8,308.7,137.8,295.4"/>
					<path class="st5" d="M280.9,359.8c5,12.3,0,23.9-11.5,33.3l-29.3,24.1l-9.9-4.8l-11.5-14l30-24.5c3.9-3.2,6.7-7.6,5.1-12.7
						c-0.4-1.5-1.2-3.4-3.3-3.2c-2.2,0.6-4.3,1.8-6.1,3.3l-29.9,24.6l-9.9-4.8l0,0l0,0l0,0l0,0l-11.5-13.9l29.7-24.4
						c8.6-7,17.3-10,25.8-8.4c4,0.7,9.5,3.8,14.5,6.3l0,0C271.1,344.3,277.6,351.8,280.9,359.8"/>
					<path class="st5" d="M262.6,342.6l0.2-0.1l2.4,2.9c0.1,0.1,0.1,0.2,0.2,0.2c0.1,0.1,0.2,0.2,0.2,0.3l2.4,2.9l-0.2,0.1
						c9.7,14.6,5,28.4-8.3,39.3l-29.3,24.1l-11.5-13.9l30-24.5c3.9-3.2,6.7-7.6,5.1-12.7c-0.5-1.5-1.3-2.9-2.3-4.2s-2.3-2.3-3.7-3.1
						c-4.7-2.5-9.6-0.5-13.4,2.6l-29.9,24.6l-11.4-13.9l29.7-24.4C236.2,331.8,250.2,330.2,262.6,342.6"/>
					<path class="st6" d="M262.4,345.7L262.4,345.7l1,1.2c0.1,0.1,0.1,0.2,0.2,0.2c0.1,0.1,0.1,0.2,0.2,0.3l1,1.2l0,0
						c10.4,14.1,6.4,27.3-6.7,38l-27.6,22.6l-8.6-10.5l28.2-23.2c4.6-3.8,7.6-9,5.9-15.1c-0.5-1.8-1.5-3.5-2.7-5s-2.7-2.8-4.4-3.6
						c-5.5-2.9-11.3-0.9-15.8,2.9l-28.2,23.2l-8.6-10.5l27.9-22.9C237.4,333.7,250.6,332.6,262.4,345.7"/>
					<path class="st7" d="M230.7,407.1l-6.6-8.1l27-22.2c8.9-7.3,8.2-16.2,3.4-22.2c-4.9-5.9-13.5-8.4-22.4-1l-27,22.2l-6.6-8.1
						l26.8-22c10.7-8.8,24-13.4,37.1,2.1l0,0c0.1,0.1,0.1,0.2,0.2,0.2c0.1,0.1,0.1,0.2,0.2,0.3l0,0c12.3,15.4,5.4,28.1-5.6,37.1
						L230.7,407.1"/>
					<path class="st8" d="M176.5,337.6l-7.8-3.8l7.6-6.2l7.8,3.8L176.5,337.6z M186.6,329.4l-7.8-3.8l2.9-2.3l7.8,3.8L186.6,329.4"
						/>
					<path class="st8" d="M214.1,383.4l-7.8-3.8l7.6-6.2l7.8,3.8L214.1,383.4z M224.2,375.1l-7.8-3.8l2.9-2.3l7.8,3.8L224.2,375.1"
						/>
					<path class="st8" d="M256.8,400.7l-7.8-3.8l7.6-6.2l7.8,3.8L256.8,400.7z M266.9,392.4l-7.8-3.8l0,0l0.4-0.3
						c0.9-0.7,1.7-1.4,2.5-2.1l7.9,3.8L266.9,392.4"/>
					<path class="st8" d="M153.8,276.9l-7.8-3.8c1-2.7,2.7-5.3,5-7.4l7.7,3.8C156.6,271.6,154.8,274.1,153.8,276.9z M161,267.3
						l-7.6-3.7c1.1-0.8,2.2-1.5,3.4-2.1l7.4,3.6h-0.1C163.1,265.7,162,266.5,161,267.3"/>
				</g>
				<rect x="107.8" y="216.4" class="st4" width="135.5" height="11.8"/>
				<rect x="178.4" y="428.2" class="st4" width="135.5" height="11.8"/>
			</g>
		</g>
	</g>
	<g>
		
			<image style="overflow:visible;opacity:0.4;" width="1584" height="1084" xlink:href="BD0577AE36A96B4E.png"  transform="matrix(0.24 0 0 0.24 9.88 270.04)">
		</image>
		<g>
			<g>
				<g id="Layer_2_18_">
					<g id="svg2_17_">
						<g id="wild_17_">
							<path id="rect2987-8-5-81-2-4_20_" class="st0" d="M22.9,480.1v-160c0-22.1,17.9-40,40-40h280c22.1,0,40,17.9,40,40v160
								c0,22.1-17.9,40-40,40h-280C40.8,520.1,22.9,502.2,22.9,480.1z"/>
							<path id="rect3757-26-33-5-9-0_20_" class="st1" d="M42.9,480.1v-160c0-11,9-20,20-20h280c11,0,20,9,20,20v160
								c0,11-9,20-20,20h-280C51.9,500.1,42.9,491.1,42.9,480.1z"/>
							<path id="path3773-0-4-8-4-60-3-86-5-7_20_" class="st2" d="M102.9,340.1c0,88.4,71.6,160,160,160c22.1,0,40-17.9,40-40
								c0-88.4-71.6-160-160-160C120.8,300.1,102.9,318,102.9,340.1z"/>
							<path id="path3773-0-4-8-8-7-9-0-03-8-0_20_" class="st3" d="M102.9,340.1c0.1,88.3,71.7,159.9,160,160c22.1,0,40-17.9,40-40
								c0-65.2-39.6-123.8-100-148.2c-19.1-7.8-39.4-11.7-60-11.8C120.8,300.1,102.9,318,102.9,340.1z"/>
						</g>
					</g>
				</g>
				<g id="surface1_17_">
					<path class="st4" d="M163,360.6L163,360.6c1.3-0.3,2.5-0.7,3.7-1.3c1.3-0.7,2.6-1.5,3.8-2.5c1.7-1.4,3.2-3,4.3-4.7
						c1-1.5,1.6-3.2,1.9-4.8c0.1-2-0.1-3.8-0.6-5.1c-0.4-1.1-1-1.9-1.7-2.3c-0.5-0.3-1.2-0.3-2.1-0.2c-1.2,0.2-2.7,0.9-4.4,1.9
						c-0.5,0.3-0.9,0.5-1.3,0.8c-0.4,0.3-0.8,0.6-1.2,0.9c-2.1,1.7-3.9,3.8-5,5.9c-1,1.9-1.5,3.8-1.4,5.8s0.6,3.6,1.5,4.6
						c0.5,0.7,1.3,1,2.3,1L163,360.6z M133.9,371.5c-6.6-8.1-9-17.6-7.8-26.8c1.2-9.5,6.3-18.6,14.4-25.3c4.5-3.7,9.7-6.4,15-7.9
						s10.8-1.8,16.2-0.9c0.2,0,0.6,0.1,1.1,0.2c0.5,0.1,0.8,0.1,1.1,0.2c7.5,1.7,13.2,4,17.8,6.8c4.6,2.8,8,6,10.8,9.4
						c6.8,8.3,9.2,17.9,8.1,27.2c-1.2,9.7-6.3,18.9-14.4,25.6c-4.4,3.6-9.2,6.3-14.2,7.8c-5.1,1.6-10.3,2-15.6,1.3
						c-3.9-0.5-8.7-1.9-13.6-4c-4.3-1.9-8.7-4.5-12.8-7.7l0,0c-1.1-0.8-2.1-1.7-3.1-2.7C135.8,373.7,134.8,372.6,133.9,371.5"/>
					<path class="st4" d="M165.9,409.1l-11.3-13.8c-1-1.2-0.8-3.1,0.4-4.1c0.1-0.1,0.1-0.1,0.2-0.2l52.5-43.2c0.3-0.3,0.6-0.5,1-0.7
						c0.8-0.4,1.7-0.3,2.5,0l9.9,4.9c0.4,0.2,0.8,0.5,1,0.8l9.3,11.4c0.6,0.7,0.8,1.7,0.6,2.6l0,0l-4.7,18.1l6.5-5.3
						c0.3-0.4,0.8-0.7,1.3-0.9c0.8-0.2,1.5-0.2,2.2,0.2l9.9,4.9c0.4,0.2,0.7,0.5,1,0.8l0,0l11.4,13.9c1,1.2,0.8,3.1-0.4,4.1
						l-53.1,43.6c-1,0.8-2.3,0.9-3.4,0.2l-9.7-4.7c-0.4-0.2-0.8-0.5-1-0.8l-9.9-12.2c-0.6-0.7-0.8-1.7-0.6-2.6l0,0l4.2-16.6
						l-5.8,4.8c-0.9,0.7-2.1,0.8-3.1,0.4l-9.9-4.8C166.5,409.7,166.2,409.4,165.9,409.1L165.9,409.1"/>
					<path class="st4" d="M284.1,429.1c2.8,6,3.4,11.9,2.2,17.5c-1.6,7.6-6.5,14.6-14,20.7L243,491.4c-1,0.8-2.3,0.9-3.4,0.2
						l-9.7-4.7c-0.4-0.2-0.7-0.5-1-0.8l0,0l-11.4-13.9c-1-1.2-0.8-3.1,0.4-4.1l29.9-24.6c1.8-1.4,3.2-3.1,4-5c0.6-1.4,0.7-3,0.2-4.6
						c-0.1-0.3-0.2-0.7-0.4-1c-0.6,0.2-1.2,0.5-1.8,0.8c-0.9,0.5-1.8,1.1-2.6,1.8l-29.7,24.6c-1,0.8-2.3,0.9-3.4,0.2l-9.4-4.6
						c-0.5-0.2-1-0.5-1.3-0.9L192,440.9c-1-1.2-0.8-3.1,0.4-4.1l29.7-24.4c4.6-3.8,9.2-6.4,13.9-8c4.8-1.6,9.5-1.9,14.2-1.1
						c3.7,0.7,8.1,2.9,12.5,5.2c1,0.5,2,1,2.8,1.4h0.1c1.8,0.8,3.5,1.8,5.2,3C276.5,417.1,281.2,422.7,284.1,429.1"/>
					<path class="st5" d="M168.2,407.3l-11.3-13.8l53-43.6l0,0l9.9,4.9l9.3,11.5l-7,26.8l13.8-11.3l0,0v-0.1l9.9,4.9l11.4,13.9
						l-53,43.5l-9.9-4.8l-9.9-12.2l6.4-25.2l-12.7,10.3L168.2,407.3"/>
					<path class="st5" d="M136.1,369.7c-12.5-15.2-8.5-35.8,6.2-47.9c8.5-7,19.1-9.9,29-8.1c0.6,0.1,1.2,0.2,1.9,0.3
						c14.3,3.2,21.8,8.9,26.9,15.2c12.9,15.7,8.8,36.6-5.9,48.6c-8.3,6.9-17.9,9.7-27.6,8.5c-6.9-0.9-16.7-4.7-24.9-11.1l0,0
						C139.8,373.6,137.9,371.8,136.1,369.7z M163.4,363.5c-0.1,0-0.2,0-0.3,0c-4.2,0.1-6.5-3.2-6.9-8.4c-0.4-5.2,2.8-10.4,7.4-14.2
						c0.9-0.8,1.9-1.4,2.9-2c4-2.4,7.1-3,9.4-1.8c2.7,1.4,4.2,5.2,3.8,10.3c-0.7,4.3-3.4,8.4-7.2,11.5
						C169.7,361.3,166.6,362.9,163.4,363.5"/>
					<path class="st5" d="M194.9,385.4l-26.7,21.9l-11.3-13.8l53-43.6l9.3,11.5l-11.3,43.3l28-23l11.4,13.9l-53,43.5l-9.9-12.2
						L194.9,385.4"/>
					<path class="st6" d="M198.7,379.3l-30.2,24.8l-8.5-10.4l49.6-40.8l7.2,8.9L204,410.6l31.6-25.9l8.6,10.5l-49.6,40.7l-7.8-9.6
						L198.7,379.3"/>
					<path class="st7" d="M235.4,386.9l6.7,8.1l-47.2,38.8l-6.3-7.8l12.9-50.8L168.8,402l-6.6-8l47.2-38.8l5.7,7l-13.8,52.7
						L235.4,386.9"/>
					<path class="st5" d="M136.1,369.7c-12.5-15.2-8.5-35.8,6.2-47.9c14.7-12.1,35.7-11.9,48.2,3.3c12.4,15.2,8.5,35.8-6.2,47.9
						C169.6,385,148.6,384.9,136.1,369.7z M149.6,358.6c6.3,7.7,15.8,6.2,22.8,0.4c7-5.8,10.4-14.8,4.1-22.5
						c-6.3-7.7-15.8-6.1-22.8-0.4C146.6,342,143.3,351,149.6,358.6"/>
					<path class="st6" d="M137.9,368.3c-11.7-14.2-7.9-33.4,5.9-44.8c13.7-11.3,33.4-11.2,45,3c11.7,14.2,7.9,33.5-5.9,44.8
						C169.1,382.5,149.5,382.5,137.9,368.3z M147.9,360.1c7.1,8.6,18,7.2,26,0.7c8-6.6,11.5-16.9,4.4-25.6c-7.1-8.7-18-7.2-25.9-0.7
						C144.3,341,140.8,351.4,147.9,360.1"/>
					<path class="st7" d="M146.7,361c-7.4-9-4.4-20.3,4.6-27.7c9-7.4,20.7-8.2,28.1,0.9c7.4,9,4.4,20.4-4.6,27.8
						C165.8,369.4,154.1,370,146.7,361z M139,367.3c-10.9-13.3-7.7-31.6,5.7-42.6c13.4-11,32-10.5,42.9,2.7
						c10.9,13.3,7.7,31.6-5.7,42.6S150,380.6,139,367.3"/>
					<path class="st5" d="M282.1,431.7c5,12.3,0,23.9-11.5,33.3l-29.3,24.1l-9.9-4.8l-11.5-14l30-24.5c3.9-3.2,6.7-7.6,5.1-12.7
						c-0.4-1.5-1.2-3.4-3.3-3.2c-2.2,0.6-4.3,1.8-6.1,3.3l-29.9,24.6l-9.9-4.8l0,0l0,0l0,0l0,0l-11.5-13.9l29.7-24.4
						c8.6-7,17.3-10,25.8-8.4c4,0.7,9.5,3.8,14.5,6.3l0,0C272.3,416.2,278.8,423.7,282.1,431.7"/>
					<path class="st5" d="M263.8,414.5l0.2-0.1l2.4,2.9c0.1,0.1,0.1,0.2,0.2,0.2c0.1,0.1,0.2,0.2,0.2,0.3l2.4,2.9l-0.2,0.1
						c9.7,14.6,5,28.4-8.3,39.3l-29.3,24.1l-11.5-13.9l30-24.5c3.9-3.2,6.7-7.6,5.1-12.7c-0.5-1.5-1.3-2.9-2.3-4.2s-2.3-2.3-3.7-3.1
						c-4.7-2.5-9.6-0.5-13.4,2.6L205.7,453l-11.4-13.9l29.7-24.4C237.4,403.7,251.4,402.1,263.8,414.5"/>
					<path class="st6" d="M263.6,417.6L263.6,417.6l1,1.2c0.1,0.1,0.1,0.2,0.2,0.2c0.1,0.1,0.1,0.2,0.2,0.3l1,1.2l0,0
						c10.4,14.1,6.4,27.3-6.7,38l-27.6,22.6l-8.6-10.5l28.2-23.2c4.6-3.8,7.6-9,5.9-15.1c-0.5-1.8-1.5-3.5-2.7-5s-2.7-2.8-4.4-3.6
						c-5.5-2.9-11.3-0.9-15.8,2.9l-28.2,23.2l-8.6-10.5l27.9-22.9C238.6,405.6,251.8,404.5,263.6,417.6"/>
					<path class="st7" d="M231.9,479l-6.6-8.1l27-22.2c8.9-7.3,8.2-16.2,3.4-22.2c-4.9-5.9-13.5-8.4-22.4-1l-27,22.2l-6.6-8.1
						l26.8-22c10.7-8.8,24-13.4,37.1,2.1l0,0c0.1,0.1,0.1,0.2,0.2,0.2c0.1,0.1,0.1,0.2,0.2,0.3l0,0c12.3,15.4,5.4,28.1-5.6,37.1
						L231.9,479"/>
					<path class="st8" d="M177.7,409.5l-7.8-3.8l7.6-6.2l7.8,3.8L177.7,409.5z M187.8,401.3l-7.8-3.8l2.9-2.3l7.8,3.8L187.8,401.3"
						/>
					<path class="st8" d="M215.3,455.3l-7.8-3.8l7.6-6.2l7.8,3.8L215.3,455.3z M225.4,447l-7.8-3.8l2.9-2.3l7.8,3.8L225.4,447"/>
					<path class="st8" d="M258,472.6l-7.8-3.8l7.6-6.2l7.8,3.8L258,472.6z M268.1,464.3l-7.8-3.8l0,0l0.4-0.3
						c0.9-0.7,1.7-1.4,2.5-2.1l7.9,3.8L268.1,464.3"/>
					<path class="st8" d="M155,348.8l-7.8-3.8c1-2.7,2.7-5.3,5-7.4l7.7,3.8C157.8,343.5,156,346,155,348.8z M162.2,339.2l-7.6-3.7
						c1.1-0.8,2.2-1.5,3.4-2.1l7.4,3.6h-0.1C164.3,337.6,163.2,338.4,162.2,339.2"/>
				</g>
				<rect x="109" y="288.3" class="st4" width="135.5" height="11.8"/>
				<rect x="179.6" y="500.1" class="st4" width="135.5" height="11.8"/>
			</g>
		</g>
	</g>
	<g>
		
			<image style="overflow:visible;opacity:0.4;" width="1584" height="1085" xlink:href="BD0577AE36A96B40.png"  transform="matrix(0.24 0 0 0.24 9.88 342.04)">
		</image>
		<g>
			<g>
				<g id="Layer_2_17_">
					<g id="svg2_16_">
						<g id="wild_16_">
							<path id="rect2987-8-5-81-2-4_19_" class="st0" d="M22.9,552.2v-160c0-22.1,17.9-40,40-40h280c22.1,0,40,17.9,40,40v160
								c0,22.1-17.9,40-40,40h-280C40.8,592.2,22.9,574.3,22.9,552.2z"/>
							<path id="rect3757-26-33-5-9-0_19_" class="st1" d="M42.9,552.2v-160c0-11,9-20,20-20h280c11,0,20,9,20,20v160
								c0,11-9,20-20,20h-280C51.9,572.2,42.9,563.2,42.9,552.2z"/>
							<path id="path3773-0-4-8-4-60-3-86-5-7_19_" class="st2" d="M102.9,412.2c0,88.4,71.6,160,160,160c22.1,0,40-17.9,40-40
								c0-88.4-71.6-160-160-160C120.8,372.2,102.9,390.1,102.9,412.2z"/>
							<path id="path3773-0-4-8-8-7-9-0-03-8-0_19_" class="st3" d="M102.9,412.2c0.1,88.3,71.7,159.9,160,160c22.1,0,40-17.9,40-40
								c0-65.2-39.6-123.8-100-148.2c-19.1-7.8-39.4-11.7-60-11.8C120.8,372.2,102.9,390.1,102.9,412.2z"/>
						</g>
					</g>
				</g>
				<g id="surface1_16_">
					<path class="st4" d="M163,432.7L163,432.7c1.3-0.3,2.5-0.7,3.7-1.3c1.3-0.7,2.6-1.5,3.8-2.5c1.7-1.4,3.2-3,4.3-4.7
						c1-1.5,1.6-3.2,1.9-4.8c0.1-2-0.1-3.8-0.6-5.1c-0.4-1.1-1-1.9-1.7-2.3c-0.5-0.3-1.2-0.3-2.1-0.2c-1.2,0.2-2.7,0.9-4.4,1.9
						c-0.5,0.3-0.9,0.5-1.3,0.8c-0.4,0.3-0.8,0.6-1.2,0.9c-2.1,1.7-3.9,3.8-5,5.9c-1,1.9-1.5,3.8-1.4,5.8s0.6,3.6,1.5,4.6
						c0.5,0.7,1.3,1,2.3,1L163,432.7z M133.9,443.6c-6.6-8.1-9-17.6-7.8-26.8c1.2-9.5,6.3-18.6,14.4-25.3c4.5-3.7,9.7-6.4,15-7.9
						s10.8-1.8,16.2-0.9c0.2,0,0.6,0.1,1.1,0.2c0.5,0.1,0.8,0.1,1.1,0.2c7.5,1.7,13.2,4,17.8,6.8c4.6,2.8,8,6,10.8,9.4
						c6.8,8.3,9.2,17.9,8.1,27.2c-1.2,9.7-6.3,18.9-14.4,25.6c-4.4,3.6-9.2,6.3-14.2,7.8c-5.1,1.6-10.3,2-15.6,1.3
						c-3.9-0.5-8.7-1.9-13.6-4c-4.3-1.9-8.7-4.5-12.8-7.7l0,0c-1.1-0.8-2.1-1.7-3.1-2.7C135.8,445.8,134.8,444.7,133.9,443.6"/>
					<path class="st4" d="M165.9,481.2l-11.3-13.8c-1-1.2-0.8-3.1,0.4-4.1c0.1-0.1,0.1-0.1,0.2-0.2l52.5-43.2c0.3-0.3,0.6-0.5,1-0.7
						c0.8-0.4,1.7-0.3,2.5,0l9.9,4.9c0.4,0.2,0.8,0.5,1,0.8l9.3,11.4c0.6,0.7,0.8,1.7,0.6,2.6l0,0l-4.7,18.1l6.5-5.3
						c0.3-0.4,0.8-0.7,1.3-0.9c0.8-0.2,1.5-0.2,2.2,0.2l9.9,4.9c0.4,0.2,0.7,0.5,1,0.8l0,0l11.4,13.9c1,1.2,0.8,3.1-0.4,4.1
						l-53.1,43.6c-1,0.8-2.3,0.9-3.4,0.2l-9.7-4.7c-0.4-0.2-0.8-0.5-1-0.8l-9.9-12.2c-0.6-0.7-0.8-1.7-0.6-2.6l0,0l4.2-16.6
						l-5.8,4.8c-0.9,0.7-2.1,0.8-3.1,0.4l-9.9-4.8C166.5,481.8,166.2,481.5,165.9,481.2L165.9,481.2"/>
					<path class="st4" d="M284.1,501.2c2.8,6,3.4,11.9,2.2,17.5c-1.6,7.6-6.5,14.6-14,20.7L243,563.5c-1,0.8-2.3,0.9-3.4,0.2
						l-9.7-4.7c-0.4-0.2-0.7-0.5-1-0.8l0,0l-11.4-13.9c-1-1.2-0.8-3.1,0.4-4.1l29.9-24.6c1.8-1.4,3.2-3.1,4-5c0.6-1.4,0.7-3,0.2-4.6
						c-0.1-0.3-0.2-0.7-0.4-1c-0.6,0.2-1.2,0.5-1.8,0.8c-0.9,0.5-1.8,1.1-2.6,1.8l-29.7,24.6c-1,0.8-2.3,0.9-3.4,0.2l-9.4-4.6
						c-0.5-0.2-1-0.5-1.3-0.9L192,513c-1-1.2-0.8-3.1,0.4-4.1l29.7-24.4c4.6-3.8,9.2-6.4,13.9-8c4.8-1.6,9.5-1.9,14.2-1.1
						c3.7,0.7,8.1,2.9,12.5,5.2c1,0.5,2,1,2.8,1.4h0.1c1.8,0.8,3.5,1.8,5.2,3C276.5,489.2,281.2,494.8,284.1,501.2"/>
					<path class="st5" d="M168.2,479.4l-11.3-13.8l53-43.6l0,0l9.9,4.9l9.3,11.5l-7,26.8l13.8-11.3l0,0v-0.1l9.9,4.9l11.4,13.9
						l-53,43.5l-9.9-4.8l-9.9-12.2l6.4-25.2l-12.7,10.3L168.2,479.4"/>
					<path class="st5" d="M136.1,441.8c-12.5-15.2-8.5-35.8,6.2-47.9c8.5-7,19.1-9.9,29-8.1c0.6,0.1,1.2,0.2,1.9,0.3
						c14.3,3.2,21.8,8.9,26.9,15.2c12.9,15.7,8.8,36.6-5.9,48.6c-8.3,6.9-17.9,9.7-27.6,8.5c-6.9-0.9-16.7-4.7-24.9-11.1l0,0
						C139.8,445.7,137.9,443.9,136.1,441.8z M163.4,435.6c-0.1,0-0.2,0-0.3,0c-4.2,0.1-6.5-3.2-6.9-8.4c-0.4-5.2,2.8-10.4,7.4-14.2
						c0.9-0.8,1.9-1.4,2.9-2c4-2.4,7.1-3,9.4-1.8c2.7,1.4,4.2,5.2,3.8,10.3c-0.7,4.3-3.4,8.4-7.2,11.5
						C169.7,433.4,166.6,435,163.4,435.6"/>
					<path class="st5" d="M194.9,457.5l-26.7,21.9l-11.3-13.8l53-43.6l9.3,11.5l-11.3,43.3l28-23l11.4,13.9l-53,43.5l-9.9-12.2
						L194.9,457.5"/>
					<path class="st6" d="M198.7,451.4l-30.2,24.8l-8.5-10.4l49.6-40.8l7.2,8.9L204,482.7l31.6-25.9l8.6,10.5L194.6,508l-7.8-9.6
						L198.7,451.4"/>
					<path class="st7" d="M235.4,459l6.7,8.1l-47.2,38.8l-6.3-7.8l12.9-50.8l-32.7,26.8l-6.6-8l47.2-38.8l5.7,7L201.3,487L235.4,459
						"/>
					<path class="st5" d="M136.1,441.8c-12.5-15.2-8.5-35.8,6.2-47.9c14.7-12.1,35.7-11.9,48.2,3.3c12.4,15.2,8.5,35.8-6.2,47.9
						C169.6,457.1,148.6,457,136.1,441.8z M149.6,430.7c6.3,7.7,15.8,6.2,22.8,0.4c7-5.8,10.4-14.8,4.1-22.5
						c-6.3-7.7-15.8-6.1-22.8-0.4C146.6,414.1,143.3,423.1,149.6,430.7"/>
					<path class="st6" d="M137.9,440.4c-11.7-14.2-7.9-33.4,5.9-44.8c13.7-11.3,33.4-11.2,45,3c11.7,14.2,7.9,33.5-5.9,44.8
						C169.1,454.6,149.5,454.6,137.9,440.4z M147.9,432.2c7.1,8.6,18,7.2,26,0.7c8-6.6,11.5-16.9,4.4-25.6c-7.1-8.7-18-7.2-25.9-0.7
						C144.3,413.1,140.8,423.5,147.9,432.2"/>
					<path class="st7" d="M146.7,433.1c-7.4-9-4.4-20.3,4.6-27.7c9-7.4,20.7-8.2,28.1,0.9c7.4,9,4.4,20.4-4.6,27.8
						C165.8,441.5,154.1,442.1,146.7,433.1z M139,439.4c-10.9-13.3-7.7-31.6,5.7-42.6c13.4-11,32-10.5,42.9,2.7
						c10.9,13.3,7.7,31.6-5.7,42.6S150,452.7,139,439.4"/>
					<path class="st5" d="M282.1,503.8c5,12.3,0,23.9-11.5,33.3l-29.3,24.1l-9.9-4.8l-11.5-14l30-24.5c3.9-3.2,6.7-7.6,5.1-12.7
						c-0.4-1.5-1.2-3.4-3.3-3.2c-2.2,0.6-4.3,1.8-6.1,3.3l-29.9,24.6l-9.9-4.8l0,0l0,0l0,0l0,0l-11.5-13.9l29.7-24.4
						c8.6-7,17.3-10,25.8-8.4c4,0.7,9.5,3.8,14.5,6.3l0,0C272.3,488.3,278.8,495.8,282.1,503.8"/>
					<path class="st5" d="M263.8,486.6l0.2-0.1l2.4,2.9c0.1,0.1,0.1,0.2,0.2,0.2c0.1,0.1,0.2,0.2,0.2,0.3l2.4,2.9l-0.2,0.1
						c9.7,14.6,5,28.4-8.3,39.3l-29.3,24.1l-11.5-13.9l30-24.5c3.9-3.2,6.7-7.6,5.1-12.7c-0.5-1.5-1.3-2.9-2.3-4.2
						c-1-1.3-2.3-2.3-3.7-3.1c-4.7-2.5-9.6-0.5-13.4,2.6l-29.9,24.6l-11.4-13.9l29.7-24.4C237.4,475.8,251.4,474.2,263.8,486.6"/>
					<path class="st6" d="M263.6,489.7L263.6,489.7l1,1.2c0.1,0.1,0.1,0.2,0.2,0.2c0.1,0.1,0.1,0.2,0.2,0.3l1,1.2l0,0
						c10.4,14.1,6.4,27.3-6.7,38l-27.6,22.6l-8.6-10.5l28.2-23.2c4.6-3.8,7.6-9,5.9-15.1c-0.5-1.8-1.5-3.5-2.7-5s-2.7-2.8-4.4-3.6
						c-5.5-2.9-11.3-0.9-15.8,2.9l-28.2,23.2l-8.6-10.5l27.9-22.9C238.6,477.7,251.8,476.6,263.6,489.7"/>
					<path class="st7" d="M231.9,551.1l-6.6-8.1l27-22.2c8.9-7.3,8.2-16.2,3.4-22.2c-4.9-5.9-13.5-8.4-22.4-1l-27,22.2l-6.6-8.1
						l26.8-22c10.7-8.8,24-13.4,37.1,2.1l0,0c0.1,0.1,0.1,0.2,0.2,0.2c0.1,0.1,0.1,0.2,0.2,0.3l0,0c12.3,15.4,5.4,28.1-5.6,37.1
						L231.9,551.1"/>
					<path class="st8" d="M177.7,481.6l-7.8-3.8l7.6-6.2l7.8,3.8L177.7,481.6z M187.8,473.4l-7.8-3.8l2.9-2.3l7.8,3.8L187.8,473.4"
						/>
					<path class="st8" d="M215.3,527.4l-7.8-3.8l7.6-6.2l7.8,3.8L215.3,527.4z M225.4,519.1l-7.8-3.8l2.9-2.3l7.8,3.8L225.4,519.1"
						/>
					<path class="st8" d="M258,544.7l-7.8-3.8l7.6-6.2l7.8,3.8L258,544.7z M268.1,536.4l-7.8-3.8l0,0l0.4-0.3
						c0.9-0.7,1.7-1.4,2.5-2.1l7.9,3.8L268.1,536.4"/>
					<path class="st8" d="M155,420.9l-7.8-3.8c1-2.7,2.7-5.3,5-7.4l7.7,3.8C157.8,415.6,156,418.1,155,420.9z M162.2,411.3l-7.6-3.7
						c1.1-0.8,2.2-1.5,3.4-2.1l7.4,3.6h-0.1C164.3,409.7,163.2,410.5,162.2,411.3"/>
				</g>
				<rect x="109" y="360.4" class="st4" width="135.5" height="11.8"/>
				<rect x="179.6" y="572.2" class="st4" width="135.5" height="11.8"/>
			</g>
		</g>
	</g>
	<g>
		
			<image style="overflow:visible;opacity:0.4;" width="1584" height="1084" xlink:href="BD0577AE36A96B46.png"  transform="matrix(0.24 0 0 0.24 9.64 412.6)">
		</image>
		<g>
			<g>
				<g id="Layer_2_16_">
					<g id="svg2_15_">
						<g id="wild_15_">
							<path id="rect2987-8-5-81-2-4_18_" class="st0" d="M22.8,622.8v-160c0-22.1,17.9-40,40-40h280c22.1,0,40,17.9,40,40v160
								c0,22.1-17.9,40-40,40h-280C40.7,662.8,22.8,644.9,22.8,622.8z"/>
							<path id="rect3757-26-33-5-9-0_18_" class="st1" d="M42.8,622.8v-160c0-11,9-20,20-20h280c11,0,20,9,20,20v160
								c0,11-9,20-20,20h-280C51.8,642.8,42.8,633.8,42.8,622.8z"/>
							<path id="path3773-0-4-8-4-60-3-86-5-7_18_" class="st2" d="M102.8,482.8c0,88.4,71.6,160,160,160c22.1,0,40-17.9,40-40
								c0-88.4-71.6-160-160-160C120.7,442.8,102.8,460.7,102.8,482.8z"/>
							<path id="path3773-0-4-8-8-7-9-0-03-8-0_18_" class="st3" d="M102.8,482.8c0.1,88.3,71.7,159.9,160,160c22.1,0,40-17.9,40-40
								c0-65.2-39.6-123.8-100-148.2c-19.1-7.8-39.4-11.7-60-11.8C120.7,442.8,102.8,460.7,102.8,482.8z"/>
						</g>
					</g>
				</g>
				<g id="surface1_15_">
					<path class="st4" d="M162.9,503.3L162.9,503.3c1.3-0.3,2.5-0.7,3.7-1.3c1.3-0.7,2.6-1.5,3.8-2.5c1.7-1.4,3.2-3,4.3-4.7
						c1-1.5,1.6-3.2,1.9-4.8c0.1-2-0.1-3.8-0.6-5.1c-0.4-1.1-1-1.9-1.7-2.3c-0.5-0.3-1.2-0.3-2.1-0.2c-1.2,0.2-2.7,0.9-4.4,1.9
						c-0.5,0.3-0.9,0.5-1.3,0.8c-0.4,0.3-0.8,0.6-1.2,0.9c-2.1,1.7-3.9,3.8-5,5.9c-1,1.9-1.5,3.8-1.4,5.8s0.6,3.6,1.5,4.6
						c0.5,0.7,1.3,1,2.3,1H162.9z M133.8,514.2c-6.6-8.1-9-17.6-7.8-26.8c1.2-9.5,6.3-18.6,14.4-25.3c4.5-3.7,9.7-6.4,15-7.9
						s10.8-1.8,16.2-0.9c0.2,0,0.6,0.1,1.1,0.2s0.8,0.1,1.1,0.2c7.5,1.7,13.2,4,17.8,6.8c4.6,2.8,8,6,10.8,9.4
						c6.8,8.3,9.2,17.9,8.1,27.2c-1.2,9.7-6.3,18.9-14.4,25.6c-4.4,3.6-9.2,6.3-14.2,7.8c-5.1,1.6-10.3,2-15.6,1.3
						c-3.9-0.5-8.7-1.9-13.6-4c-4.3-1.9-8.7-4.5-12.8-7.7l0,0c-1.1-0.8-2.1-1.7-3.1-2.7C135.7,516.4,134.7,515.3,133.8,514.2"/>
					<path class="st4" d="M165.8,551.8L154.5,538c-1-1.2-0.8-3.1,0.4-4.1c0.1-0.1,0.1-0.1,0.2-0.2l52.5-43.2c0.3-0.3,0.6-0.5,1-0.7
						c0.8-0.4,1.7-0.3,2.5,0l9.9,4.9c0.4,0.2,0.8,0.5,1,0.8l9.3,11.4c0.6,0.7,0.8,1.7,0.6,2.6l0,0l-4.7,18.1l6.5-5.3
						c0.3-0.4,0.8-0.7,1.3-0.9c0.8-0.2,1.5-0.2,2.2,0.2l9.9,4.9c0.4,0.2,0.7,0.5,1,0.8l0,0l11.4,13.9c1,1.2,0.8,3.1-0.4,4.1
						L206,588.9c-1,0.8-2.3,0.9-3.4,0.2l-9.7-4.7c-0.4-0.2-0.8-0.5-1-0.8l-9.9-12.2c-0.6-0.7-0.8-1.7-0.6-2.6l0,0l4.2-16.6l-5.8,4.8
						c-0.9,0.7-2.1,0.8-3.1,0.4l-9.9-4.8C166.4,552.4,166.1,552.1,165.8,551.8L165.8,551.8"/>
					<path class="st4" d="M284,571.8c2.8,6,3.4,11.9,2.2,17.5c-1.6,7.6-6.5,14.6-14,20.7l-29.3,24.1c-1,0.8-2.3,0.9-3.4,0.2
						l-9.7-4.7c-0.4-0.2-0.7-0.5-1-0.8l0,0l-11.4-13.9c-1-1.2-0.8-3.1,0.4-4.1l29.9-24.6c1.8-1.4,3.2-3.1,4-5c0.6-1.4,0.7-3,0.2-4.6
						c-0.1-0.3-0.2-0.7-0.4-1c-0.6,0.2-1.2,0.5-1.8,0.8c-0.9,0.5-1.8,1.1-2.6,1.8l-29.7,24.6c-1,0.8-2.3,0.9-3.4,0.2l-9.4-4.6
						c-0.5-0.2-1-0.5-1.3-0.9l-11.4-13.9c-1-1.2-0.8-3.1,0.4-4.1l29.7-24.4c4.6-3.8,9.2-6.4,13.9-8c4.8-1.6,9.5-1.9,14.2-1.1
						c3.7,0.7,8.1,2.9,12.5,5.2c1,0.5,2,1,2.8,1.4h0.1c1.8,0.8,3.5,1.8,5.2,3C276.4,559.8,281.1,565.4,284,571.8"/>
					<path class="st5" d="M168.1,550l-11.3-13.8l53-43.6l0,0l9.9,4.9L229,509l-7,26.8l13.8-11.3l0,0v-0.1l9.9,4.9l11.4,13.9
						l-53,43.5l-9.9-4.8l-9.9-12.2l6.4-25.2L178,554.8L168.1,550"/>
					<path class="st5" d="M136,512.4c-12.5-15.2-8.5-35.8,6.2-47.9c8.5-7,19.1-9.9,29-8.1c0.6,0.1,1.2,0.2,1.9,0.3
						c14.3,3.2,21.8,8.9,26.9,15.2c12.9,15.7,8.8,36.6-5.9,48.6c-8.3,6.9-17.9,9.7-27.6,8.5c-6.9-0.9-16.7-4.7-24.9-11.1l0,0
						C139.7,516.3,137.8,514.5,136,512.4z M163.3,506.2c-0.1,0-0.2,0-0.3,0c-4.2,0.1-6.5-3.2-6.9-8.4c-0.4-5.2,2.8-10.4,7.4-14.2
						c0.9-0.8,1.9-1.4,2.9-2c4-2.4,7.1-3,9.4-1.8c2.7,1.4,4.2,5.2,3.8,10.3c-0.7,4.3-3.4,8.4-7.2,11.5
						C169.6,504,166.5,505.6,163.3,506.2"/>
					<path class="st5" d="M194.8,528.1L168.1,550l-11.3-13.8l53-43.6l9.3,11.5l-11.3,43.3l28-23l11.4,13.9l-53,43.5l-9.9-12.2
						L194.8,528.1"/>
					<path class="st6" d="M198.6,522l-30.2,24.8l-8.5-10.4l49.6-40.8l7.2,8.9l-12.8,48.8l31.6-25.9l8.6,10.5l-49.6,40.7l-7.8-9.6
						L198.6,522"/>
					<path class="st7" d="M235.3,529.6l6.7,8.1l-47.2,38.8l-6.3-7.8l12.9-50.8l-32.7,26.8l-6.6-8l47.2-38.8l5.7,7l-13.8,52.7
						L235.3,529.6"/>
					<path class="st5" d="M136,512.4c-12.5-15.2-8.5-35.8,6.2-47.9s35.7-11.9,48.2,3.3c12.4,15.2,8.5,35.8-6.2,47.9
						C169.5,527.7,148.5,527.6,136,512.4z M149.5,501.3c6.3,7.7,15.8,6.2,22.8,0.4c7-5.8,10.4-14.8,4.1-22.5
						c-6.3-7.7-15.8-6.1-22.8-0.4C146.5,484.7,143.2,493.7,149.5,501.3"/>
					<path class="st6" d="M137.8,511c-11.7-14.2-7.9-33.4,5.9-44.8c13.7-11.3,33.4-11.2,45,3c11.7,14.2,7.9,33.5-5.9,44.8
						C169,525.2,149.4,525.2,137.8,511z M147.8,502.8c7.1,8.6,18,7.2,26,0.7c8-6.6,11.5-16.9,4.4-25.6s-18-7.2-25.9-0.7
						C144.2,483.7,140.7,494.1,147.8,502.8"/>
					<path class="st7" d="M146.6,503.7c-7.4-9-4.4-20.3,4.6-27.7s20.7-8.2,28.1,0.9c7.4,9,4.4,20.4-4.6,27.8
						C165.7,512.1,154,512.7,146.6,503.7z M138.9,510c-10.9-13.3-7.7-31.6,5.7-42.6s32-10.5,42.9,2.7c10.9,13.3,7.7,31.6-5.7,42.6
						C168.4,523.7,149.9,523.3,138.9,510"/>
					<path class="st5" d="M282,574.4c5,12.3,0,23.9-11.5,33.3l-29.3,24.1l-9.9-4.8l-11.5-14l30-24.5c3.9-3.2,6.7-7.6,5.1-12.7
						c-0.4-1.5-1.2-3.4-3.3-3.2c-2.2,0.6-4.3,1.8-6.1,3.3l-29.9,24.6l-9.9-4.8l0,0l0,0l0,0l0,0l-11.5-13.9l29.7-24.4
						c8.6-7,17.3-10,25.8-8.4c4,0.7,9.5,3.8,14.5,6.3l0,0C272.2,558.9,278.7,566.4,282,574.4"/>
					<path class="st5" d="M263.7,557.2l0.2-0.1l2.4,2.9c0.1,0.1,0.1,0.2,0.2,0.2c0.1,0.1,0.2,0.2,0.2,0.3l2.4,2.9l-0.2,0.1
						c9.7,14.6,5,28.4-8.3,39.3l-29.3,24.1L219.8,613l30-24.5c3.9-3.2,6.7-7.6,5.1-12.7c-0.5-1.5-1.3-2.9-2.3-4.2s-2.3-2.3-3.7-3.1
						c-4.7-2.5-9.6-0.5-13.4,2.6l-29.9,24.6l-11.4-13.9l29.7-24.4C237.3,546.4,251.3,544.8,263.7,557.2"/>
					<path class="st6" d="M263.5,560.3L263.5,560.3l1,1.2c0.1,0.1,0.1,0.2,0.2,0.2c0.1,0.1,0.1,0.2,0.2,0.3l1,1.2l0,0
						c10.4,14.1,6.4,27.3-6.7,38l-27.6,22.6l-8.6-10.5l28.2-23.2c4.6-3.8,7.6-9,5.9-15.1c-0.5-1.8-1.5-3.5-2.7-5s-2.7-2.8-4.4-3.6
						c-5.5-2.9-11.3-0.9-15.8,2.9L206,592.5l-8.6-10.5l27.9-22.9C238.5,548.3,251.7,547.2,263.5,560.3"/>
					<path class="st7" d="M231.8,621.7l-6.6-8.1l27-22.2c8.9-7.3,8.2-16.2,3.4-22.2c-4.9-5.9-13.5-8.4-22.4-1l-27,22.2l-6.6-8.1
						l26.8-22c10.7-8.8,24-13.4,37.1,2.1l0,0c0.1,0.1,0.1,0.2,0.2,0.2c0.1,0.1,0.1,0.2,0.2,0.3l0,0c12.3,15.4,5.4,28.1-5.6,37.1
						L231.8,621.7"/>
					<path class="st8" d="M177.6,552.2l-7.8-3.8l7.6-6.2l7.8,3.8L177.6,552.2z M187.7,544l-7.8-3.8l2.9-2.3l7.8,3.8L187.7,544"/>
					<path class="st8" d="M215.2,598l-7.8-3.8l7.6-6.2l7.8,3.8L215.2,598z M225.3,589.7l-7.8-3.8l2.9-2.3l7.8,3.8L225.3,589.7"/>
					<path class="st8" d="M257.9,615.3l-7.8-3.8l7.6-6.2l7.8,3.8L257.9,615.3z M268,607l-7.8-3.8l0,0l0.4-0.3
						c0.9-0.7,1.7-1.4,2.5-2.1l7.9,3.8L268,607"/>
					<path class="st8" d="M154.9,491.5l-7.8-3.8c1-2.7,2.7-5.3,5-7.4l7.7,3.8C157.7,486.2,155.9,488.7,154.9,491.5z M162.1,481.9
						l-7.6-3.7c1.1-0.8,2.2-1.5,3.4-2.1l7.4,3.6h-0.1C164.2,480.3,163.1,481.1,162.1,481.9"/>
				</g>
				<rect x="108.9" y="431" class="st4" width="135.5" height="11.8"/>
				<rect x="179.5" y="642.8" class="st4" width="135.5" height="11.8"/>
			</g>
		</g>
	</g>
	<g>
		<g id="Layer_2_1_">
			<g id="svg2">
				<g id="wild">
					<path id="rect2987-8-5-81-2-4" class="st0" d="M22.9,695.7v-160c0-22.1,17.9-40,40-40h280c22.1,0,40,17.9,40,40v160
						c0,22.1-17.9,40-40,40h-280C40.8,735.7,22.9,717.8,22.9,695.7z"/>
					<path id="rect3757-26-33-5-9-0" class="st1" d="M42.9,695.7v-160c0-11,9-20,20-20h280c11,0,20,9,20,20v160c0,11-9,20-20,20
						h-280C51.9,715.7,42.9,706.7,42.9,695.7z"/>
					<path id="path3773-0-4-8-4-60-3-86-5-7" class="st2" d="M102.9,555.7c0,88.4,71.6,160,160,160c22.1,0,40-17.9,40-40
						c0-88.4-71.6-160-160-160C120.8,515.7,102.9,533.6,102.9,555.7z"/>
					<path id="path3773-0-4-8-8-7-9-0-03-8-0" class="st3" d="M102.9,555.7c0.1,88.3,71.7,159.9,160,160c22.1,0,40-17.9,40-40
						c0-65.2-39.6-123.8-100-148.2c-19.1-7.8-39.4-11.7-60-11.8C120.8,515.7,102.9,533.6,102.9,555.7z"/>
				</g>
			</g>
		</g>
		<g id="surface1">
			<path class="st4" d="M163,576.2L163,576.2c1.3-0.3,2.5-0.7,3.7-1.3c1.3-0.7,2.6-1.5,3.8-2.5c1.7-1.4,3.2-3,4.3-4.7
				c1-1.5,1.6-3.2,1.9-4.8c0.1-2-0.1-3.8-0.6-5.1c-0.4-1.1-1-1.9-1.7-2.3c-0.5-0.3-1.2-0.3-2.1-0.2c-1.2,0.2-2.7,0.9-4.4,1.9
				c-0.5,0.3-0.9,0.5-1.3,0.8c-0.4,0.3-0.8,0.6-1.2,0.9c-2.1,1.7-3.9,3.8-5,5.9c-1,1.9-1.5,3.8-1.4,5.8s0.6,3.6,1.5,4.6
				c0.5,0.7,1.3,1,2.3,1H163z M133.9,587.1c-6.6-8.1-9-17.6-7.8-26.8c1.2-9.5,6.3-18.6,14.4-25.3c4.5-3.7,9.7-6.4,15-7.9
				s10.8-1.8,16.2-0.9c0.2,0,0.6,0.1,1.1,0.2s0.8,0.1,1.1,0.2c7.5,1.7,13.2,4,17.8,6.8s8,6,10.8,9.4c6.8,8.3,9.2,17.9,8.1,27.2
				c-1.2,9.7-6.3,18.9-14.4,25.6c-4.4,3.6-9.2,6.3-14.2,7.8c-5.1,1.6-10.3,2-15.6,1.3c-3.9-0.5-8.7-1.9-13.6-4
				c-4.3-1.9-8.7-4.5-12.8-7.7l0,0c-1.1-0.8-2.1-1.7-3.1-2.7C135.8,589.3,134.8,588.2,133.9,587.1"/>
			<path class="st4" d="M165.9,624.7l-11.3-13.8c-1-1.2-0.8-3.1,0.4-4.1c0.1-0.1,0.1-0.1,0.2-0.2l52.5-43.2c0.3-0.3,0.6-0.5,1-0.7
				c0.8-0.4,1.7-0.3,2.5,0l9.9,4.9c0.4,0.2,0.8,0.5,1,0.8l9.3,11.4c0.6,0.7,0.8,1.7,0.6,2.6l0,0l-4.7,18.1l6.5-5.3
				c0.3-0.4,0.8-0.7,1.3-0.9c0.8-0.2,1.5-0.2,2.2,0.2l9.9,4.9c0.4,0.2,0.7,0.5,1,0.8l0,0l11.4,13.9c1,1.2,0.8,3.1-0.4,4.1
				l-53.1,43.6c-1,0.8-2.3,0.9-3.4,0.2l-9.7-4.7c-0.4-0.2-0.8-0.5-1-0.8l-9.9-12.2c-0.6-0.7-0.8-1.7-0.6-2.6l0,0l4.2-16.6l-5.8,4.8
				c-0.9,0.7-2.1,0.8-3.1,0.4l-9.9-4.8C166.5,625.3,166.2,625,165.9,624.7L165.9,624.7"/>
			<path class="st4" d="M284.1,644.7c2.8,6,3.4,11.9,2.2,17.5c-1.6,7.6-6.5,14.6-14,20.7L243,707c-1,0.8-2.3,0.9-3.4,0.2l-9.7-4.7
				c-0.4-0.2-0.7-0.5-1-0.8l0,0l-11.4-13.9c-1-1.2-0.8-3.1,0.4-4.1l29.9-24.6c1.8-1.4,3.2-3.1,4-5c0.6-1.4,0.7-3,0.2-4.6
				c-0.1-0.3-0.2-0.7-0.4-1c-0.6,0.2-1.2,0.5-1.8,0.8c-0.9,0.5-1.8,1.1-2.6,1.8l-29.7,24.6c-1,0.8-2.3,0.9-3.4,0.2l-9.4-4.6
				c-0.5-0.2-1-0.5-1.3-0.9L192,656.5c-1-1.2-0.8-3.1,0.4-4.1l29.7-24.4c4.6-3.8,9.2-6.4,13.9-8c4.8-1.6,9.5-1.9,14.2-1.1
				c3.7,0.7,8.1,2.9,12.5,5.2c1,0.5,2,1,2.8,1.4h0.1c1.8,0.8,3.5,1.8,5.2,3C276.5,632.7,281.2,638.3,284.1,644.7"/>
			<path class="st5" d="M168.2,622.9l-11.3-13.8l53-43.6l0,0l9.9,4.9l9.3,11.5l-7,26.8l13.8-11.3l0,0v-0.1l9.9,4.9l11.4,13.9
				l-53,43.5l-9.9-4.8l-9.9-12.2l6.4-25.2l-12.7,10.3L168.2,622.9"/>
			<path class="st5" d="M136.1,585.3c-12.5-15.2-8.5-35.8,6.2-47.9c8.5-7,19.1-9.9,29-8.1c0.6,0.1,1.2,0.2,1.9,0.3
				c14.3,3.2,21.8,8.9,26.9,15.2c12.9,15.7,8.8,36.6-5.9,48.6c-8.3,6.9-17.9,9.7-27.6,8.5c-6.9-0.9-16.7-4.7-24.9-11.1l0,0
				C139.8,589.2,137.9,587.4,136.1,585.3z M163.4,579.1c-0.1,0-0.2,0-0.3,0c-4.2,0.1-6.5-3.2-6.9-8.4s2.8-10.4,7.4-14.2
				c0.9-0.8,1.9-1.4,2.9-2c4-2.4,7.1-3,9.4-1.8c2.7,1.4,4.2,5.2,3.8,10.3c-0.7,4.3-3.4,8.4-7.2,11.5
				C169.7,576.9,166.6,578.5,163.4,579.1"/>
			<path class="st5" d="M194.9,601l-26.7,21.9l-11.3-13.8l53-43.6l9.3,11.5l-11.3,43.3l28-23l11.4,13.9l-53,43.5l-9.9-12.2
				L194.9,601"/>
			<path class="st6" d="M198.7,594.9l-30.2,24.8l-8.5-10.4l49.6-40.8l7.2,8.9L204,626.2l31.6-25.9l8.6,10.5l-49.6,40.7l-7.8-9.6
				L198.7,594.9"/>
			<path class="st7" d="M235.4,602.5l6.7,8.1l-47.2,38.8l-6.3-7.8l12.9-50.8l-32.7,26.8l-6.6-8l47.2-38.8l5.7,7l-13.8,52.7
				L235.4,602.5"/>
			<path class="st5" d="M136.1,585.3c-12.5-15.2-8.5-35.8,6.2-47.9s35.7-11.9,48.2,3.3c12.4,15.2,8.5,35.8-6.2,47.9
				C169.6,600.6,148.6,600.5,136.1,585.3z M149.6,574.2c6.3,7.7,15.8,6.2,22.8,0.4c7-5.8,10.4-14.8,4.1-22.5
				c-6.3-7.7-15.8-6.1-22.8-0.4C146.6,557.6,143.3,566.6,149.6,574.2"/>
			<path class="st6" d="M137.9,583.9c-11.7-14.2-7.9-33.4,5.9-44.8c13.7-11.3,33.4-11.2,45,3c11.7,14.2,7.9,33.5-5.9,44.8
				C169.1,598.1,149.5,598.1,137.9,583.9z M147.9,575.7c7.1,8.6,18,7.2,26,0.7c8-6.6,11.5-16.9,4.4-25.6c-7.1-8.7-18-7.2-25.9-0.7
				C144.3,556.6,140.8,567,147.9,575.7"/>
			<path class="st7" d="M146.7,576.6c-7.4-9-4.4-20.3,4.6-27.7c9-7.4,20.7-8.2,28.1,0.9c7.4,9,4.4,20.4-4.6,27.8
				C165.8,585,154.1,585.6,146.7,576.6z M139,582.9c-10.9-13.3-7.7-31.6,5.7-42.6c13.4-11,32-10.5,42.9,2.7
				c10.9,13.3,7.7,31.6-5.7,42.6S150,596.2,139,582.9"/>
			<path class="st5" d="M282.1,647.3c5,12.3,0,23.9-11.5,33.3l-29.3,24.1l-9.9-4.8l-11.5-14l30-24.5c3.9-3.2,6.7-7.6,5.1-12.7
				c-0.4-1.5-1.2-3.4-3.3-3.2c-2.2,0.6-4.3,1.8-6.1,3.3l-29.9,24.6l-9.9-4.8l0,0l0,0l0,0l0,0l-11.5-13.9l29.7-24.4
				c8.6-7,17.3-10,25.8-8.4c4,0.7,9.5,3.8,14.5,6.3l0,0C272.3,631.8,278.8,639.3,282.1,647.3"/>
			<path class="st5" d="M263.8,630.1l0.2-0.1l2.4,2.9c0.1,0.1,0.1,0.2,0.2,0.2c0.1,0.1,0.2,0.2,0.2,0.3l2.4,2.9l-0.2,0.1
				c9.7,14.6,5,28.4-8.3,39.3l-29.3,24.1l-11.5-13.9l30-24.5c3.9-3.2,6.7-7.6,5.1-12.7c-0.5-1.5-1.3-2.9-2.3-4.2
				c-1-1.3-2.3-2.3-3.7-3.1c-4.7-2.5-9.6-0.5-13.4,2.6l-29.9,24.6l-11.4-13.9l29.7-24.4C237.4,619.3,251.4,617.7,263.8,630.1"/>
			<path class="st6" d="M263.6,633.2L263.6,633.2l1,1.2c0.1,0.1,0.1,0.2,0.2,0.2c0.1,0.1,0.1,0.2,0.2,0.3l1,1.2l0,0
				c10.4,14.1,6.4,27.3-6.7,38l-27.6,22.6l-8.6-10.5l28.2-23.2c4.6-3.8,7.6-9,5.9-15.1c-0.5-1.8-1.5-3.5-2.7-5s-2.7-2.8-4.4-3.6
				c-5.5-2.9-11.3-0.9-15.8,2.9l-28.2,23.2l-8.6-10.5l27.9-22.9C238.6,621.2,251.8,620.1,263.6,633.2"/>
			<path class="st7" d="M231.9,694.6l-6.6-8.1l27-22.2c8.9-7.3,8.2-16.2,3.4-22.2c-4.9-5.9-13.5-8.4-22.4-1l-27,22.2l-6.6-8.1
				l26.8-22c10.7-8.8,24-13.4,37.1,2.1l0,0c0.1,0.1,0.1,0.2,0.2,0.2c0.1,0.1,0.1,0.2,0.2,0.3l0,0c12.3,15.4,5.4,28.1-5.6,37.1
				L231.9,694.6"/>
			<path class="st8" d="M177.7,625.1l-7.8-3.8l7.6-6.2l7.8,3.8L177.7,625.1z M187.8,616.9l-7.8-3.8l2.9-2.3l7.8,3.8L187.8,616.9"/>
			<path class="st8" d="M215.3,670.9l-7.8-3.8l7.6-6.2l7.8,3.8L215.3,670.9z M225.4,662.6l-7.8-3.8l2.9-2.3l7.8,3.8L225.4,662.6"/>
			<path class="st8" d="M258,688.2l-7.8-3.8l7.6-6.2l7.8,3.8L258,688.2z M268.1,679.9l-7.8-3.8l0,0l0.4-0.3c0.9-0.7,1.7-1.4,2.5-2.1
				l7.9,3.8L268.1,679.9"/>
			<path class="st8" d="M155,564.4l-7.8-3.8c1-2.7,2.7-5.3,5-7.4l7.7,3.8C157.8,559.1,156,561.6,155,564.4z M162.2,554.8l-7.6-3.7
				c1.1-0.8,2.2-1.5,3.4-2.1l7.4,3.6h-0.1C164.3,553.2,163.2,554,162.2,554.8"/>
		</g>
		<rect x="109" y="503.9" class="st4" width="135.5" height="11.8"/>
		<rect x="179.6" y="715.7" class="st4" width="135.5" height="11.8"/>
	</g>
</g>
</svg>
